<svg preserveAspectRatio="none" width="100%" height="100%" overflow="visible" style="display: block;" viewBox="0 0 30 70" fill="none" xmlns="http://www.w3.org/2000/svg">
<g id="Vector">
<path d="M3.4045 12.5125C3.4045 16.8582 2.22734 20.9451 0.156684 24.5064C0.997885 24.6539 1.86666 24.7311 2.75532 24.7311C10.2787 24.7311 16.3777 19.1949 16.3777 12.3656C16.3777 5.53625 10.2787 0 2.75532 0C1.81137 0 0.889856 0.0871485 0 0.253068C2.16785 3.87617 3.4045 8.05847 3.4045 12.5125Z" fill="var(--fill-0, white)"/>
<path d="M11.6633 70C21.9293 69.3387 30 64.0863 30 57.7048C30 51.3825 22.0687 46.1686 11.9375 45.4292C14.8056 48.7688 16.7023 52.8318 16.7023 57.5577C16.7023 62.4327 14.6841 66.6022 11.6633 70Z" fill="var(--fill-0, white)"/>
</g>
</svg>
