<svg width="120" height="120" viewBox="0 0 120 120" fill="none" xmlns="http://www.w3.org/2000/svg">
<g filter="url(#filter0_i_811_8453)">
<path fill-rule="evenodd" clip-rule="evenodd" d="M10 60C10 32.3858 32.3858 10 60 10C87.6142 10 110 32.3858 110 60C110 87.6142 87.6142 110 60 110C32.3858 110 10 87.6142 10 60ZM56.25 25C56.25 22.9289 57.9289 21.25 60 21.25C81.401 21.25 98.75 38.599 98.75 60C98.75 81.401 81.401 98.75 60 98.75C38.599 98.75 21.25 81.401 21.25 60C21.25 57.9289 22.9289 56.25 25 56.25C27.0711 56.25 28.75 57.9289 28.75 60C28.75 77.2589 42.7411 91.25 60 91.25C77.2589 91.25 91.25 77.2589 91.25 60C91.25 42.7411 77.2589 28.75 60 28.75C57.9289 28.75 56.25 27.0711 56.25 25ZM60 36.25C57.9289 36.25 56.25 37.9289 56.25 40C56.25 42.0711 57.9289 43.75 60 43.75C68.9746 43.75 76.25 51.0254 76.25 60C76.25 68.9746 68.9746 76.25 60 76.25C57.9289 76.25 56.25 77.9289 56.25 80C56.25 82.0711 57.9289 83.75 60 83.75C73.1168 83.75 83.75 73.1168 83.75 60C83.75 46.8832 73.1168 36.25 60 36.25Z" fill="white"/>
</g>
<defs>
<filter id="filter0_i_811_8453" x="0" y="-6" width="120" height="126" filterUnits="userSpaceOnUse" color-interpolation-filters="sRGB">
<feFlood flood-opacity="0" result="BackgroundImageFix"/>
<feBlend mode="normal" in="SourceGraphic" in2="BackgroundImageFix" result="shape"/>
<feColorMatrix in="SourceAlpha" type="matrix" values="0 0 0 0 0 0 0 0 0 0 0 0 0 0 0 0 0 0 127 0" result="hardAlpha"/>
<feOffset dy="-6"/>
<feGaussianBlur stdDeviation="8"/>
<feComposite in2="hardAlpha" operator="arithmetic" k2="-1" k3="1"/>
<feColorMatrix type="matrix" values="0 0 0 0 0 0 0 0 0 0 0 0 0 0 0 0 0 0 0.5 0"/>
<feBlend mode="normal" in2="shape" result="effect1_innerShadow_811_8453"/>
</filter>
</defs>
</svg>
