<svg preserveAspectRatio="none" width="100%" height="100%" overflow="visible" style="display: block;" viewBox="0 0 83.3125 12.9004" fill="none" xmlns="http://www.w3.org/2000/svg">
<g id="logo" opacity="0.1">
<path id="Vector" d="M29.3791 0H26.4668L23.3933 4.29186L20.3124 0H17.3797L21.9353 6.3204L17.2 12.9H20.1327L23.3914 8.34894L26.6502 12.9H29.5625L24.8457 6.3204" fill="var(--fill-0, white)"/>
<path id="Vector_2" d="M36.8882 7.51733H42.9622V5.23622H36.8882V2.28862H43.9824V0H34.4V12.9H44.075V10.6189H36.8882" fill="var(--fill-0, white)"/>
<path id="Vector_3" d="M68.8 0H66.1125V12.9H68.8V0Z" fill="var(--fill-0, white)"/>
<path id="Vector_4" d="M76.6903 0H74.175V12.9H83.3125V10.6179H76.6903" fill="var(--fill-0, white)"/>
<path id="Vector_5" d="M0 12.9002H2.55964L4.50667 8.93587L6.4537 4.98092L9.32798 10.8543L10.3311 12.8852H12.9L6.45185 0.000195313L0 12.9002Z" fill="var(--fill-0, white)"/>
<path id="Vector_6" d="M56.7627 3.94062L54.8 7.90191L51.9393 2.03417L50.9357 0H48.375L54.8259 12.9L61.275 0H58.7106L56.7627 3.94062Z" fill="var(--fill-0, white)"/>
<path id="Vector_7" d="M80.5172 1.61035H80.7328V0.27772H81.1625V0H80.0875V0.27772H80.5172V1.6125V1.61035Z" fill="var(--fill-0, white)"/>
<path id="Vector_8" d="M83.0581 0L82.5053 1.11088L81.9525 0H81.7V1.6125H81.9525V0.499466L82.4058 1.44458H82.5569L83.06 0.499466V1.61035H83.3125V0H83.06H83.0581Z" fill="var(--fill-0, white)"/>
</g>
</svg>
