<svg preserveAspectRatio="none" width="100%" height="100%" overflow="visible" style="display: block;" viewBox="0 0 22 51.3333" fill="none" xmlns="http://www.w3.org/2000/svg">
<g id="Vector">
<path d="M19.9794 0C20.6717 0 21.3474 0.0639088 22 0.185583C20.4102 2.84252 19.5034 5.90954 19.5034 9.17587C19.5034 12.3627 20.3666 15.3597 21.8851 17.9713C21.2682 18.0795 20.6311 18.1361 19.9794 18.1361C14.4623 18.1361 9.98972 14.0762 9.98972 9.06807C9.98972 4.05992 14.4623 0 19.9794 0Z" fill="var(--fill-0, white)"/>
<path d="M13.4469 51.3333C11.2317 48.8416 9.75168 45.784 9.75168 42.209C9.75168 38.7433 11.1426 35.7638 13.2458 33.3148C5.81628 33.857 0 37.6805 0 42.3168C0 46.9966 5.9185 50.8484 13.4469 51.3333Z" fill="var(--fill-0, white)"/>
</g>
</svg>
