<svg preserveAspectRatio="none" width="100%" height="100%" overflow="visible" style="display: block;" viewBox="0 0 73.3333 76.0833" fill="none" xmlns="http://www.w3.org/2000/svg">
<path id="Vector" fill-rule="evenodd" clip-rule="evenodd" d="M36.8573 3.817e-06H36.476C33.1816 -9.87163e-05 30.4344 -0.000184675 28.2536 0.293021C25.9517 0.602505 23.8734 1.2833 22.2033 2.95335C20.5333 4.62341 19.8525 6.70168 19.543 9.00359C19.2498 11.1844 19.2499 13.9316 19.25 17.2259V17.511C11.839 17.7534 7.38875 18.6195 4.29577 21.7124C0 26.0082 0 32.9221 0 46.75C0 60.5779 0 67.4918 4.29577 71.7876C8.59153 76.0833 15.5055 76.0833 29.3333 76.0833H44C57.8279 76.0833 64.7418 76.0833 69.0376 71.7876C73.3333 67.4918 73.3333 60.5779 73.3333 46.75C73.3333 32.9221 73.3333 26.0082 69.0376 21.7124C65.9446 18.6195 61.4943 17.7534 54.0833 17.511V17.226C54.0835 13.9317 54.0835 11.1844 53.7903 9.00359C53.4808 6.70168 52.8001 4.62341 51.13 2.95335C49.4599 1.2833 47.3817 0.602505 45.0798 0.293021C42.8989 -0.000184675 40.1517 -9.87163e-05 36.8573 3.817e-06ZM48.5833 17.4236V17.4167C48.5833 13.882 48.5775 11.5076 48.3394 9.73645C48.1119 8.04442 47.7187 7.32027 47.2409 6.84244C46.7631 6.36461 46.0389 5.97146 44.3469 5.74398C42.5758 5.50585 40.2014 5.50001 36.6667 5.50001C33.132 5.50001 30.7576 5.50585 28.9864 5.74398C27.2944 5.97146 26.5703 6.36461 26.0924 6.84244C25.6146 7.32027 25.2215 8.04442 24.994 9.73645C24.7558 11.5076 24.75 13.882 24.75 17.4167V17.4236C26.1874 17.4167 27.7129 17.4167 29.3333 17.4167H44C45.6204 17.4167 47.1459 17.4167 48.5833 17.4236ZM55 28.4167C55 30.4417 53.3584 32.0833 51.3333 32.0833C49.3083 32.0833 47.6667 30.4417 47.6667 28.4167C47.6667 26.3916 49.3083 24.75 51.3333 24.75C53.3584 24.75 55 26.3916 55 28.4167ZM22 32.0833C24.025 32.0833 25.6667 30.4417 25.6667 28.4167C25.6667 26.3916 24.025 24.75 22 24.75C19.975 24.75 18.3333 26.3916 18.3333 28.4167C18.3333 30.4417 19.975 32.0833 22 32.0833Z" fill="var(--fill-0, white)"/>
</svg>
