<svg preserveAspectRatio="none" width="100%" height="100%" overflow="visible" style="display: block;" viewBox="0 0 100 103.75" fill="none" xmlns="http://www.w3.org/2000/svg">
<path id="Vector" fill-rule="evenodd" clip-rule="evenodd" d="M50.26 5.205e-06H49.74C45.2477 -0.000134613 41.5015 -0.00025183 38.5276 0.399574C35.3886 0.821598 32.5546 1.74995 30.2773 4.0273C27.9999 6.30465 27.0716 9.13865 26.6496 12.2776C26.2497 15.2515 26.2499 18.9976 26.25 23.4899V23.8786C16.1441 24.2092 10.0756 25.3902 5.85786 29.6079C0 35.4657 0 44.8938 0 63.75C0 82.6062 0 92.0343 5.85786 97.8922C11.7157 103.75 21.1438 103.75 40 103.75H60C78.8562 103.75 88.2843 103.75 94.1421 97.8922C100 92.0343 100 82.6062 100 63.75C100 44.8938 100 35.4657 94.1421 29.6079C89.9244 25.3902 83.8559 24.2092 73.75 23.8786V23.49C73.7502 18.9977 73.7503 15.2515 73.3505 12.2776C72.9284 9.13865 72.0001 6.30465 69.7227 4.0273C67.4454 1.74995 64.6114 0.821598 61.4724 0.399574C58.4985 -0.00025183 54.7523 -0.000134613 50.26 5.205e-06ZM66.25 23.7594V23.75C66.25 18.93 66.242 15.6922 65.9173 13.277C65.6071 10.9697 65.071 9.98218 64.4194 9.3306C63.7678 8.67902 62.7804 8.1429 60.4731 7.83269C58.0579 7.50798 54.8201 7.50002 50 7.50002C45.18 7.50002 41.9422 7.50798 39.527 7.83269C37.2197 8.1429 36.2322 8.67902 35.5806 9.3306C34.929 9.98218 34.3929 10.9697 34.0827 13.277C33.758 15.6922 33.75 18.93 33.75 23.75V23.7594C35.7102 23.75 37.7903 23.75 40 23.75H60C62.2097 23.75 64.2899 23.75 66.25 23.7594ZM75 38.75C75 41.5114 72.7614 43.75 70 43.75C67.2386 43.75 65 41.5114 65 38.75C65 35.9886 67.2386 33.75 70 33.75C72.7614 33.75 75 35.9886 75 38.75ZM30 43.75C32.7614 43.75 35 41.5114 35 38.75C35 35.9886 32.7614 33.75 30 33.75C27.2386 33.75 25 35.9886 25 38.75C25 41.5114 27.2386 43.75 30 43.75Z" fill="var(--fill-0, white)"/>
</svg>
