<svg preserveAspectRatio="none" width="100%" height="100%" overflow="visible" style="display: block;" viewBox="0 0 100 100" fill="none" xmlns="http://www.w3.org/2000/svg">
<path id="Vector" fill-rule="evenodd" clip-rule="evenodd" d="M0 50C0 22.3858 22.3858 0 50 0C77.6142 0 100 22.3858 100 50C100 77.6142 77.6142 100 50 100C22.3858 100 0 77.6142 0 50ZM46.25 15C46.25 12.9289 47.9289 11.25 50 11.25C71.401 11.25 88.75 28.599 88.75 50C88.75 71.401 71.401 88.75 50 88.75C28.599 88.75 11.25 71.401 11.25 50C11.25 47.9289 12.9289 46.25 15 46.25C17.0711 46.25 18.75 47.9289 18.75 50C18.75 67.2589 32.7411 81.25 50 81.25C67.2589 81.25 81.25 67.2589 81.25 50C81.25 32.7411 67.2589 18.75 50 18.75C47.9289 18.75 46.25 17.0711 46.25 15ZM50 26.25C47.9289 26.25 46.25 27.9289 46.25 30C46.25 32.0711 47.9289 33.75 50 33.75C58.9746 33.75 66.25 41.0254 66.25 50C66.25 58.9746 58.9746 66.25 50 66.25C47.9289 66.25 46.25 67.9289 46.25 70C46.25 72.0711 47.9289 73.75 50 73.75C63.1168 73.75 73.75 63.1168 73.75 50C73.75 36.8832 63.1168 26.25 50 26.25Z" fill="var(--fill-0, white)"/>
</svg>
