<svg preserveAspectRatio="none" width="100%" height="100%" overflow="visible" style="display: block;" viewBox="0 0 30 70" fill="none" xmlns="http://www.w3.org/2000/svg">
<g id="Vector">
<path d="M27.2447 0C28.1886 0 29.1101 0.0871484 30 0.253068C27.8321 3.87617 26.5955 8.05847 26.5955 12.5125C26.5955 16.8582 27.7727 20.9451 29.8433 24.5064C29.0021 24.6539 28.1333 24.7311 27.2447 24.7311C19.7213 24.7311 13.6223 19.1949 13.6223 12.3656C13.6223 5.53625 19.7213 0 27.2447 0Z" fill="var(--fill-0, white)"/>
<path d="M18.3367 70C15.3159 66.6022 13.2977 62.4327 13.2977 57.5577C13.2977 52.8318 15.1944 48.7688 18.0625 45.4292C7.93129 46.1686 0 51.3825 0 57.7048C0 64.0863 8.07068 69.3387 18.3367 70Z" fill="var(--fill-0, white)"/>
</g>
</svg>
