<svg preserveAspectRatio="none" width="100%" height="100%" overflow="visible" style="display: block;" viewBox="0 0 15 12" fill="none" xmlns="http://www.w3.org/2000/svg">
<path id="Vector" fill-rule="evenodd" clip-rule="evenodd" d="M0.87868 0.87868C0 1.75736 0 3.17157 0 6C0 8.82843 0 10.2426 0.87868 11.1213C1.75736 12 3.17157 12 6 12H9C11.8284 12 13.2426 12 14.1213 11.1213C15 10.2426 15 8.82843 15 6C15 3.17157 15 1.75736 14.1213 0.87868C13.2426 0 11.8284 0 9 0H6C3.17157 0 1.75736 0 0.87868 0.87868ZM12.4321 2.6399C12.631 2.87855 12.5988 3.23324 12.3601 3.43212L10.7127 4.80492C10.048 5.35892 9.50916 5.80794 9.03362 6.11379C8.53824 6.43239 8.05581 6.63366 7.5 6.63366C6.94419 6.63366 6.46176 6.43239 5.96638 6.11379C5.49084 5.80794 4.95203 5.35892 4.28727 4.80493L2.6399 3.43212C2.40124 3.23324 2.369 2.87855 2.56788 2.6399C2.76676 2.40124 3.12145 2.369 3.3601 2.56788L4.97928 3.91719C5.679 4.50028 6.1648 4.90381 6.57494 5.1676C6.97196 5.42294 7.2412 5.50866 7.5 5.50866C7.7588 5.50866 8.02804 5.42294 8.42506 5.1676C8.8352 4.90381 9.321 4.50028 10.0207 3.91718L11.6399 2.56788C11.8786 2.369 12.2332 2.40124 12.4321 2.6399Z" fill="var(--fill-0, #202020)"/>
</svg>
