<svg preserveAspectRatio="none" width="100%" height="100%" overflow="visible" style="display: block;" viewBox="0 0 22 51.3333" fill="none" xmlns="http://www.w3.org/2000/svg">
<g id="Vector">
<path d="M2.49664 9.17587C2.49664 12.3627 1.63338 15.3597 0.114902 17.9713C0.731782 18.0795 1.36889 18.1361 2.02057 18.1361C7.53773 18.1361 12.0103 14.0762 12.0103 9.06807C12.0103 4.05992 7.53773 0 2.02057 0C1.32834 0 0.652561 0.0639089 0 0.185584C1.58976 2.84252 2.49664 5.90954 2.49664 9.17587Z" fill="var(--fill-0, white)"/>
<path d="M8.55307 51.3333C16.0815 50.8484 22 46.9966 22 42.3168C22 37.6805 16.1837 33.857 8.75418 33.3148C10.8574 35.7638 12.2483 38.7433 12.2483 42.209C12.2483 45.784 10.7683 48.8416 8.55307 51.3333Z" fill="var(--fill-0, white)"/>
</g>
</svg>
