<svg preserveAspectRatio="none" width="100%" height="100%" overflow="visible" style="display: block;" viewBox="0 0 73.3333 73.3333" fill="none" xmlns="http://www.w3.org/2000/svg">
<path id="Vector" fill-rule="evenodd" clip-rule="evenodd" d="M0 36.6667C0 16.4162 16.4162 0 36.6667 0C56.9171 0 73.3333 16.4162 73.3333 36.6667C73.3333 56.9171 56.9171 73.3333 36.6667 73.3333C16.4162 73.3333 0 56.9171 0 36.6667ZM33.9167 11C33.9167 9.48122 35.1479 8.25 36.6667 8.25C52.3608 8.25 65.0833 20.9726 65.0833 36.6667C65.0833 52.3608 52.3608 65.0833 36.6667 65.0833C20.9726 65.0833 8.25 52.3608 8.25 36.6667C8.25 35.1479 9.48122 33.9167 11 33.9167C12.5188 33.9167 13.75 35.1479 13.75 36.6667C13.75 49.3232 24.0101 59.5833 36.6667 59.5833C49.3232 59.5833 59.5833 49.3232 59.5833 36.6667C59.5833 24.0101 49.3232 13.75 36.6667 13.75C35.1479 13.75 33.9167 12.5188 33.9167 11ZM36.6667 19.25C35.1479 19.25 33.9167 20.4812 33.9167 22C33.9167 23.5188 35.1479 24.75 36.6667 24.75C43.2481 24.75 48.5833 30.0853 48.5833 36.6667C48.5833 43.2481 43.2481 48.5833 36.6667 48.5833C35.1479 48.5833 33.9167 49.8146 33.9167 51.3333C33.9167 52.8521 35.1479 54.0833 36.6667 54.0833C46.2856 54.0833 54.0833 46.2856 54.0833 36.6667C54.0833 27.0477 46.2856 19.25 36.6667 19.25Z" fill="var(--fill-0, white)"/>
</svg>
