<svg width="44" height="44" viewBox="0 0 44 44" fill="none" xmlns="http://www.w3.org/2000/svg">
<g filter="url(#filter0_i_811_8743)">
<path d="M28.7355 13.4693C28.7355 16.9408 25.9213 19.755 22.4498 19.755C18.9783 19.755 16.1641 16.9408 16.1641 13.4693C16.1641 9.9978 18.9783 7.18359 22.4498 7.18359C25.9213 7.18359 28.7355 9.9978 28.7355 13.4693Z" fill="white"/>
<path d="M32.3264 29.6334C32.3264 33.1049 27.5021 35.9191 21.5509 35.9191C15.5998 35.9191 10.7754 33.1049 10.7754 29.6334C10.7754 26.1619 15.5998 23.3477 21.5509 23.3477C27.5021 23.3477 32.3264 26.1619 32.3264 29.6334Z" fill="white"/>
<path d="M13.3776 8.98047C13.7167 8.98047 14.0477 9.01177 14.3673 9.07137C13.5886 10.3727 13.1445 11.8749 13.1445 13.4748C13.1445 15.0356 13.5673 16.5036 14.311 17.7828C14.0089 17.8357 13.6968 17.8635 13.3776 17.8635C10.6754 17.8635 8.48472 15.8749 8.48472 13.422C8.48472 10.969 10.6754 8.98047 13.3776 8.98047Z" fill="white"/>
<path d="M10.178 34.1233C9.09303 32.9029 8.36813 31.4053 8.36813 29.6543C8.36813 27.9568 9.04937 26.4974 10.0795 25.2979C6.44059 25.5635 3.5918 27.4362 3.5918 29.7071C3.5918 31.9992 6.49065 33.8858 10.178 34.1233Z" fill="white"/>
<path d="M29.9572 13.4748C29.9572 15.0356 29.5344 16.5036 28.7907 17.7828C29.0928 17.8357 29.4049 17.8635 29.724 17.8635C32.4263 17.8635 34.617 15.8749 34.617 13.422C34.617 10.969 32.4263 8.98047 29.724 8.98047C29.385 8.98047 29.054 9.01177 28.7344 9.07137C29.513 10.3727 29.9572 11.8749 29.9572 13.4748Z" fill="white"/>
<path d="M32.9236 34.1233C36.611 33.8858 39.5099 31.9992 39.5099 29.7071C39.5099 27.4362 36.6611 25.5635 33.0221 25.2979C34.0523 26.4974 34.7336 27.9568 34.7336 29.6543C34.7336 31.4053 34.0087 32.9029 32.9236 34.1233Z" fill="white"/>
</g>
<defs>
<filter id="filter0_i_811_8743" x="0" y="-2.1551" width="43.1016" height="45.2567" filterUnits="userSpaceOnUse" color-interpolation-filters="sRGB">
<feFlood flood-opacity="0" result="BackgroundImageFix"/>
<feBlend mode="normal" in="SourceGraphic" in2="BackgroundImageFix" result="shape"/>
<feColorMatrix in="SourceAlpha" type="matrix" values="0 0 0 0 0 0 0 0 0 0 0 0 0 0 0 0 0 0 127 0" result="hardAlpha"/>
<feOffset dy="-2.1551"/>
<feGaussianBlur stdDeviation="2.87347"/>
<feComposite in2="hardAlpha" operator="arithmetic" k2="-1" k3="1"/>
<feColorMatrix type="matrix" values="0 0 0 0 0 0 0 0 0 0 0 0 0 0 0 0 0 0 0.5 0"/>
<feBlend mode="normal" in2="shape" result="effect1_innerShadow_811_8743"/>
</filter>
</defs>
</svg>
