<svg width="44" height="44" viewBox="0 0 44 44" fill="none" xmlns="http://www.w3.org/2000/svg">
<g filter="url(#filter0_i_811_8742)">
<path fill-rule="evenodd" clip-rule="evenodd" d="M3.5918 21.551C3.5918 11.6324 11.6324 3.5918 21.551 3.5918C31.4696 3.5918 39.5102 11.6324 39.5102 21.551C39.5102 31.4696 31.4696 39.5102 21.551 39.5102C11.6324 39.5102 3.5918 31.4696 3.5918 21.551ZM20.204 8.97955C20.204 8.23566 20.8071 7.63261 21.551 7.63261C29.2379 7.63261 35.4693 13.8641 35.4693 21.551C35.4693 29.2379 29.2379 35.4693 21.551 35.4693C13.8641 35.4693 7.63261 29.2379 7.63261 21.551C7.63261 20.8071 8.23566 20.204 8.97955 20.204C9.72345 20.204 10.3265 20.8071 10.3265 21.551C10.3265 27.7501 15.3519 32.7755 21.551 32.7755C27.7501 32.7755 32.7755 27.7501 32.7755 21.551C32.7755 15.3519 27.7501 10.3265 21.551 10.3265C20.8071 10.3265 20.204 9.72345 20.204 8.97955ZM21.551 13.0204C20.8071 13.0204 20.204 13.6234 20.204 14.3673C20.204 15.1112 20.8071 15.7142 21.551 15.7142C24.7745 15.7142 27.3877 18.3274 27.3877 21.551C27.3877 24.7745 24.7745 27.3877 21.551 27.3877C20.8071 27.3877 20.204 27.9908 20.204 28.7347C20.204 29.4785 20.8071 30.0816 21.551 30.0816C26.2623 30.0816 30.0816 26.2623 30.0816 21.551C30.0816 16.8397 26.2623 13.0204 21.551 13.0204Z" fill="white"/>
</g>
<defs>
<filter id="filter0_i_811_8742" x="0" y="-2.1551" width="43.1016" height="45.2567" filterUnits="userSpaceOnUse" color-interpolation-filters="sRGB">
<feFlood flood-opacity="0" result="BackgroundImageFix"/>
<feBlend mode="normal" in="SourceGraphic" in2="BackgroundImageFix" result="shape"/>
<feColorMatrix in="SourceAlpha" type="matrix" values="0 0 0 0 0 0 0 0 0 0 0 0 0 0 0 0 0 0 127 0" result="hardAlpha"/>
<feOffset dy="-2.1551"/>
<feGaussianBlur stdDeviation="2.87347"/>
<feComposite in2="hardAlpha" operator="arithmetic" k2="-1" k3="1"/>
<feColorMatrix type="matrix" values="0 0 0 0 0 0 0 0 0 0 0 0 0 0 0 0 0 0 0.5 0"/>
<feBlend mode="normal" in2="shape" result="effect1_innerShadow_811_8742"/>
</filter>
</defs>
</svg>
