<svg width="44" height="44" viewBox="0 0 44 44" fill="none" xmlns="http://www.w3.org/2000/svg">
<g filter="url(#filter0_i_811_8741)">
<path fill-rule="evenodd" clip-rule="evenodd" d="M21.6444 2.24414H21.4576C19.844 2.24409 18.4985 2.24405 17.4303 2.38766C16.3028 2.53925 15.2849 2.87269 14.4669 3.69068C13.6489 4.50867 13.3155 5.52659 13.1639 6.65406C13.0203 7.72223 13.0203 9.06776 13.0204 10.6813V10.8209C9.3905 10.9397 7.21078 11.3639 5.69585 12.8788C3.5918 14.9829 3.5918 18.3693 3.5918 25.1421C3.5918 31.9149 3.5918 35.3014 5.69585 37.4054C7.7999 39.5095 11.1863 39.5095 17.9591 39.5095H25.1428C31.9156 39.5095 35.3021 39.5095 37.4061 37.4054C39.5102 35.3014 39.5102 31.9149 39.5102 25.1421C39.5102 18.3693 39.5102 14.9829 37.4061 12.8788C35.8912 11.3639 33.7115 10.9397 30.0816 10.8209V10.6814C30.0816 9.06781 30.0817 7.72223 29.9381 6.65406C29.7865 5.52659 29.453 4.50867 28.6351 3.69068C27.8171 2.87269 26.7991 2.53925 25.6717 2.38766C24.6035 2.24405 23.2579 2.24409 21.6444 2.24414ZM27.3877 10.7781V10.7748C27.3877 9.04347 27.3849 7.88051 27.2682 7.01301C27.1568 6.18427 26.9642 5.82958 26.7302 5.59554C26.4962 5.3615 26.1415 5.16894 25.3127 5.05752C24.4452 4.94089 23.2823 4.93802 21.551 4.93802C19.8197 4.93802 18.6567 4.94089 17.7892 5.05752C16.9605 5.16894 16.6058 5.3615 16.3718 5.59554C16.1377 5.82958 15.9452 6.18427 15.8337 7.01301C15.7171 7.88051 15.7142 9.04347 15.7142 10.7748V10.7781C16.4183 10.7748 17.1655 10.7748 17.9591 10.7748H25.1428C25.9365 10.7748 26.6837 10.7748 27.3877 10.7781ZM30.5306 16.1625C30.5306 17.1544 29.7265 17.9584 28.7347 17.9584C27.7428 17.9584 26.9387 17.1544 26.9387 16.1625C26.9387 15.1707 27.7428 14.3666 28.7347 14.3666C29.7265 14.3666 30.5306 15.1707 30.5306 16.1625ZM14.3673 17.9584C15.3592 17.9584 16.1632 17.1544 16.1632 16.1625C16.1632 15.1707 15.3592 14.3666 14.3673 14.3666C13.3754 14.3666 12.5714 15.1707 12.5714 16.1625C12.5714 17.1544 13.3754 17.9584 14.3673 17.9584Z" fill="white"/>
</g>
<defs>
<filter id="filter0_i_811_8741" x="0" y="-2.1551" width="43.1016" height="45.2567" filterUnits="userSpaceOnUse" color-interpolation-filters="sRGB">
<feFlood flood-opacity="0" result="BackgroundImageFix"/>
<feBlend mode="normal" in="SourceGraphic" in2="BackgroundImageFix" result="shape"/>
<feColorMatrix in="SourceAlpha" type="matrix" values="0 0 0 0 0 0 0 0 0 0 0 0 0 0 0 0 0 0 127 0" result="hardAlpha"/>
<feOffset dy="-2.1551"/>
<feGaussianBlur stdDeviation="2.87347"/>
<feComposite in2="hardAlpha" operator="arithmetic" k2="-1" k3="1"/>
<feColorMatrix type="matrix" values="0 0 0 0 0 0 0 0 0 0 0 0 0 0 0 0 0 0 0.5 0"/>
<feBlend mode="normal" in2="shape" result="effect1_innerShadow_811_8741"/>
</filter>
</defs>
</svg>
