<svg width="120" height="120" viewBox="0 0 120 120" fill="none" xmlns="http://www.w3.org/2000/svg">
<g filter="url(#filter0_i_451_3717)">
<path d="M80 37.5C80 47.165 72.165 55 62.5 55C52.835 55 45 47.165 45 37.5C45 27.835 52.835 20 62.5 20C72.165 20 80 27.835 80 37.5Z" fill="white"/>
<path d="M90 82.5C90 92.165 76.5685 100 60 100C43.4315 100 30 92.165 30 82.5C30 72.835 43.4315 65 60 65C76.5685 65 90 72.835 90 82.5Z" fill="white"/>
<path d="M37.2447 25C38.1886 25 39.1101 25.0871 40 25.2531C37.8321 28.8762 36.5955 33.0585 36.5955 37.5125C36.5955 41.8582 37.7727 45.9451 39.8433 49.5064C39.0021 49.6539 38.1333 49.7311 37.2447 49.7311C29.7213 49.7311 23.6223 44.1949 23.6223 37.3656C23.6223 30.5362 29.7213 25 37.2447 25Z" fill="white"/>
<path d="M28.3367 95C25.3159 91.6022 23.2977 87.4327 23.2977 82.5577C23.2977 77.8318 25.1944 73.7688 28.0625 70.4292C17.9313 71.1686 10 76.3825 10 82.7048C10 89.0863 18.0707 94.3387 28.3367 95Z" fill="white"/>
<path d="M83.4045 37.5125C83.4045 41.8582 82.2273 45.9451 80.1567 49.5064C80.9979 49.6539 81.8667 49.7311 82.7553 49.7311C90.2787 49.7311 96.3777 44.1949 96.3777 37.3656C96.3777 30.5362 90.2787 25 82.7553 25C81.8114 25 80.8899 25.0871 80 25.2531C82.1678 28.8762 83.4045 33.0585 83.4045 37.5125Z" fill="white"/>
<path d="M91.6633 95C101.929 94.3387 110 89.0863 110 82.7048C110 76.3825 102.069 71.1686 91.9375 70.4292C94.8056 73.7688 96.7023 77.8318 96.7023 82.5577C96.7023 87.4327 94.6841 91.6022 91.6633 95Z" fill="white"/>
</g>
<defs>
<filter id="filter0_i_451_3717" x="0" y="-6" width="120" height="126" filterUnits="userSpaceOnUse" color-interpolation-filters="sRGB">
<feFlood flood-opacity="0" result="BackgroundImageFix"/>
<feBlend mode="normal" in="SourceGraphic" in2="BackgroundImageFix" result="shape"/>
<feColorMatrix in="SourceAlpha" type="matrix" values="0 0 0 0 0 0 0 0 0 0 0 0 0 0 0 0 0 0 127 0" result="hardAlpha"/>
<feOffset dy="-6"/>
<feGaussianBlur stdDeviation="8"/>
<feComposite in2="hardAlpha" operator="arithmetic" k2="-1" k3="1"/>
<feColorMatrix type="matrix" values="0 0 0 0 0 0 0 0 0 0 0 0 0 0 0 0 0 0 0.5 0"/>
<feBlend mode="normal" in2="shape" result="effect1_innerShadow_451_3717"/>
</filter>
</defs>
</svg>
