<svg width="28" height="28" viewBox="0 0 28 28" fill="none" xmlns="http://www.w3.org/2000/svg">
<path d="M3.42871 15.7937L13.7144 21.7166L22.9474 16.4309V18.5356L13.7144 23.868L3.95556 18.1918L3.42964 18.4852V19.2185L13.7144 25.1423L24.0001 19.2204V15.109L23.5208 14.8147L13.7144 20.4928L4.52989 15.109V13.0042L13.7144 18.2899L24.0001 12.368V8.3042L23.5208 8.01087L13.7144 13.689L5.00834 8.64801L13.7144 3.60706L20.9377 7.76706L21.5595 7.37563V6.83658L13.7144 2.28516L3.42871 8.25658V8.9423L13.7144 14.8633L22.9474 9.57754V11.7299L13.7144 17.0661L3.95556 11.3899L3.42964 11.6833L3.42871 15.7937Z" fill="white"/>
</svg>
