<svg width="28" height="28" viewBox="0 0 28 28" fill="none" xmlns="http://www.w3.org/2000/svg">
<path d="M22.2253 8.91049C22.2253 5.25735 19.243 2.28516 15.5772 2.28516H4.57227V5.96182H15.0539C16.7129 5.96182 18.0872 7.26192 18.1175 8.85992C18.1327 9.65992 17.8316 10.4152 17.2698 10.986C16.7078 11.5573 15.957 11.872 15.1556 11.872H11.0725C11.0028 11.872 10.936 11.8997 10.8866 11.9488C10.8373 11.9979 10.8096 12.0646 10.8095 12.1341V15.4017C10.8095 15.4574 10.8267 15.5105 10.8591 15.5553L17.7868 25.1423H22.858L15.9142 15.529C19.4111 15.3539 22.2253 12.4231 22.2253 8.91049ZM8.84036 7.92601H4.57227V25.1423H8.84046L8.84036 7.92601Z" fill="white"/>
</svg>
