<svg preserveAspectRatio="none" width="100%" height="100%" overflow="visible" style="display: block;" viewBox="0 0 121.016 28" fill="none" xmlns="http://www.w3.org/2000/svg">
<path id="Vector" d="M78.5308 10.1961C76.4905 8.35242 74.027 7.45119 71.1792 7.45119C68.3702 7.45119 65.9067 8.35357 63.8652 10.1961C61.8249 11.9997 60.7875 14.5101 60.7875 17.7262C60.7875 20.9422 61.8249 23.4504 63.8652 25.294C65.9056 27.0976 68.3702 28 71.1792 28C74.027 28 76.4905 27.0976 78.5308 25.294C80.6101 23.4504 81.6474 20.9411 81.6474 17.7262C81.6474 14.5112 80.6089 11.9997 78.5308 10.1961ZM67.3318 21.8423C66.2555 20.7844 65.7134 19.4108 65.7134 17.725C65.7134 16.0392 66.251 14.6668 67.3318 13.6466C67.8329 13.1379 68.4323 12.7365 69.0936 12.4669C69.7548 12.1974 70.4641 12.0652 71.178 12.0786C71.898 12.0651 72.6132 12.197 73.281 12.4664C73.9488 12.7359 74.5553 13.1373 75.0643 13.6466C76.1783 14.6668 76.7204 16.0381 76.7204 17.725C76.7204 19.412 76.1828 20.7833 75.0643 21.8423C73.9881 22.8614 72.6785 23.3715 71.178 23.3715C70.4677 23.3828 69.7623 23.2535 69.1022 22.9911C68.4421 22.7286 67.8404 22.3382 67.3318 21.8423V21.8423ZM88.9259 27.4499V0.540969H84.0766V27.4499H88.9259ZM104.577 8.00016V18.7372C104.577 21.3242 103.205 23.0398 100.593 23.0398C97.936 23.0398 96.6001 21.3265 96.6001 18.7372V8.00016H91.7417V19.5607C91.7417 24.0394 94.5129 27.9989 100.593 27.9989H100.631C106.673 27.9989 109.439 23.9513 109.439 19.5607V8.00016H104.577ZM55.6272 8.00016L50.7779 21.1756L45.9286 8.00016H40.7717L48.5099 27.451H53.0527L60.7898 8.00016H55.6272ZM40.7945 17.176C40.7945 14.3534 39.9105 12.0397 38.1778 10.1961C36.4451 8.35242 34.216 7.45119 31.4826 7.45119C28.6736 7.45119 26.2856 8.43248 24.323 10.3527C22.397 12.2753 21.4375 14.7057 21.4375 17.725C21.4375 20.7444 22.3993 23.2159 24.2853 25.1362C26.2113 27.0587 28.5204 27.9989 31.2527 27.9989C35.45 27.9989 38.4122 26.1163 40.2181 22.3124L36.6017 20.1943C35.4112 22.5857 33.6762 23.7626 31.3293 23.7626C28.4438 23.7626 26.4034 21.8801 26.0946 18.9007H40.7934V17.1749L40.7945 17.176ZM31.3259 11.2151C34.0582 11.2151 35.8686 12.7831 36.3296 15.2935H26.0923C26.8254 12.9798 28.8246 11.2151 31.327 11.2151H31.3259ZM21.4363 27.4499L14.9298 15.8436C19.046 14.3145 21.0864 11.6486 21.0864 7.76571C21.0909 3.0205 17.3934 0 11.5056 0H0V27.4499H5.0803V16.3137H9.39204L15.6252 27.451L21.4363 27.4499ZM11.5056 4.54848C14.5078 4.54848 16.0095 5.76423 16.0095 8.15571C16.0095 10.5472 14.5067 11.7629 11.5056 11.7629H5.0803V4.54848H11.5056ZM117.66 27.9989C114.539 27.9989 112.008 25.4187 112.008 22.2346V2.74487H116.857V8.00703H121.016V12.0065H116.857V21.9167C116.857 22.8499 117.6 23.6059 118.517 23.6059H121.016V27.9989H117.66Z" fill="var(--fill-0, white)"/>
</svg>
