<svg width="24" height="24" viewBox="0 0 24 24" fill="none" xmlns="http://www.w3.org/2000/svg">
<path d="M3 16.0875V5.82431C3 4.8131 3.79767 3.99164 4.78416 4.05367C5.6629 4.10893 6.70214 4.21815 7.5 4.43356C8.44429 4.6885 9.5665 5.2315 10.454 5.71166C10.7304 5.86116 11.0242 5.96487 11.325 6.02333L11.325 20C11.0524 19.9385 10.7864 19.8393 10.5352 19.7023C9.63564 19.2117 8.47331 18.6429 7.5 18.3801C6.71096 18.1671 5.68585 18.0579 4.81337 18.0021C3.81544 17.9382 3 17.1105 3 16.0875Z" fill="white"/>
<path d="M12.675 20C12.9476 19.9385 13.2136 19.8393 13.4648 19.7023C14.3644 19.2117 15.5267 18.6429 16.5 18.3801C17.289 18.1671 18.3141 18.0579 19.1866 18.0021C20.1846 17.9382 21 17.1105 21 16.0875V5.76482C21 4.7773 20.2384 3.96668 19.2738 4.00105C18.2581 4.03725 16.9922 4.14496 16.05 4.43356C15.2331 4.68376 14.2818 5.18562 13.5065 5.64471C13.2441 5.80005 12.9637 5.91414 12.675 5.98648V20Z" fill="white"/>
</svg>
