<svg width="46" height="46" viewBox="0 0 46 46" fill="none" xmlns="http://www.w3.org/2000/svg">
<rect width="45.9375" height="45.9375" rx="10.2083" fill="white" fill-opacity="0.08"/>
<rect x="0.510417" y="0.510417" width="44.9167" height="44.9167" rx="9.69792" stroke="white" stroke-opacity="0.1" stroke-width="1.02083"/>
<path d="M24.2349 21.2386V16.3781C25.2044 16.5537 26.1194 16.9802 26.9004 17.6208C27.056 17.7353 27.2397 17.7978 27.4284 17.8003C28.0349 17.8003 28.5294 17.277 28.5358 16.6266C28.5371 16.3477 28.4352 16.0796 28.2525 15.881C27.1228 14.8437 25.7069 14.2325 24.222 14.1412V12.5118C24.222 12.0464 23.8704 11.6694 23.4365 11.6694C23.4275 11.6681 23.4184 11.6681 23.4094 11.6681C22.969 11.6611 22.6059 12.0381 22.5994 12.5118V14.0859C19.7021 14.3068 17.7319 16.2262 17.7319 18.7807C17.7319 21.9152 20.2172 22.7852 22.5994 23.4756V28.9989C21.3426 28.818 20.158 28.2588 19.187 27.3834C19.0042 27.2273 18.7775 27.1403 18.5432 27.1348C17.9495 27.179 17.4924 27.712 17.5001 28.35C17.4988 28.6289 17.6007 28.897 17.7834 29.0956C19.1132 30.3798 20.8236 31.1183 22.6123 31.1807V32.6996C22.6123 32.7092 22.6136 32.7189 22.6136 32.7286C22.6341 33.2008 23.0089 33.5654 23.4493 33.5419C23.8832 33.5419 24.2348 33.1649 24.2348 32.6996V31.1531C27.7502 30.9045 29.1667 28.6123 29.1667 26.1821C29.1667 22.9233 26.6171 21.929 24.2349 21.2386ZM22.6124 20.7968C21.2088 20.3549 20.1142 19.8992 20.1142 18.615C20.1142 17.3309 21.1058 16.4057 22.6124 16.2815V20.7968ZM24.2349 29.0265V24.0003C25.69 24.4422 26.8231 25.0359 26.8103 26.4858C26.8103 27.5352 26.1406 28.778 24.2349 29.0265Z" fill="white"/>
</svg>
