<svg width="19" height="19" viewBox="0 0 19 19" fill="none" xmlns="http://www.w3.org/2000/svg">
<path d="M18.4492 8.24595C18.4486 8.24554 18.4482 8.24495 18.4477 8.24451L10.7135 0.511357C10.3838 0.181511 9.94548 0 9.47928 0C9.01305 0 8.57475 0.181511 8.24494 0.51132L0.514678 8.24058C0.512085 8.24317 0.509345 8.24591 0.506901 8.24854C-0.170113 8.92934 -0.168928 10.034 0.510234 10.7131C0.820486 11.0235 1.23013 11.2031 1.66833 11.222C1.68625 11.2238 1.70421 11.2246 1.72228 11.2246H2.03039V16.9157C2.03039 18.042 2.94692 18.9583 4.07335 18.9583H7.09925C7.40606 18.9583 7.65473 18.7095 7.65473 18.4029V13.941C7.65473 13.4271 8.07293 13.0091 8.58689 13.0091H10.3716C10.8856 13.0091 11.3037 13.4272 11.3037 13.941V18.4029C11.3037 18.7095 11.5523 18.9583 11.8591 18.9583H14.885C16.0116 18.9583 16.928 18.042 16.928 16.9157V11.2247H17.2138C17.6799 11.2247 18.1182 11.0431 18.4482 10.7132C19.1281 10.0331 19.1283 8.92645 18.4492 8.24591L18.4492 8.24595ZM17.6626 9.92784C17.6038 9.98696 17.5339 10.0338 17.4568 10.0658C17.3798 10.0977 17.2972 10.1141 17.2138 10.1139H16.3725C16.0657 10.1139 15.817 10.3625 15.817 10.6693V16.9157C15.817 17.4295 15.399 17.8475 14.885 17.8475H12.4146V13.941C12.4146 12.8147 11.4982 11.8983 10.3716 11.8983H8.58693C7.46035 11.8983 6.54381 12.8147 6.54381 13.941V17.8475H4.07343C3.55958 17.8475 3.14138 17.4294 3.14138 16.9157V10.6692C3.14138 10.3624 2.89271 10.1138 2.5859 10.1138H1.75902C1.75035 10.1132 1.74167 10.1128 1.73298 10.1126C1.56749 10.1098 1.41229 10.0441 1.29601 9.92765C1.04864 9.6803 1.04864 9.27781 1.29601 9.03031C1.29612 9.03031 1.29612 9.03017 1.29627 9.03002L1.29671 9.02957L9.03068 1.29672C9.08943 1.23759 9.15933 1.19071 9.23634 1.1588C9.31335 1.12689 9.39593 1.11059 9.47928 1.11084C9.64867 1.11084 9.80794 1.17679 9.92785 1.29672L17.6601 9.02802L17.6637 9.0315C17.9098 9.27929 17.9093 9.68097 17.6626 9.92784Z" fill="#7D7D7D"/>
</svg>
