<svg width="146" height="43" viewBox="0 0 146 43" fill="none" xmlns="http://www.w3.org/2000/svg">
<path d="M51.163 0.0351562H46.0327L40.6193 7.49002L35.197 0.0351562H30.0313L38.0541 11.0143L29.7129 22.4439H34.8786L40.6193 14.5386L46.36 22.4439H51.4903L43.1845 11.0143" fill="white"/>
<path d="M64.3555 13.0891H74.8462V9.12315H64.3555V4.00014H76.6064V0.0253906H60.0566V22.443H76.7656V18.4771H64.3555" fill="white"/>
<path d="M119.818 0.0351562H115.52V22.4527H119.818V0.0351562Z" fill="white"/>
<path d="M134.248 0.0351562H129.949V22.4439H145.57V18.478H134.248" fill="white"/>
<path d="M0 22.4441H4.51116L7.94317 15.5457L11.3752 8.66495L16.4436 18.8845L18.2127 22.4176H22.7415L11.3752 0L0 22.4441Z" fill="white"/>
<path d="M99.1733 6.93329L95.7147 13.814L90.6728 3.621L88.9037 0.0878906H84.3926L95.7589 22.4966L107.125 0.0878906H102.605L99.1733 6.93329Z" fill="white"/>
<path d="M60.6925 33.3281H56.6621V42.3576H58.3828V39.1863H60.6925C61.5132 39.2047 62.3086 38.9027 62.9098 38.3445C63.2029 38.083 63.4354 37.7607 63.591 37.4002C63.7466 37.0397 63.8215 36.6496 63.8106 36.2572C63.8188 35.8703 63.7424 35.4862 63.5869 35.1317C63.4313 34.7772 63.2003 34.4608 62.9098 34.2045C62.3113 33.6421 61.514 33.3394 60.6925 33.3627V33.3281ZM61.6395 37.2144C61.514 37.3355 61.3657 37.4305 61.2031 37.4938C61.0405 37.5572 60.867 37.5876 60.6925 37.5834H58.3828V34.9541H60.6925C60.868 34.9494 61.0427 34.9807 61.2056 35.0462C61.3685 35.1117 61.5161 35.2099 61.6395 35.3347C61.7606 35.4553 61.8559 35.5993 61.9194 35.7579C61.983 35.9166 62.0134 36.0865 62.009 36.2572C62.0135 36.4332 61.9832 36.6083 61.9198 36.7726C61.8564 36.9368 61.7611 37.087 61.6395 37.2144Z" fill="white"/>
<path d="M71.9385 37.7354L75.2725 42.3232H73.2129L70.9092 39.1494L70.8809 39.1875V39.0742L71.9551 37.668L71.9385 37.7354Z" fill="white"/>
<path d="M68.4706 34.3756H68.6314V33.5274H68.9844V33.3809H68.1211V33.5274H68.4706" fill="white"/>
<path d="M70.0368 33.3809L69.6594 34.044L69.2784 33.3809H69.1211V34.3756H69.2784V33.6845L69.6069 34.2569H69.7118L70.0368 33.6845V34.3756H70.1976V33.3809" fill="white"/>
<path d="M71.8507 33.3281H67.8203V42.3576H69.541V39.1863H71.8507C72.6714 39.2047 73.4668 38.9027 74.068 38.3445C74.3612 38.083 74.5936 37.7607 74.7492 37.4002C74.9048 37.0397 74.9797 36.6496 74.9688 36.2572C74.977 35.8703 74.9006 35.4862 74.7451 35.1317C74.5895 34.7772 74.3585 34.4608 74.068 34.2045C73.4695 33.6421 72.6722 33.3394 71.8507 33.3627V33.3281ZM72.7977 37.2144C72.6722 37.3355 72.5239 37.4305 72.3613 37.4938C72.1987 37.5572 72.0252 37.5876 71.8507 37.5834H69.541V34.9541H71.8507C72.0262 34.9494 72.2009 34.9807 72.3638 35.0462C72.5267 35.1117 72.6743 35.2099 72.7977 35.3347C72.9188 35.4553 73.0141 35.5993 73.0776 35.7579C73.1412 35.9166 73.1716 36.0865 73.1672 36.2572C73.1717 36.4332 73.1414 36.6083 73.078 36.7726C73.0146 36.9368 72.9193 37.087 72.7977 37.2144Z" fill="white"/>
<path d="M83.7924 42.3582C81.2194 42.3582 79.2773 40.4161 79.2773 37.8431C79.2773 35.2702 81.2194 33.3281 83.7924 33.3281C86.3777 33.3281 88.3198 35.2702 88.3198 37.8431C88.3198 40.4161 86.3777 42.3582 83.7924 42.3582ZM81.0091 37.8431C81.0091 39.5007 82.209 40.7501 83.7924 40.7501C85.3881 40.7501 86.588 39.5007 86.588 37.8431C86.588 36.1856 85.3881 34.9238 83.7924 34.9238C82.209 34.9238 81.0091 36.1856 81.0091 37.8431Z" fill="white"/>
</svg>
