<svg width="21" height="18" viewBox="0 0 21 18" fill="none" xmlns="http://www.w3.org/2000/svg">
<path d="M18.3842 3.25439H13.9849V1.508C13.9849 0.676464 13.2982 0 12.4541 0H7.96251C7.11844 0 6.43173 0.676464 6.43173 1.508V3.25439H2.03247C0.91174 3.25439 0 4.15263 0 5.25667V15.4978C0 16.6018 0.91174 17.5 2.03247 17.5H18.3842C19.5049 17.5 20.4167 16.6018 20.4167 15.4978V5.25667C20.4167 4.15263 19.5049 3.25439 18.3842 3.25439ZM7.72832 1.508C7.72839 1.44684 7.75309 1.3882 7.797 1.34496C7.8409 1.30171 7.90043 1.27739 7.96251 1.27733H12.4541C12.5162 1.27739 12.5757 1.30171 12.6196 1.34496C12.6635 1.3882 12.6882 1.44684 12.6883 1.508V3.25439H7.72832V1.508ZM1.29658 5.25667C1.29658 4.85691 1.62668 4.53171 2.03247 4.53171H18.3842C18.7899 4.53171 19.1201 4.85691 19.1201 5.25667V6.20193C19.1201 7.08856 18.5166 7.88086 17.6525 8.1287L10.872 10.0735C10.4386 10.1981 9.97805 10.1981 9.54462 10.0735L2.76415 8.12866C1.90006 7.88082 1.29658 7.08856 1.29658 6.20193V5.25667ZM18.3842 16.2227H2.03247C1.62672 16.2227 1.29658 15.8975 1.29658 15.4978V8.80245C1.62328 9.05121 1.99568 9.23862 2.40167 9.35509C9.89182 11.5035 9.50686 11.4444 10.2083 11.4444C10.919 11.4444 10.516 11.506 18.0149 9.35509C18.421 9.23862 18.7934 9.05121 19.12 8.80245V15.4978C19.1201 15.8975 18.7899 16.2227 18.3842 16.2227Z" fill="white"/>
</svg>
