<svg width="46" height="46" viewBox="0 0 46 46" fill="none" xmlns="http://www.w3.org/2000/svg">
<rect x="0.510417" y="0.510417" width="44.9167" height="44.9167" rx="9.69792" fill="#262D43" stroke="#434883" stroke-width="1.02083"/>
<mask id="path-2-outside-1_503_4295" maskUnits="userSpaceOnUse" x="11.3965" y="12.8535" width="24" height="19" fill="black">
<rect fill="white" x="11.3965" y="12.8535" width="24" height="19"/>
<path d="M19.3086 13.8535C21.6025 13.8537 23.4678 15.7193 23.4678 18.0176C23.4708 19.6999 22.4676 21.1502 21.0264 21.8047C22.1951 22.1047 23.2709 22.7117 24.1592 23.5859C24.885 22.4643 25.9909 21.6425 27.249 21.2656C26.1748 20.7005 25.4405 19.5742 25.4404 18.2783C25.4404 16.4174 26.9536 14.9034 28.8145 14.9033C30.6754 14.9033 32.1895 16.4174 32.1895 18.2783C32.1893 19.5709 31.4584 20.6952 30.3887 21.2617C31.2659 21.5191 32.0685 21.9914 32.7295 22.6523C33.7714 23.6942 34.3466 25.0878 34.3467 26.5713V28.0127C34.3507 28.2826 34.1317 28.501 33.8574 28.501H26.248C26.2483 28.5123 26.25 28.524 26.25 28.5352V30.3701C26.2542 30.6402 26.0357 30.8633 25.7656 30.8633H12.8896C12.6196 30.8633 12.3966 30.6445 12.3965 30.3701V28.5352C12.3965 25.2958 14.615 22.5658 17.6064 21.8018C16.1815 21.146 15.1728 19.6982 15.1445 18.0215C15.1446 15.719 17.0103 13.8535 19.3086 13.8535ZM19.3125 22.5703C16.0409 22.5703 13.3779 25.2463 13.3779 28.5352V29.877H25.2725V28.5352C25.2725 28.4667 25.2641 28.3934 25.2598 28.3164C25.252 28.2275 25.2456 28.1383 25.2441 28.0557C25.2439 28.0527 25.2434 28.0498 25.2432 28.0469C25.1574 26.8378 24.6859 25.6884 23.8799 24.7236C23.8707 24.7128 23.8626 24.7009 23.8545 24.6895C23.7372 24.549 23.6247 24.4343 23.5186 24.3281C22.3866 23.1963 20.8903 22.5703 19.3125 22.5703ZM28.8105 22.0137C27.1736 22.0138 25.6472 22.9212 24.8408 24.3477C25.451 25.1264 25.8721 26.0364 26.083 27.0215C26.0919 27.0625 26.1012 27.1034 26.1094 27.1445C26.1275 27.2373 26.1429 27.3308 26.1572 27.4248C26.1621 27.4564 26.1694 27.4879 26.1738 27.5195H33.3643V26.5674C33.3643 25.3453 32.8927 24.2004 32.0352 23.3428C31.1776 22.4852 30.0326 22.0137 28.8105 22.0137ZM19.3086 14.8398C17.5548 14.8398 16.1309 16.2681 16.1309 18.0176C16.161 19.767 17.5849 21.1943 19.3086 21.1943C21.0622 21.1942 22.4853 19.7712 22.4854 18.0176C22.4854 16.2639 21.0622 14.84 19.3086 14.8398ZM28.8145 15.8857C27.4938 15.8858 26.4219 16.9577 26.4219 18.2783C26.422 19.5988 27.4939 20.6708 28.8145 20.6709C30.135 20.6709 31.2069 19.5989 31.207 18.2783C31.207 16.9576 30.1308 15.8857 28.8145 15.8857Z"/>
</mask>
<path d="M19.3086 13.8535C21.6025 13.8537 23.4678 15.7193 23.4678 18.0176C23.4708 19.6999 22.4676 21.1502 21.0264 21.8047C22.1951 22.1047 23.2709 22.7117 24.1592 23.5859C24.885 22.4643 25.9909 21.6425 27.249 21.2656C26.1748 20.7005 25.4405 19.5742 25.4404 18.2783C25.4404 16.4174 26.9536 14.9034 28.8145 14.9033C30.6754 14.9033 32.1895 16.4174 32.1895 18.2783C32.1893 19.5709 31.4584 20.6952 30.3887 21.2617C31.2659 21.5191 32.0685 21.9914 32.7295 22.6523C33.7714 23.6942 34.3466 25.0878 34.3467 26.5713V28.0127C34.3507 28.2826 34.1317 28.501 33.8574 28.501H26.248C26.2483 28.5123 26.25 28.524 26.25 28.5352V30.3701C26.2542 30.6402 26.0357 30.8633 25.7656 30.8633H12.8896C12.6196 30.8633 12.3966 30.6445 12.3965 30.3701V28.5352C12.3965 25.2958 14.615 22.5658 17.6064 21.8018C16.1815 21.146 15.1728 19.6982 15.1445 18.0215C15.1446 15.719 17.0103 13.8535 19.3086 13.8535ZM19.3125 22.5703C16.0409 22.5703 13.3779 25.2463 13.3779 28.5352V29.877H25.2725V28.5352C25.2725 28.4667 25.2641 28.3934 25.2598 28.3164C25.252 28.2275 25.2456 28.1383 25.2441 28.0557C25.2439 28.0527 25.2434 28.0498 25.2432 28.0469C25.1574 26.8378 24.6859 25.6884 23.8799 24.7236C23.8707 24.7128 23.8626 24.7009 23.8545 24.6895C23.7372 24.549 23.6247 24.4343 23.5186 24.3281C22.3866 23.1963 20.8903 22.5703 19.3125 22.5703ZM28.8105 22.0137C27.1736 22.0138 25.6472 22.9212 24.8408 24.3477C25.451 25.1264 25.8721 26.0364 26.083 27.0215C26.0919 27.0625 26.1012 27.1034 26.1094 27.1445C26.1275 27.2373 26.1429 27.3308 26.1572 27.4248C26.1621 27.4564 26.1694 27.4879 26.1738 27.5195H33.3643V26.5674C33.3643 25.3453 32.8927 24.2004 32.0352 23.3428C31.1776 22.4852 30.0326 22.0137 28.8105 22.0137ZM19.3086 14.8398C17.5548 14.8398 16.1309 16.2681 16.1309 18.0176C16.161 19.767 17.5849 21.1943 19.3086 21.1943C21.0622 21.1942 22.4853 19.7712 22.4854 18.0176C22.4854 16.2639 21.0622 14.84 19.3086 14.8398ZM28.8145 15.8857C27.4938 15.8858 26.4219 16.9577 26.4219 18.2783C26.422 19.5988 27.4939 20.6708 28.8145 20.6709C30.135 20.6709 31.2069 19.5989 31.207 18.2783C31.207 16.9576 30.1308 15.8857 28.8145 15.8857Z" fill="#6A7FE3"/>
<path d="M19.3086 13.8535L19.3086 13.416H19.3086V13.8535ZM23.4678 18.0176H23.0303L23.0303 18.0184L23.4678 18.0176ZM21.0264 21.8047L20.8455 21.4063L19.7149 21.9198L20.9176 22.2285L21.0264 21.8047ZM24.1592 23.5859L23.8523 23.8977L24.2349 24.2743L24.5265 23.8236L24.1592 23.5859ZM27.249 21.2656L27.3746 21.6847L28.401 21.3773L27.4527 20.8784L27.249 21.2656ZM25.4404 18.2783H25.0029V18.2784L25.4404 18.2783ZM28.8145 14.9033V14.4658L28.8144 14.4658L28.8145 14.9033ZM32.1895 18.2783L32.627 18.2784V18.2783H32.1895ZM30.3887 21.2617L30.1839 20.8751L29.2332 21.3786L30.2655 21.6815L30.3887 21.2617ZM32.7295 22.6523L33.0389 22.343L33.0388 22.343L32.7295 22.6523ZM34.3467 26.5713H34.7842V26.5713L34.3467 26.5713ZM34.3467 28.0127H33.9091L33.9092 28.0193L34.3467 28.0127ZM26.248 28.501V28.0635H25.8018L25.8106 28.5096L26.248 28.501ZM26.25 30.3701H25.8124L25.8126 30.3769L26.25 30.3701ZM12.3965 30.3701H11.959L11.959 30.3703L12.3965 30.3701ZM17.6064 21.8018L17.7147 22.2256L18.9105 21.9202L17.7893 21.4043L17.6064 21.8018ZM15.1445 18.0215L14.707 18.0215L14.7071 18.0289L15.1445 18.0215ZM19.3125 22.5703V22.1328H19.3125L19.3125 22.5703ZM13.3779 29.877H12.9404V30.3145H13.3779V29.877ZM25.2725 29.877V30.3145H25.71V29.877H25.2725ZM25.2598 28.3164L25.6968 28.292L25.6956 28.2785L25.2598 28.3164ZM25.2441 28.0557L25.6816 28.048L25.6813 28.0332L25.6801 28.0185L25.2441 28.0557ZM25.2432 28.0469L25.6797 28.0175L25.6796 28.0159L25.2432 28.0469ZM23.8799 24.7236L24.2156 24.4431L24.2127 24.4397L23.8799 24.7236ZM23.8545 24.6895L24.2115 24.4365L24.2014 24.4223L24.1903 24.409L23.8545 24.6895ZM23.5186 24.3281L23.8279 24.0188L23.8279 24.0187L23.5186 24.3281ZM28.8105 22.0137V21.5762H28.8105L28.8105 22.0137ZM24.8408 24.3477L24.46 24.1323L24.3159 24.3871L24.4965 24.6175L24.8408 24.3477ZM26.083 27.0215L25.6552 27.1131L25.6556 27.1147L26.083 27.0215ZM26.1094 27.1445L26.5388 27.0608L26.5385 27.0595L26.1094 27.1445ZM26.1572 27.4248L25.7248 27.4909L25.7248 27.4913L26.1572 27.4248ZM26.1738 27.5195L25.7405 27.5798L25.793 27.957H26.1738V27.5195ZM33.3643 27.5195V27.957H33.8018V27.5195H33.3643ZM32.0352 23.3428L32.3445 23.0334L32.3445 23.0334L32.0352 23.3428ZM19.3086 14.8398L19.3086 14.4023H19.3086V14.8398ZM16.1309 18.0176H15.6933L15.6934 18.0251L16.1309 18.0176ZM19.3086 21.1943V21.6318H19.3086L19.3086 21.1943ZM22.4854 18.0176L22.9229 18.0176V18.0176H22.4854ZM28.8145 15.8857V15.4482H28.8144L28.8145 15.8857ZM26.4219 18.2783H25.9844V18.2784L26.4219 18.2783ZM28.8145 20.6709L28.8144 21.1084H28.8145V20.6709ZM31.207 18.2783L31.6445 18.2784V18.2783H31.207ZM19.3086 13.8535L19.3086 14.291C21.3605 14.2911 23.0303 15.9606 23.0303 18.0176H23.4678H23.9053C23.9053 15.4781 21.8445 13.4162 19.3086 13.416L19.3086 13.8535ZM23.4678 18.0176L23.0303 18.0184C23.033 19.5216 22.1369 20.8199 20.8455 21.4063L21.0264 21.8047L21.2073 22.203C22.7984 21.4805 23.9087 19.8782 23.9053 18.0168L23.4678 18.0176ZM21.0264 21.8047L20.9176 22.2285C22.0105 22.509 23.0182 23.0769 23.8523 23.8977L24.1592 23.5859L24.4661 23.2741C23.5236 22.3465 22.3797 21.7004 21.1351 21.3809L21.0264 21.8047ZM24.1592 23.5859L24.5265 23.8236C25.1955 22.7898 26.2155 22.0319 27.3746 21.6847L27.249 21.2656L27.1235 20.8465C25.7664 21.253 24.5745 22.1388 23.7919 23.3483L24.1592 23.5859ZM27.249 21.2656L27.4527 20.8784C26.516 20.3856 25.878 19.4047 25.8779 18.2783L25.4404 18.2783L25.0029 18.2784C25.0031 19.7437 25.8336 21.0154 27.0453 21.6528L27.249 21.2656ZM25.4404 18.2783H25.8779C25.8779 16.6589 27.1953 15.3409 28.8145 15.3408L28.8145 14.9033L28.8144 14.4658C26.7118 14.4659 25.0029 16.1759 25.0029 18.2783H25.4404ZM28.8145 14.9033V15.3408C30.4338 15.3408 31.752 16.659 31.752 18.2783H32.1895H32.627C32.627 16.1757 30.917 14.4658 28.8145 14.4658V14.9033ZM32.1895 18.2783L31.752 18.2783C31.7519 19.4018 31.1168 20.381 30.1839 20.8751L30.3887 21.2617L30.5934 21.6483C31.8 21.0093 32.6268 19.74 32.627 18.2784L32.1895 18.2783ZM30.3887 21.2617L30.2655 21.6815C31.0726 21.9183 31.8111 22.3528 32.4202 22.9617L32.7295 22.6523L33.0388 22.343C32.3258 21.63 31.4592 21.1199 30.5118 20.8419L30.3887 21.2617ZM32.7295 22.6523L32.4201 22.9617C33.3794 23.921 33.9091 25.203 33.9092 26.5713L34.3467 26.5713L34.7842 26.5713C34.7841 24.9726 34.1634 23.4675 33.0389 22.343L32.7295 22.6523ZM34.3467 26.5713H33.9092V28.0127H34.3467H34.7842V26.5713H34.3467ZM34.3467 28.0127L33.9092 28.0193C33.9094 28.031 33.9055 28.0403 33.8974 28.0483C33.8892 28.0566 33.8762 28.0635 33.8574 28.0635V28.501V28.9385C34.3686 28.9385 34.792 28.5274 34.7841 28.0061L34.3467 28.0127ZM33.8574 28.501V28.0635H26.248V28.501V28.9385H33.8574V28.501ZM26.248 28.501L25.8106 28.5096C25.8109 28.5218 25.8115 28.5321 25.8119 28.539C25.8124 28.5454 25.8129 28.5518 25.813 28.5532C25.8132 28.5559 25.8131 28.5546 25.813 28.5522C25.8128 28.5495 25.8125 28.5434 25.8125 28.5352H26.25H26.6875C26.6875 28.5213 26.687 28.5096 26.6865 28.5012C26.686 28.4932 26.6854 28.4861 26.6852 28.4831C26.6849 28.4788 26.6849 28.4794 26.685 28.4801C26.685 28.4813 26.6853 28.4858 26.6855 28.4923L26.248 28.501ZM26.25 28.5352H25.8125V30.3701H26.25H26.6875V28.5352H26.25ZM26.25 30.3701L25.8126 30.3769C25.813 30.4041 25.79 30.4258 25.7656 30.4258V30.8633V31.3008C26.2814 31.3008 26.6954 30.8762 26.6874 30.3633L26.25 30.3701ZM25.7656 30.8633V30.4258H12.8896V30.8633V31.3008H25.7656V30.8633ZM12.8896 30.8633V30.4258C12.8589 30.4258 12.834 30.4005 12.834 30.37L12.3965 30.3701L11.959 30.3703C11.9592 30.8884 12.3803 31.3008 12.8896 31.3008V30.8633ZM12.3965 30.3701H12.834V28.5352H12.3965H11.959V30.3701H12.3965ZM12.3965 28.5352H12.834C12.834 25.4995 14.9133 22.9412 17.7147 22.2256L17.6064 21.8018L17.4982 21.3779C14.3167 22.1905 11.959 25.0921 11.959 28.5352H12.3965ZM17.6064 21.8018L17.7893 21.4043C16.5122 20.8166 15.6073 19.5173 15.582 18.0141L15.1445 18.0215L14.7071 18.0289C14.7383 19.8791 15.8508 21.4755 17.4236 22.1992L17.6064 21.8018ZM15.1445 18.0215L15.582 18.0215C15.5821 15.9603 17.2522 14.291 19.3086 14.291V13.8535V13.416C16.7685 13.416 14.7072 15.4776 14.707 18.0215L15.1445 18.0215ZM19.3125 22.5703L19.3125 22.1328C15.7972 22.1328 12.9404 25.0068 12.9404 28.5352H13.3779H13.8154C13.8154 25.4859 16.2845 23.0078 19.3125 23.0078L19.3125 22.5703ZM13.3779 28.5352H12.9404V29.877H13.3779H13.8154V28.5352H13.3779ZM13.3779 29.877V30.3145H25.2725V29.877V29.4395H13.3779V29.877ZM25.2725 29.877H25.71V28.5352H25.2725H24.835V29.877H25.2725ZM25.2725 28.5352H25.71C25.71 28.4532 25.6988 28.3309 25.6966 28.2921L25.2598 28.3164L24.8229 28.3408C24.8294 28.456 24.835 28.4801 24.835 28.5352H25.2725ZM25.2598 28.3164L25.6956 28.2785C25.6881 28.1924 25.6828 28.1152 25.6816 28.048L25.2441 28.0557L24.8067 28.0634C24.8084 28.1614 24.8159 28.2627 24.8239 28.3543L25.2598 28.3164ZM25.2441 28.0557L25.6801 28.0185C25.6794 28.0111 25.6787 28.005 25.6783 28.0013C25.6781 27.9995 25.6779 27.9979 25.6778 27.997C25.6777 27.9965 25.6776 27.9961 25.6776 27.9959C25.6776 27.9955 25.6776 27.9956 25.6776 27.9955C25.6775 27.995 25.6778 27.9975 25.6782 28.0008C25.6786 28.0044 25.6792 28.0102 25.6797 28.0175L25.2432 28.0469L24.8067 28.0762C24.8072 28.085 24.808 28.0923 24.8085 28.0973C24.8091 28.1021 24.8096 28.1061 24.8097 28.1071C24.81 28.1092 24.8097 28.1073 24.8095 28.1056C24.8093 28.1034 24.8087 28.0988 24.8082 28.0928L25.2441 28.0557ZM25.2432 28.0469L25.6796 28.0159C25.5871 26.7116 25.0783 25.4756 24.2156 24.4431L23.8799 24.7236L23.5441 25.0041C24.2936 25.9011 24.7278 26.964 24.8068 28.0778L25.2432 28.0469ZM23.8799 24.7236L24.2127 24.4397C24.2184 24.4464 24.2216 24.4508 24.2209 24.4499C24.2206 24.4495 24.2199 24.4485 24.2183 24.4462C24.2174 24.4449 24.2167 24.4439 24.2154 24.4421C24.2143 24.4405 24.2129 24.4386 24.2115 24.4365L23.8545 24.6895L23.4975 24.9424C23.4976 24.9425 23.5213 24.9774 23.547 25.0075L23.8799 24.7236ZM23.8545 24.6895L24.1903 24.409C24.06 24.253 23.9361 24.127 23.8279 24.0188L23.5186 24.3281L23.2092 24.6375C23.3133 24.7416 23.4144 24.845 23.5187 24.9699L23.8545 24.6895ZM23.5186 24.3281L23.8279 24.0187C22.6154 22.8064 21.0084 22.1328 19.3125 22.1328V22.5703V23.0078C20.7722 23.0078 22.1578 23.5862 23.2092 24.6375L23.5186 24.3281ZM28.8105 22.0137L28.8105 21.5762C27.0127 21.5763 25.3424 22.5714 24.46 24.1323L24.8408 24.3477L25.2217 24.563C25.9521 23.271 27.3345 22.4513 28.8106 22.4512L28.8105 22.0137ZM24.8408 24.3477L24.4965 24.6175C25.0645 25.3424 25.4578 26.191 25.6552 27.1131L26.083 27.0215L26.5108 26.9299C26.2864 25.8818 25.8376 24.9104 25.1852 24.0778L24.8408 24.3477ZM26.083 27.0215L25.6556 27.1147C25.6655 27.1603 25.6731 27.1939 25.6802 27.2296L26.1094 27.1445L26.5385 27.0595C26.5293 27.0129 26.5184 26.9646 26.5105 26.9282L26.083 27.0215ZM26.1094 27.1445L25.68 27.2283C25.6965 27.3129 25.7108 27.3999 25.7248 27.4909L26.1572 27.4248L26.5897 27.3587C26.5749 27.2617 26.5585 27.1617 26.5388 27.0608L26.1094 27.1445ZM26.1572 27.4248L25.7248 27.4913C25.7287 27.5164 25.7334 27.5408 25.7359 27.5537C25.7389 27.5697 25.74 27.5759 25.7405 27.5798L26.1738 27.5195L26.6072 27.4593C26.6033 27.4315 26.5985 27.4061 26.5955 27.3906C26.592 27.3719 26.5906 27.3648 26.5896 27.3583L26.1572 27.4248ZM26.1738 27.5195V27.957H33.3643V27.5195V27.082H26.1738V27.5195ZM33.3643 27.5195H33.8018V26.5674H33.3643H32.9268V27.5195H33.3643ZM33.3643 26.5674H33.8018C33.8018 25.2304 33.285 23.9739 32.3445 23.0334L32.0352 23.3428L31.7258 23.6521C32.5005 24.4269 32.9268 25.4602 32.9268 26.5674H33.3643ZM32.0352 23.3428L32.3445 23.0334C31.4041 22.093 30.1475 21.5762 28.8105 21.5762V22.0137V22.4512C29.9177 22.4512 30.9511 22.8775 31.7258 23.6521L32.0352 23.3428ZM19.3086 14.8398V14.4023C17.3128 14.4023 15.6934 16.0269 15.6934 18.0176H16.1309H16.5684C16.5684 16.5094 17.7968 15.2773 19.3086 15.2773V14.8398ZM16.1309 18.0176L15.6934 18.0251C15.7275 20.0059 17.339 21.6318 19.3086 21.6318V21.1943V20.7568C17.8308 20.7568 16.5944 19.5281 16.5683 18.01L16.1309 18.0176ZM19.3086 21.1943L19.3086 21.6318C21.3038 21.6317 22.9227 20.0128 22.9229 18.0176L22.4854 18.0176L22.0479 18.0176C22.0478 19.5295 20.8206 20.7567 19.3086 20.7568L19.3086 21.1943ZM22.4854 18.0176H22.9229C22.9229 16.0224 21.304 14.4025 19.3086 14.4023L19.3086 14.8398L19.3086 15.2773C20.8205 15.2775 22.0479 16.5054 22.0479 18.0176H22.4854ZM28.8145 15.8857L28.8144 15.4482C27.2522 15.4483 25.9844 16.716 25.9844 18.2783H26.4219H26.8594C26.8594 17.1993 27.7354 16.3233 28.8145 16.3232L28.8145 15.8857ZM26.4219 18.2783L25.9844 18.2784C25.9846 19.8404 27.2523 21.1083 28.8144 21.1084L28.8145 20.6709L28.8145 20.2334C27.7356 20.2333 26.8595 19.3572 26.8594 18.2783L26.4219 18.2783ZM28.8145 20.6709V21.1084C30.3767 21.1084 31.6443 19.8404 31.6445 18.2784L31.207 18.2783L30.7695 18.2783C30.7694 19.3573 29.8934 20.2334 28.8145 20.2334V20.6709ZM31.207 18.2783H31.6445C31.6445 16.7155 30.372 15.4482 28.8145 15.4482V15.8857V16.3232C29.8897 16.3232 30.7695 17.1998 30.7695 18.2783H31.207Z" fill="#6A7FE3" mask="url(#path-2-outside-1_503_4295)"/>
</svg>
