<svg width="46" height="46" viewBox="0 0 46 46" fill="none" xmlns="http://www.w3.org/2000/svg">
<rect x="0.510417" y="0.510417" width="44.9167" height="44.9167" rx="9.69792" fill="#2F2C26" stroke="#706041" stroke-width="1.02083"/>
<path d="M25.7383 13.0889C26.6613 13.0889 27.415 13.8085 27.415 14.6963V16.4785H32.0918C33.3111 16.4785 34.3056 17.429 34.3057 18.6006V29.2686C34.3056 30.4402 33.3112 31.3906 32.0918 31.3906H14.5723C13.3529 31.3906 12.3584 30.4402 12.3584 29.2686V18.6006C12.3585 17.429 13.3529 16.4785 14.5723 16.4785H19.249V14.6963C19.249 13.8085 20.0028 13.0889 20.9258 13.0889H25.7383ZM32.8438 22.3643C32.5042 22.6054 32.1217 22.7894 31.7061 22.9053C27.6893 24.0254 25.7877 24.5689 24.7959 24.833C24.3003 24.965 24.0303 25.0283 23.8359 25.0576C23.6406 25.0871 23.5217 25.083 23.332 25.083C23.1448 25.083 23.0267 25.0863 22.8311 25.0566C22.6365 25.0271 22.365 24.9642 21.8682 24.832C20.8739 24.5676 18.97 24.0241 14.958 22.9053C14.5425 22.7894 14.1599 22.6054 13.8203 22.3643V29.2686C13.8203 29.6633 14.1562 29.9873 14.5723 29.9873H32.0918C32.5079 29.9873 32.8438 29.6633 32.8438 29.2686V22.3643ZM14.5723 17.8818C14.1562 17.8818 13.8204 18.2058 13.8203 18.6006V19.585C13.8203 20.4912 14.4553 21.3036 15.3662 21.5576L22.6309 23.583C23.0888 23.711 23.5753 23.711 24.0332 23.583L31.2979 21.5576C32.2088 21.3036 32.8438 20.4912 32.8438 19.585V18.6006C32.8437 18.2058 32.5079 17.8818 32.0918 17.8818H14.5723ZM20.9258 14.4922C20.8684 14.4923 20.8135 14.5143 20.7734 14.5527C20.7336 14.5911 20.711 14.6429 20.7109 14.6963V16.4785H25.9531V14.6963C25.9531 14.6429 25.9305 14.5911 25.8906 14.5527C25.8505 14.5144 25.7956 14.4923 25.7383 14.4922H20.9258Z" fill="#C5B06F" stroke="#C5B06F" stroke-width="0.0729167"/>
</svg>
