<svg width="23" height="18" viewBox="0 0 23 18" fill="none" xmlns="http://www.w3.org/2000/svg">
<mask id="path-1-outside-1_503_4043" maskUnits="userSpaceOnUse" x="-0.927734" y="-0.927734" width="24" height="19" fill="black">
<rect fill="white" x="-0.927734" y="-0.927734" width="24" height="19"/>
<path d="M6.98438 0.0722656C9.27834 0.0722656 11.1434 1.93712 11.1436 4.23535C11.1467 5.91838 10.1433 7.36924 8.70117 8.02344C9.87053 8.32327 10.9472 8.93003 11.8359 9.80469C12.5614 8.68346 13.6663 7.86144 14.9238 7.48438C13.8503 6.91898 13.1162 5.79253 13.1162 4.49707C13.1162 2.63612 14.6303 1.12207 16.4912 1.12207C18.3521 1.12219 19.8652 2.63619 19.8652 4.49707C19.8652 5.78959 19.135 6.91381 18.0654 7.48047C18.9426 7.73792 19.7453 8.21011 20.4062 8.87109C21.4481 9.91304 22.0234 11.3065 22.0234 12.79V14.2305C22.0277 14.5006 21.8086 14.7197 21.5342 14.7197H13.9248C13.925 14.7312 13.9268 14.7427 13.9268 14.7539V16.5889C13.931 16.859 13.7125 17.082 13.4424 17.082H0.56543C0.295413 17.0819 0.0722656 16.8632 0.0722656 16.5889V14.7539C0.0722656 11.5144 2.29158 8.78444 5.2832 8.02051C3.85812 7.36495 2.8497 5.91701 2.82129 4.24023C2.82129 1.93776 4.68624 0.0724785 6.98438 0.0722656ZM6.98926 8.78906C3.71758 8.78906 1.05469 11.4651 1.05469 14.7539V16.0957H12.9492V14.7539C12.9492 14.6853 12.9408 14.6123 12.9365 14.5352C12.9285 14.4427 12.9209 14.3501 12.9199 14.2646C12.8341 13.0556 12.3627 11.9061 11.5566 10.9414C11.5495 10.933 11.5436 10.9238 11.5371 10.915C11.4178 10.7714 11.3032 10.6548 11.1953 10.5469C10.0634 9.4151 8.56698 8.78913 6.98926 8.78906ZM16.4873 8.23145C14.8497 8.23145 13.3229 9.14008 12.5166 10.5674C13.121 11.3388 13.5401 12.2385 13.7529 13.2129C13.7915 13.3864 13.826 13.5609 13.8506 13.7373H21.041V12.7852C21.0409 11.5634 20.5692 10.419 19.7119 9.56152C18.8543 8.70395 17.7093 8.23146 16.4873 8.23145ZM6.98438 1.05859C5.23087 1.05881 3.80773 2.48611 3.80762 4.23535C3.83763 5.98469 5.26081 7.41287 6.98438 7.41309C8.73813 7.41309 10.1621 5.98911 10.1621 4.23535C10.162 2.48169 8.73806 1.05859 6.98438 1.05859ZM16.4912 2.10449C15.1705 2.10449 14.0986 3.17639 14.0986 4.49707C14.0986 5.81775 15.1705 6.88965 16.4912 6.88965C17.8118 6.88953 18.8838 5.81767 18.8838 4.49707C18.8838 3.17647 17.8075 2.10461 16.4912 2.10449Z"/>
</mask>
<path d="M6.98438 0.0722656C9.27834 0.0722656 11.1434 1.93712 11.1436 4.23535C11.1467 5.91838 10.1433 7.36924 8.70117 8.02344C9.87053 8.32327 10.9472 8.93003 11.8359 9.80469C12.5614 8.68346 13.6663 7.86144 14.9238 7.48438C13.8503 6.91898 13.1162 5.79253 13.1162 4.49707C13.1162 2.63612 14.6303 1.12207 16.4912 1.12207C18.3521 1.12219 19.8652 2.63619 19.8652 4.49707C19.8652 5.78959 19.135 6.91381 18.0654 7.48047C18.9426 7.73792 19.7453 8.21011 20.4062 8.87109C21.4481 9.91304 22.0234 11.3065 22.0234 12.79V14.2305C22.0277 14.5006 21.8086 14.7197 21.5342 14.7197H13.9248C13.925 14.7312 13.9268 14.7427 13.9268 14.7539V16.5889C13.931 16.859 13.7125 17.082 13.4424 17.082H0.56543C0.295413 17.0819 0.0722656 16.8632 0.0722656 16.5889V14.7539C0.0722656 11.5144 2.29158 8.78444 5.2832 8.02051C3.85812 7.36495 2.8497 5.91701 2.82129 4.24023C2.82129 1.93776 4.68624 0.0724785 6.98438 0.0722656ZM6.98926 8.78906C3.71758 8.78906 1.05469 11.4651 1.05469 14.7539V16.0957H12.9492V14.7539C12.9492 14.6853 12.9408 14.6123 12.9365 14.5352C12.9285 14.4427 12.9209 14.3501 12.9199 14.2646C12.8341 13.0556 12.3627 11.9061 11.5566 10.9414C11.5495 10.933 11.5436 10.9238 11.5371 10.915C11.4178 10.7714 11.3032 10.6548 11.1953 10.5469C10.0634 9.4151 8.56698 8.78913 6.98926 8.78906ZM16.4873 8.23145C14.8497 8.23145 13.3229 9.14008 12.5166 10.5674C13.121 11.3388 13.5401 12.2385 13.7529 13.2129C13.7915 13.3864 13.826 13.5609 13.8506 13.7373H21.041V12.7852C21.0409 11.5634 20.5692 10.419 19.7119 9.56152C18.8543 8.70395 17.7093 8.23146 16.4873 8.23145ZM6.98438 1.05859C5.23087 1.05881 3.80773 2.48611 3.80762 4.23535C3.83763 5.98469 5.26081 7.41287 6.98438 7.41309C8.73813 7.41309 10.1621 5.98911 10.1621 4.23535C10.162 2.48169 8.73806 1.05859 6.98438 1.05859ZM16.4912 2.10449C15.1705 2.10449 14.0986 3.17639 14.0986 4.49707C14.0986 5.81775 15.1705 6.88965 16.4912 6.88965C17.8118 6.88953 18.8838 5.81767 18.8838 4.49707C18.8838 3.17647 17.8075 2.10461 16.4912 2.10449Z" fill="#7D7D7D"/>
<path d="M6.98438 0.0722656V-0.000651047H6.98437L6.98438 0.0722656ZM11.1436 4.23535L11.0706 4.23535V4.23549L11.1436 4.23535ZM8.70117 8.02344L8.67105 7.95703L8.48239 8.04261L8.68306 8.09407L8.70117 8.02344ZM11.8359 9.80469L11.7848 9.85666L11.8486 9.91941L11.8972 9.8443L11.8359 9.80469ZM14.9238 7.48438L14.9448 7.55422L15.1156 7.50298L14.9578 7.41986L14.9238 7.48438ZM13.1162 4.49707H13.0433V4.49707H13.1162ZM16.4912 1.12207L16.4912 1.04915H16.4912V1.12207ZM19.8652 4.49707H19.9382V4.49707H19.8652ZM18.0654 7.48047L18.0313 7.41604L17.8729 7.49995L18.0449 7.55043L18.0654 7.48047ZM20.4062 8.87109L20.4578 8.81954L20.4578 8.81953L20.4062 8.87109ZM22.0234 14.2305H21.9505L21.9505 14.2316L22.0234 14.2305ZM21.5342 14.7197V14.7926H21.5342L21.5342 14.7197ZM13.9248 14.7197V14.6468H13.8504L13.8519 14.7212L13.9248 14.7197ZM13.9268 16.5889H13.8538L13.8539 16.59L13.9268 16.5889ZM13.4424 17.082V17.1549H13.4424L13.4424 17.082ZM0.56543 17.082L0.56539 17.1549H0.56543V17.082ZM5.2832 8.02051L5.30124 8.09116L5.5006 8.04025L5.31368 7.95426L5.2832 8.02051ZM2.82129 4.24023H2.74836L2.74838 4.24147L2.82129 4.24023ZM6.98926 8.78906L6.98926 8.71615H6.98926V8.78906ZM1.05469 16.0957H0.981771V16.1686H1.05469V16.0957ZM12.9492 16.0957V16.1686H13.0221V16.0957H12.9492ZM12.9365 14.5352L13.0094 14.5311L13.0092 14.5288L12.9365 14.5352ZM12.9199 14.2646L12.993 14.2638L12.9927 14.2595L12.9199 14.2646ZM11.5566 10.9414L11.6126 10.8947L11.6121 10.8941L11.5566 10.9414ZM11.5371 10.915L11.5958 10.8716L11.5932 10.8684L11.5371 10.915ZM11.1953 10.5469L11.2469 10.4953L11.2469 10.4953L11.1953 10.5469ZM16.4873 8.23145V8.15853V8.15853V8.23145ZM12.5166 10.5674L12.4531 10.5315L12.4291 10.574L12.4592 10.6124L12.5166 10.5674ZM13.7529 13.2129L13.6817 13.2285L13.6818 13.2287L13.7529 13.2129ZM13.8506 13.7373L13.7784 13.7474L13.7871 13.8102H13.8506V13.7373ZM21.041 13.7373V13.8102H21.1139V13.7373H21.041ZM21.041 12.7852H21.1139V12.7851L21.041 12.7852ZM19.7119 9.56152L19.7635 9.50997L19.7635 9.50996L19.7119 9.56152ZM6.98438 1.05859V0.985677H6.98437L6.98438 1.05859ZM3.80762 4.23535L3.73469 4.23535L3.73471 4.2366L3.80762 4.23535ZM6.98438 7.41309L6.98437 7.486H6.98438V7.41309ZM10.1621 4.23535H10.235V4.23535L10.1621 4.23535ZM16.4912 2.10449L16.4912 2.03158H16.4912V2.10449ZM14.0986 4.49707H14.0257V4.49707H14.0986ZM16.4912 6.88965V6.96256H16.4912L16.4912 6.88965ZM18.8838 4.49707H18.9567V4.49707H18.8838ZM6.98438 0.0722656V0.145182C9.23803 0.145182 11.0705 1.97735 11.0706 4.23535L11.1436 4.23535L11.2165 4.23535C11.2164 1.8969 9.31866 -0.000651047 6.98438 -0.000651047V0.0722656ZM11.1436 4.23535L11.0706 4.23549C11.0737 5.88868 10.0882 7.31419 8.67105 7.95703L8.70117 8.02344L8.73129 8.08984C10.1985 7.4243 11.2197 5.94809 11.2165 4.23522L11.1436 4.23535ZM8.70117 8.02344L8.68306 8.09407C9.8398 8.39067 10.9052 8.99091 11.7848 9.85666L11.8359 9.80469L11.8871 9.75272C10.9893 8.86914 9.90126 8.25588 8.71928 7.95281L8.70117 8.02344ZM11.8359 9.80469L11.8972 9.8443C12.6132 8.73767 13.7038 7.92633 14.9448 7.55422L14.9238 7.48438L14.9029 7.41453C13.6289 7.79655 12.5097 8.62924 11.7747 9.76508L11.8359 9.80469ZM14.9238 7.48438L14.9578 7.41986C13.9071 6.86652 13.1891 5.76429 13.1891 4.49707H13.1162H13.0433C13.0433 5.82077 13.7934 6.97144 14.8898 7.54889L14.9238 7.48438ZM13.1162 4.49707H13.1891C13.1891 2.67639 14.6705 1.19499 16.4912 1.19499V1.12207V1.04915C14.59 1.04915 13.0433 2.59585 13.0433 4.49707H13.1162ZM16.4912 1.12207L16.4912 1.19499C18.3118 1.1951 19.7923 2.67644 19.7923 4.49707H19.8652H19.9382C19.9382 2.59594 18.3924 1.04927 16.4912 1.04915L16.4912 1.12207ZM19.8652 4.49707H19.7923C19.7923 5.76144 19.078 6.86147 18.0313 7.41604L18.0654 7.48047L18.0996 7.5449C19.192 6.96615 19.9382 5.81775 19.9382 4.49707H19.8652ZM18.0654 7.48047L18.0449 7.55043C18.9104 7.80446 19.7024 8.27034 20.3547 8.92265L20.4062 8.87109L20.4578 8.81953C19.7882 8.14988 18.9748 7.67138 18.086 7.4105L18.0654 7.48047ZM20.4062 8.87109L20.3547 8.92265C21.3828 9.95083 21.9505 11.3257 21.9505 12.79H22.0234H22.0964C22.0964 11.2873 21.5135 9.87525 20.4578 8.81954L20.4062 8.87109ZM22.0234 12.79H21.9505V14.2305H22.0234H22.0964V12.79H22.0234ZM22.0234 14.2305L21.9505 14.2316C21.9542 14.4599 21.769 14.6468 21.5342 14.6468L21.5342 14.7197L21.5342 14.7926C21.8482 14.7926 22.1013 14.5413 22.0963 14.2293L22.0234 14.2305ZM21.5342 14.7197V14.6468H13.9248V14.7197V14.7926H21.5342V14.7197ZM13.9248 14.7197L13.8519 14.7212C13.8521 14.7296 13.8528 14.7378 13.8532 14.7428C13.8537 14.7487 13.8538 14.7516 13.8538 14.7539H13.9268H13.9997C13.9997 14.745 13.999 14.7366 13.9985 14.7311C13.998 14.7246 13.9978 14.7213 13.9977 14.7183L13.9248 14.7197ZM13.9268 14.7539H13.8538V16.5889H13.9268H13.9997V14.7539H13.9268ZM13.9268 16.5889L13.8539 16.59C13.8575 16.8196 13.6716 17.0091 13.4424 17.0091L13.4424 17.082L13.4424 17.1549C13.7534 17.1549 14.0046 16.8984 13.9997 16.5877L13.9268 16.5889ZM13.4424 17.082V17.0091H0.56543V17.082V17.1549H13.4424V17.082ZM0.56543 17.082L0.565469 17.0091C0.33524 17.009 0.145182 16.8225 0.145182 16.5889H0.0722656H-0.000651047C-0.000651047 16.9039 0.255586 17.1548 0.56539 17.1549L0.56543 17.082ZM0.0722656 16.5889H0.145182V14.7539H0.0722656H-0.000651047V16.5889H0.0722656ZM0.0722656 14.7539H0.145182C0.145182 11.5484 2.34128 8.84701 5.30124 8.09116L5.2832 8.02051L5.26516 7.94986C2.24188 8.72188 -0.000651047 11.4804 -0.000651047 14.7539H0.0722656ZM5.2832 8.02051L5.31368 7.95426C3.91325 7.31004 2.92212 5.88687 2.8942 4.239L2.82129 4.24023L2.74838 4.24147C2.77729 5.94715 3.803 7.41985 5.25273 8.08675L5.2832 8.02051ZM2.82129 4.24023H2.89421C2.89421 1.97797 4.72656 0.145391 6.98438 0.145182L6.98438 0.0722656L6.98437 -0.000651047C4.64591 -0.000434466 2.74837 1.89754 2.74837 4.24023H2.82129ZM6.98926 8.78906V8.71615C3.67697 8.71615 0.981771 11.4252 0.981771 14.7539H1.05469H1.1276C1.1276 11.505 3.7582 8.86198 6.98926 8.86198V8.78906ZM1.05469 14.7539H0.981771V16.0957H1.05469H1.1276V14.7539H1.05469ZM1.05469 16.0957V16.1686H12.9492V16.0957V16.0228H1.05469V16.0957ZM12.9492 16.0957H13.0221V14.7539H12.9492H12.8763V16.0957H12.9492ZM12.9492 14.7539H13.0221C13.0221 14.6831 13.0133 14.6018 13.0093 14.5311L12.9365 14.5352L12.8637 14.5392C12.8684 14.6228 12.8763 14.6875 12.8763 14.7539H12.9492ZM12.9365 14.5352L13.0092 14.5288C13.0011 14.4361 12.9938 14.3461 12.9928 14.2638L12.9199 14.2646L12.847 14.2655C12.848 14.354 12.8559 14.4492 12.8639 14.5415L12.9365 14.5352ZM12.9199 14.2646L12.9927 14.2595C12.9057 13.0345 12.4281 11.8707 11.6126 10.8947L11.5566 10.9414L11.5007 10.9882C12.2973 11.9416 12.7625 13.0766 12.8472 14.2698L12.9199 14.2646ZM11.5566 10.9414L11.6121 10.8941C11.6069 10.888 11.6063 10.886 11.5957 10.8717L11.5371 10.915L11.4785 10.9584C11.4809 10.9616 11.4921 10.9781 11.5012 10.9887L11.5566 10.9414ZM11.5371 10.915L11.5932 10.8684C11.4716 10.7221 11.3551 10.6035 11.2469 10.4953L11.1953 10.5469L11.1438 10.5984C11.2514 10.706 11.3639 10.8207 11.481 10.9616L11.5371 10.915ZM11.1953 10.5469L11.2469 10.4953C10.1015 9.35011 8.58666 8.71622 6.98926 8.71615L6.98926 8.78906L6.98925 8.86198C8.5473 8.86205 10.0253 9.4801 11.1438 10.5984L11.1953 10.5469ZM16.4873 8.23145V8.15853C14.8229 8.15853 13.2721 9.08181 12.4531 10.5315L12.5166 10.5674L12.5801 10.6032C13.3737 9.19836 14.8765 8.30436 16.4873 8.30436V8.23145ZM12.5166 10.5674L12.4592 10.6124C13.0567 11.3749 13.4711 12.2645 13.6817 13.2285L13.7529 13.2129L13.8242 13.1973C13.609 12.2125 13.1854 11.3027 12.574 10.5224L12.5166 10.5674ZM13.7529 13.2129L13.6818 13.2287C13.7201 13.4011 13.7542 13.5736 13.7784 13.7474L13.8506 13.7373L13.9228 13.7273C13.8979 13.5481 13.8629 13.3716 13.8241 13.1971L13.7529 13.2129ZM13.8506 13.7373V13.8102H21.041V13.7373V13.6644H13.8506V13.7373ZM21.041 13.7373H21.1139V12.7852H21.041H20.9681V13.7373H21.041ZM21.041 12.7852L21.1139 12.7851C21.1138 11.5442 20.6346 10.3812 19.7635 9.50997L19.7119 9.56152L19.6603 9.61308C20.5038 10.4567 20.968 11.5826 20.9681 12.7852L21.041 12.7852ZM19.7119 9.56152L19.7635 9.50996C18.8921 8.63861 17.7285 8.15854 16.4873 8.15853V8.23145V8.30436C17.6902 8.30437 18.8166 8.76929 19.6604 9.61308L19.7119 9.56152ZM6.98438 1.05859L6.98437 0.985677C5.19053 0.985896 3.73481 2.44589 3.7347 4.23535L3.80762 4.23535L3.88053 4.23536C3.88064 2.52632 5.2712 1.13172 6.98438 1.13151L6.98438 1.05859ZM3.80762 4.23535L3.73471 4.2366C3.76539 6.02446 5.21978 7.48578 6.98437 7.486L6.98438 7.41309L6.98438 7.34017C5.30184 7.33996 3.90988 5.94492 3.88052 4.2341L3.80762 4.23535ZM6.98438 7.41309V7.486C8.7784 7.486 10.235 6.02938 10.235 4.23535H10.1621H10.0892C10.0892 5.94884 8.69786 7.34017 6.98438 7.34017V7.41309ZM10.1621 4.23535L10.235 4.23535C10.2349 2.44139 8.77831 0.985677 6.98438 0.985677V1.05859V1.13151C8.69782 1.13151 10.0891 2.52198 10.0892 4.23536L10.1621 4.23535ZM16.4912 2.10449V2.03158C15.1303 2.03158 14.0257 3.13612 14.0257 4.49707H14.0986H14.1715C14.1715 3.21667 15.2108 2.17741 16.4912 2.17741V2.10449ZM14.0986 4.49707H14.0257C14.0257 5.85802 15.1303 6.96256 16.4912 6.96256V6.88965V6.81673C15.2108 6.81673 14.1716 5.77747 14.1715 4.49707H14.0986ZM16.4912 6.88965L16.4912 6.96256C17.8521 6.96245 18.9567 5.85795 18.9567 4.49707H18.8838H18.8109C18.8109 5.7774 17.7715 6.81662 16.4912 6.81673L16.4912 6.88965ZM18.8838 4.49707H18.9567C18.9567 3.1361 17.8477 2.03169 16.4912 2.03158L16.4912 2.10449L16.4912 2.17741C17.7673 2.17752 18.8109 3.21683 18.8109 4.49707H18.8838Z" fill="#7D7D7D" mask="url(#path-1-outside-1_503_4043)"/>
</svg>
