<svg width="20" height="20" viewBox="0 0 20 20" fill="none" xmlns="http://www.w3.org/2000/svg">
<path d="M14.0068 0.181641C14.4283 0.181877 14.7695 0.523748 14.7695 0.945312V1.68848H16.9941C18.5401 1.68872 19.7938 2.94229 19.7939 4.48828V16.9941C19.7935 18.5399 18.5399 19.7937 16.9941 19.7939H2.98145C1.4355 19.7939 0.182124 18.54 0.181641 16.9941V4.48828C0.181791 2.94216 1.4353 1.68851 2.98145 1.68848H5.20508V0.945312C5.20508 0.523621 5.54707 0.181671 5.96875 0.181641C6.39046 0.181641 6.73242 0.523602 6.73242 0.945312V1.68848H13.2432V0.945312C13.2432 0.523602 13.5851 0.181641 14.0068 0.181641ZM1.70898 16.9941C1.70947 17.6966 2.27892 18.2666 2.98145 18.2666H16.9941C17.6965 18.2664 18.2661 17.6964 18.2666 16.9941V7.82715H1.70898V16.9941ZM6.27637 13.6914C6.83844 13.6915 7.29471 14.1469 7.29492 14.709C7.29487 15.2712 6.83854 15.7274 6.27637 15.7275H6.26758C5.70533 15.7275 5.24907 15.2712 5.24902 14.709C5.24924 14.1469 5.70543 13.6914 6.26758 13.6914H6.27637ZM9.98926 13.6914C10.5513 13.6916 11.0076 14.147 11.0078 14.709C11.0078 15.2711 10.5514 15.7274 9.98926 15.7275H9.98047C9.41822 15.7275 8.96196 15.2712 8.96191 14.709C8.96213 14.1469 9.41832 13.6914 9.98047 13.6914H9.98926ZM13.709 13.6914C14.2711 13.6915 14.7273 14.1469 14.7275 14.709C14.7275 15.2712 14.2712 15.7275 13.709 15.7275H13.7002C13.1379 15.7275 12.6817 15.2712 12.6816 14.709C12.6819 14.1469 13.138 13.6914 13.7002 13.6914H13.709ZM6.27637 10.6777C6.83844 10.6778 7.29471 11.1333 7.29492 11.6953C7.29467 12.2573 6.83842 12.7138 6.27637 12.7139H6.26758C5.70545 12.7139 5.24927 12.2574 5.24902 11.6953C5.24924 11.1332 5.70543 10.6777 6.26758 10.6777H6.27637ZM9.98926 10.6777C10.5513 10.6779 11.0076 11.1333 11.0078 11.6953C11.0076 12.2573 10.5513 12.7137 9.98926 12.7139H9.98047C9.41834 12.7139 8.96216 12.2574 8.96191 11.6953C8.96213 11.1332 9.41832 10.6777 9.98047 10.6777H9.98926ZM13.709 10.6777C14.2711 10.6778 14.7273 11.1333 14.7275 11.6953C14.7273 12.2573 14.2711 12.7138 13.709 12.7139H13.7002C13.1381 12.7139 12.6819 12.2574 12.6816 11.6953C12.6819 11.1332 13.138 10.6777 13.7002 10.6777H13.709ZM2.98145 3.21582C2.27872 3.21586 1.70913 3.78558 1.70898 4.48828V6.30078H18.2666V4.48828C18.2665 3.78571 17.6967 3.21606 16.9941 3.21582H14.7695V3.95898C14.7693 4.38034 14.4282 4.72242 14.0068 4.72266C13.5853 4.72266 13.2434 4.38049 13.2432 3.95898V3.21582H6.73242V3.95898C6.73218 4.38049 6.39031 4.72266 5.96875 4.72266C5.54721 4.72263 5.20532 4.38047 5.20508 3.95898V3.21582H2.98145Z" fill="#7D7D7D"/>
<path d="M14.0068 0.181641L14.0069 -0.000651047H14.0068V0.181641ZM14.7695 1.68848H14.5872C14.5872 1.78915 14.6689 1.87077 14.7695 1.87077V1.68848ZM16.9941 1.68848L16.9942 1.50618H16.9941V1.68848ZM19.7939 4.48828H19.9762V4.48826L19.7939 4.48828ZM19.7939 16.9941L19.9762 16.9942V16.9941H19.7939ZM16.9941 19.7939V19.9762H16.9942L16.9941 19.7939ZM2.98145 19.7939L2.98144 19.9762H2.98145V19.7939ZM0.181641 16.9941H-0.000651062L-0.000651032 16.9942L0.181641 16.9941ZM0.181641 4.48828L-0.000651047 4.48826V4.48828H0.181641ZM2.98145 1.68848V1.50618H2.98144L2.98145 1.68848ZM5.20508 1.68848V1.87077C5.30576 1.87077 5.38737 1.78915 5.38737 1.68848H5.20508ZM5.96875 0.181641V-0.000651047H5.96874L5.96875 0.181641ZM6.73242 1.68848H6.55013C6.55013 1.78915 6.63174 1.87077 6.73242 1.87077V1.68848ZM13.2432 1.68848V1.87077C13.3438 1.87077 13.4255 1.78915 13.4255 1.68848H13.2432ZM1.70898 16.9941H1.52669L1.52669 16.9943L1.70898 16.9941ZM2.98145 18.2666L2.98144 18.4489H2.98145V18.2666ZM16.9941 18.2666V18.4489H16.9942L16.9941 18.2666ZM18.2666 16.9941L18.4489 16.9943V16.9941H18.2666ZM18.2666 7.82715H18.4489C18.4489 7.72647 18.3673 7.64486 18.2666 7.64486V7.82715ZM1.70898 7.82715V7.64486C1.60831 7.64486 1.52669 7.72647 1.52669 7.82715H1.70898ZM6.27637 13.6914L6.2764 13.5091H6.27637V13.6914ZM7.29492 14.709L7.47721 14.709V14.7089L7.29492 14.709ZM6.27637 15.7275V15.9098H6.2764L6.27637 15.7275ZM5.24902 14.709L5.06673 14.7089V14.709L5.24902 14.709ZM9.98926 13.6914L9.98931 13.5091H9.98926V13.6914ZM11.0078 14.709L11.1901 14.709V14.7089L11.0078 14.709ZM9.98926 15.7275V15.9098H9.98931L9.98926 15.7275ZM8.96191 14.709L8.77962 14.7089V14.709L8.96191 14.709ZM13.709 13.6914L13.709 13.5091H13.709V13.6914ZM14.7275 14.709L14.9098 14.709V14.7089L14.7275 14.709ZM13.709 15.7275V15.9098H13.709L13.709 15.7275ZM12.6816 14.709L12.4993 14.7089V14.709L12.6816 14.709ZM6.27637 10.6777L6.2764 10.4954H6.27637V10.6777ZM7.29492 11.6953L7.47721 11.6954V11.6952L7.29492 11.6953ZM6.27637 12.7139V12.8962H6.2764L6.27637 12.7139ZM5.24902 11.6953L5.06673 11.6952V11.6954L5.24902 11.6953ZM9.98926 10.6777L9.98931 10.4954H9.98926V10.6777ZM11.0078 11.6953L11.1901 11.6954V11.6952L11.0078 11.6953ZM9.98926 12.7139V12.8962H9.98931L9.98926 12.7139ZM8.96191 11.6953L8.77962 11.6952V11.6954L8.96191 11.6953ZM13.709 10.6777L13.709 10.4954H13.709V10.6777ZM14.7275 11.6953L14.9098 11.6954V11.6952L14.7275 11.6953ZM13.709 12.7139V12.8962H13.709L13.709 12.7139ZM12.6816 11.6953L12.4993 11.6952V11.6954L12.6816 11.6953ZM2.98145 3.21582V3.03353H2.98144L2.98145 3.21582ZM1.70898 4.48828L1.52669 4.48824V4.48828H1.70898ZM1.70898 6.30078H1.52669C1.52669 6.40146 1.60831 6.48307 1.70898 6.48307V6.30078ZM18.2666 6.30078V6.48307C18.3673 6.48307 18.4489 6.40146 18.4489 6.30078H18.2666ZM18.2666 4.48828H18.4489V4.48824L18.2666 4.48828ZM16.9941 3.21582L16.9942 3.03353H16.9941V3.21582ZM14.7695 3.21582V3.03353C14.6689 3.03353 14.5872 3.11514 14.5872 3.21582H14.7695ZM14.7695 3.95898L14.9518 3.95909V3.95898H14.7695ZM14.0068 4.72266V4.90495H14.0069L14.0068 4.72266ZM13.2432 3.95898H13.0609V3.95909L13.2432 3.95898ZM13.2432 3.21582H13.4255C13.4255 3.11514 13.3438 3.03353 13.2432 3.03353V3.21582ZM6.73242 3.21582V3.03353C6.63174 3.03353 6.55013 3.11514 6.55013 3.21582H6.73242ZM6.73242 3.95898L6.91471 3.95909V3.95898H6.73242ZM5.96875 4.72266L5.96874 4.90495H5.96875V4.72266ZM5.20508 3.95898H5.02279V3.95909L5.20508 3.95898ZM5.20508 3.21582H5.38737C5.38737 3.11514 5.30576 3.03353 5.20508 3.03353V3.21582ZM14.0068 0.181641L14.0067 0.363932C14.3274 0.364112 14.5872 0.624223 14.5872 0.945312H14.7695H14.9518C14.9518 0.423273 14.5292 -0.000357866 14.0069 -0.000651017L14.0068 0.181641ZM14.7695 0.945312H14.5872V1.68848H14.7695H14.9518V0.945312H14.7695ZM14.7695 1.68848V1.87077H16.9941V1.68848V1.50618H14.7695V1.68848ZM16.9941 1.68848L16.9941 1.87077C18.4394 1.87099 19.6115 3.04298 19.6117 4.4883L19.7939 4.48828L19.9762 4.48826C19.9761 2.84159 18.6408 1.50644 16.9942 1.50618L16.9941 1.68848ZM19.7939 4.48828H19.6117V16.9941H19.7939H19.9762V4.48828H19.7939ZM19.7939 16.9941L19.6117 16.9941C19.6112 18.4392 18.4392 19.6114 16.9941 19.6117L16.9941 19.7939L16.9942 19.9762C18.6406 19.976 19.9757 18.6405 19.9762 16.9942L19.7939 16.9941ZM16.9941 19.7939V19.6117H2.98145V19.7939V19.9762H16.9941V19.7939ZM2.98145 19.7939L2.98145 19.6117C1.53623 19.6116 0.364384 18.4393 0.363932 16.9941L0.181641 16.9941L-0.000651032 16.9942C-0.000136599 18.6406 1.33477 19.9762 2.98144 19.9762L2.98145 19.7939ZM0.181641 16.9941H0.363932V4.48828H0.181641H-0.000651047V16.9941H0.181641ZM0.181641 4.48828L0.363932 4.4883C0.364073 3.04283 1.53599 1.8708 2.98145 1.87077L2.98145 1.68848L2.98144 1.50618C1.3346 1.50622 -0.00049077 2.84149 -0.000651047 4.48826L0.181641 4.48828ZM2.98145 1.68848V1.87077H5.20508V1.68848V1.50618H2.98145V1.68848ZM5.20508 1.68848H5.38737V0.945312H5.20508H5.02279V1.68848H5.20508ZM5.20508 0.945312H5.38737C5.38737 0.624311 5.64773 0.363956 5.96876 0.363932L5.96875 0.181641L5.96874 -0.000651047C5.4464 -0.000613049 5.02279 0.422931 5.02279 0.945312H5.20508ZM5.96875 0.181641V0.363932C6.28978 0.363932 6.55013 0.624279 6.55013 0.945312H6.73242H6.91471C6.91471 0.422925 6.49114 -0.000651047 5.96875 -0.000651047V0.181641ZM6.73242 0.945312H6.55013V1.68848H6.73242H6.91471V0.945312H6.73242ZM6.73242 1.68848V1.87077H13.2432V1.68848V1.50618H6.73242V1.68848ZM13.2432 1.68848H13.4255V0.945312H13.2432H13.0609V1.68848H13.2432ZM13.2432 0.945312H13.4255C13.4255 0.624279 13.6858 0.363932 14.0068 0.363932V0.181641V-0.000651047C13.4844 -0.000651047 13.0609 0.422925 13.0609 0.945312H13.2432ZM1.70898 16.9941L1.52669 16.9943C1.52724 17.7971 2.17813 18.4489 2.98144 18.4489L2.98145 18.2666L2.98145 18.0843C2.37972 18.0843 1.89169 17.596 1.89128 16.994L1.70898 16.9941ZM2.98145 18.2666V18.4489H16.9941V18.2666V18.0843H2.98145V18.2666ZM16.9941 18.2666L16.9942 18.4489C17.7972 18.4486 18.4483 17.7971 18.4489 16.9943L18.2666 16.9941L18.0843 16.994C18.0839 17.5958 17.5957 18.0841 16.9941 18.0843L16.9941 18.2666ZM18.2666 16.9941H18.4489V7.82715H18.2666H18.0843V16.9941H18.2666ZM18.2666 7.82715V7.64486H1.70898V7.82715V8.00944H18.2666V7.82715ZM1.70898 7.82715H1.52669V16.9941H1.70898H1.89128V7.82715H1.70898ZM6.27637 13.6914L6.27634 13.8737C6.73794 13.8738 7.11245 14.2478 7.11263 14.7091L7.29492 14.709L7.47721 14.7089C7.47696 14.0461 6.93893 13.5092 6.2764 13.5091L6.27637 13.6914ZM7.29492 14.709L7.11263 14.709C7.11259 15.1705 6.73787 15.5452 6.27634 15.5452L6.27637 15.7275L6.2764 15.9098C6.93921 15.9097 7.47716 15.3719 7.47721 14.709L7.29492 14.709ZM6.27637 15.7275V15.5452H6.26758V15.7275V15.9098H6.27637V15.7275ZM6.26758 15.7275V15.5452C5.80602 15.5452 5.43136 15.1706 5.43131 14.709L5.24902 14.709L5.06673 14.709C5.06679 15.3719 5.60464 15.9098 6.26758 15.9098V15.7275ZM5.24902 14.709L5.43131 14.7091C5.43149 14.2477 5.80595 13.8737 6.26758 13.8737V13.6914V13.5091C5.60491 13.5091 5.06698 14.046 5.06673 14.7089L5.24902 14.709ZM6.26758 13.6914V13.8737H6.27637V13.6914V13.5091H6.26758V13.6914ZM9.98926 13.6914L9.98921 13.8737C10.4508 13.8738 10.8253 14.2479 10.8255 14.7091L11.0078 14.709L11.1901 14.7089C11.1899 14.0461 10.6518 13.5093 9.98931 13.5091L9.98926 13.6914ZM11.0078 14.709L10.8255 14.709C10.8255 15.1704 10.4507 15.5451 9.98921 15.5452L9.98926 15.7275L9.98931 15.9098C10.652 15.9096 11.19 15.3718 11.1901 14.709L11.0078 14.709ZM9.98926 15.7275V15.5452H9.98047V15.7275V15.9098H9.98926V15.7275ZM9.98047 15.7275V15.5452C9.51891 15.5452 9.14425 15.1706 9.14421 14.709L8.96191 14.709L8.77962 14.709C8.77968 15.3719 9.31753 15.9098 9.98047 15.9098V15.7275ZM8.96191 14.709L9.14421 14.7091C9.14438 14.2477 9.51884 13.8737 9.98047 13.8737V13.6914V13.5091C9.3178 13.5091 8.77987 14.046 8.77962 14.7089L8.96191 14.709ZM9.98047 13.6914V13.8737H9.98926V13.6914V13.5091H9.98047V13.6914ZM13.709 13.6914L13.709 13.8737C14.1706 13.8738 14.5451 14.2478 14.5452 14.7091L14.7275 14.709L14.9098 14.7089C14.9096 14.0461 14.3716 13.5092 13.709 13.5091L13.709 13.6914ZM14.7275 14.709L14.5452 14.709C14.5452 15.1705 14.1705 15.5452 13.709 15.5452L13.709 15.7275L13.709 15.9098C14.3719 15.9097 14.9098 15.3719 14.9098 14.709L14.7275 14.709ZM13.709 15.7275V15.5452H13.7002V15.7275V15.9098H13.709V15.7275ZM13.7002 15.7275V15.5452C13.2386 15.5452 12.864 15.1706 12.8639 14.709L12.6816 14.709L12.4993 14.709C12.4994 15.3719 13.0373 15.9098 13.7002 15.9098V15.7275ZM12.6816 14.709L12.8639 14.7091C12.8641 14.2477 13.2386 13.8737 13.7002 13.8737V13.6914V13.5091C13.0375 13.5091 12.4996 14.046 12.4993 14.7089L12.6816 14.709ZM13.7002 13.6914V13.8737H13.709V13.6914V13.5091H13.7002V13.6914ZM6.27637 10.6777L6.27634 10.86C6.73794 10.8601 7.11245 11.2341 7.11263 11.6954L7.29492 11.6953L7.47721 11.6952C7.47696 11.0324 6.93893 10.4955 6.2764 10.4954L6.27637 10.6777ZM7.29492 11.6953L7.11263 11.6952C7.11242 12.1567 6.73768 12.5315 6.27634 12.5316L6.27637 12.7139L6.2764 12.8962C6.93915 12.8961 7.47692 12.358 7.47721 11.6954L7.29492 11.6953ZM6.27637 12.7139V12.5316H6.26758V12.7139V12.8962H6.27637V12.7139ZM6.26758 12.7139V12.5316C5.80621 12.5316 5.43152 12.1568 5.43131 11.6952L5.24902 11.6953L5.06673 11.6954C5.06703 12.358 5.60469 12.8962 6.26758 12.8962V12.7139ZM5.24902 11.6953L5.43131 11.6954C5.43149 11.2341 5.80595 10.86 6.26758 10.86V10.6777V10.4954C5.60491 10.4954 5.06698 11.0324 5.06673 11.6952L5.24902 11.6953ZM6.26758 10.6777V10.86H6.27637V10.6777V10.4954H6.26758V10.6777ZM9.98926 10.6777L9.98921 10.86C10.4508 10.8602 10.8253 11.2342 10.8255 11.6954L11.0078 11.6953L11.1901 11.6952C11.1899 11.0324 10.6518 10.4956 9.98931 10.4954L9.98926 10.6777ZM11.0078 11.6953L10.8255 11.6952C10.8253 12.1566 10.4505 12.5314 9.98921 12.5316L9.98926 12.7139L9.98931 12.8962C10.652 12.896 11.1898 12.3579 11.1901 11.6954L11.0078 11.6953ZM9.98926 12.7139V12.5316H9.98047V12.7139V12.8962H9.98926V12.7139ZM9.98047 12.7139V12.5316C9.5191 12.5316 9.14441 12.1568 9.14421 11.6952L8.96191 11.6953L8.77962 11.6954C8.77992 12.358 9.31758 12.8962 9.98047 12.8962V12.7139ZM8.96191 11.6953L9.14421 11.6954C9.14438 11.2341 9.51884 10.86 9.98047 10.86V10.6777V10.4954C9.3178 10.4954 8.77987 11.0324 8.77962 11.6952L8.96191 11.6953ZM9.98047 10.6777V10.86H9.98926V10.6777V10.4954H9.98047V10.6777ZM13.709 10.6777L13.709 10.86C14.1706 10.8601 14.5451 11.2341 14.5452 11.6954L14.7275 11.6953L14.9098 11.6952C14.9096 11.0324 14.3716 10.4955 13.709 10.4954L13.709 10.6777ZM14.7275 11.6953L14.5452 11.6952C14.545 12.1567 14.1703 12.5315 13.709 12.5316L13.709 12.7139L13.709 12.8962C14.3718 12.8961 14.9095 12.358 14.9098 11.6954L14.7275 11.6953ZM13.709 12.7139V12.5316H13.7002V12.7139V12.8962H13.709V12.7139ZM13.7002 12.7139V12.5316C13.2388 12.5316 12.8641 12.1568 12.8639 11.6952L12.6816 11.6953L12.4993 11.6954C12.4996 12.358 13.0373 12.8962 13.7002 12.8962V12.7139ZM12.6816 11.6953L12.8639 11.6954C12.8641 11.2341 13.2386 10.86 13.7002 10.86V10.6777V10.4954C13.0375 10.4954 12.4996 11.0324 12.4993 11.6952L12.6816 11.6953ZM13.7002 10.6777V10.86H13.709V10.6777V10.4954H13.7002V10.6777ZM2.98145 3.21582L2.98144 3.03353C2.17801 3.03357 1.52686 3.68492 1.52669 4.48824L1.70898 4.48828L1.89128 4.48832C1.8914 3.88624 2.37943 3.39814 2.98145 3.39811L2.98145 3.21582ZM1.70898 4.48828H1.52669V6.30078H1.70898H1.89128V4.48828H1.70898ZM1.70898 6.30078V6.48307H18.2666V6.30078V6.11849H1.70898V6.30078ZM18.2666 6.30078H18.4489V4.48828H18.2666H18.0843V6.30078H18.2666ZM18.2666 4.48828L18.4489 4.48824C18.4487 3.685 17.7974 3.0338 16.9942 3.03353L16.9941 3.21582L16.9941 3.39811C17.596 3.39832 18.0842 3.88642 18.0843 4.48832L18.2666 4.48828ZM16.9941 3.21582V3.03353H14.7695V3.21582V3.39811H16.9941V3.21582ZM14.7695 3.21582H14.5872V3.95898H14.7695H14.9518V3.21582H14.7695ZM14.7695 3.95898L14.5872 3.95888C14.5871 4.27995 14.3272 4.54018 14.0067 4.54036L14.0068 4.72266L14.0069 4.90495C14.5292 4.90465 14.9515 4.48074 14.9518 3.95909L14.7695 3.95898ZM14.0068 4.72266V4.54036C13.6861 4.54036 13.4256 4.27989 13.4255 3.95888L13.2432 3.95898L13.0609 3.95909C13.0612 4.48108 13.4845 4.90495 14.0068 4.90495V4.72266ZM13.2432 3.95898H13.4255V3.21582H13.2432H13.0609V3.95898H13.2432ZM13.2432 3.21582V3.03353H6.73242V3.21582V3.39811H13.2432V3.21582ZM6.73242 3.21582H6.55013V3.95898H6.73242H6.91471V3.21582H6.73242ZM6.73242 3.95898L6.55013 3.95888C6.54995 4.27989 6.28953 4.54036 5.96875 4.54036V4.72266V4.90495C6.49109 4.90495 6.91441 4.48108 6.91471 3.95909L6.73242 3.95898ZM5.96875 4.72266L5.96876 4.54036C5.64799 4.54034 5.38755 4.27986 5.38737 3.95888L5.20508 3.95898L5.02279 3.95909C5.02309 4.48108 5.44644 4.90491 5.96874 4.90495L5.96875 4.72266ZM5.20508 3.95898H5.38737V3.21582H5.20508H5.02279V3.95898H5.20508ZM5.20508 3.21582V3.03353H2.98145V3.21582V3.39811H5.20508V3.21582Z" fill="#1B1B1B"/>
</svg>
