<svg width="19" height="21" viewBox="0 0 19 21" fill="none" xmlns="http://www.w3.org/2000/svg">
<path d="M6.57517 18.7389C7.25177 19.3289 8.14053 19.6868 9.11393 19.6868C10.0873 19.6868 10.9761 19.3289 11.6527 18.7389M14.8711 6.41602C14.8711 4.9076 14.2646 3.46096 13.1849 2.39435C12.1052 1.32773 10.6408 0.728516 9.11393 0.728516C7.58702 0.728516 6.12265 1.32773 5.04297 2.39435C3.96328 3.46096 3.35672 4.9076 3.35672 6.41602C3.35672 9.34525 2.60873 11.3508 1.77316 12.6774C1.06834 13.7964 0.715937 14.3559 0.728858 14.5119C0.743166 14.6848 0.780227 14.7507 0.921199 14.854C1.04851 14.9473 1.62244 14.9473 2.7703 14.9473H15.4576C16.6054 14.9473 17.1794 14.9473 17.3067 14.854C17.4476 14.7507 17.4847 14.6848 17.499 14.5119C17.5119 14.3559 17.1595 13.7964 16.4547 12.6774C15.6191 11.3508 14.8711 9.34525 14.8711 6.41602Z" stroke="#7D7D7D" stroke-width="1.45833" stroke-linecap="round" stroke-linejoin="round"/>
</svg>
