<svg width="76" height="15" viewBox="0 0 76 15" fill="none" xmlns="http://www.w3.org/2000/svg">
<path d="M24.0319 4.65253H21.8891C21.9715 3.1526 22.2847 1.80101 23.6528 0.943907C25.0208 0.103286 26.5208 -0.0945076 28.0866 0.0373546C28.9273 0.103286 29.7679 0.284598 30.5426 0.647219C31.9106 1.27356 32.5864 2.34494 32.5864 3.84488C32.5864 6.4986 32.5864 9.15233 32.5864 11.8061C32.5864 12.7785 32.7842 12.9598 33.7567 12.861C33.8556 12.8445 33.971 12.828 34.0699 12.8115C34.0864 12.8609 34.0864 12.9104 34.0864 12.9434V14.5587C33.3117 14.8224 32.5205 14.9048 31.7458 14.6905C31.1689 14.5257 30.8063 14.1136 30.6085 13.5697C30.5096 13.2895 30.4437 12.9928 30.3613 12.6796C30.2788 12.7785 30.2129 12.861 30.1305 12.9434C28.4328 14.6576 26.4219 15.3828 24.0484 14.773C22.3671 14.3444 21.2133 12.8115 21.1639 11.0643C21.1474 10.5039 21.1968 9.9435 21.3287 9.39957C21.6419 8.14688 22.5319 7.38867 23.6528 6.8777C24.4439 6.51508 25.3011 6.41619 26.1582 6.30081C27.1636 6.16894 28.1526 6.05357 29.158 5.90522C29.8338 5.80632 30.18 5.4437 30.2788 4.76791C30.4931 3.39984 29.8833 2.49329 28.5646 2.16364C27.7735 1.96584 26.9658 1.93288 26.1582 2.08122C24.9714 2.2955 24.3121 2.97129 24.0813 4.14157C24.0978 4.3064 24.0648 4.47122 24.0319 4.65253ZM30.3448 7.28977C29.3558 7.81722 28.3998 7.94909 27.4273 8.09743C26.6197 8.22929 25.7955 8.34467 25.0044 8.59192C23.9659 8.93805 23.4879 9.79516 23.5868 10.949C23.6693 11.905 24.3121 12.6796 25.3505 12.8445C26.9493 13.1082 28.3668 12.6632 29.4877 11.4764C29.8173 11.1303 30.0811 10.6358 30.147 10.1743C30.2953 9.25122 30.2788 8.3117 30.3448 7.28977ZM60.8873 10.0589C60.8379 10.2896 60.8049 10.4874 60.7555 10.6687C59.8325 13.4873 57.9534 14.6905 55.6788 14.9543C51.7394 15.3828 49.4813 12.8115 48.9044 10.0754C48.4429 7.89964 48.5088 5.74039 49.4648 3.69653C50.3713 1.76805 51.8218 0.498872 53.9811 0.119768C56.5689 -0.341749 60.228 0.943907 60.8379 4.98219C61.0027 6.0206 61.0357 7.09198 61.1346 8.17985H51.1131C51.1955 9.6633 51.4262 11.0478 52.5141 12.1192C52.9591 12.5643 53.536 12.7785 54.1624 12.8939C56.1898 13.2565 57.871 12.2841 58.5303 10.3226C58.5962 10.1083 58.6951 10.0424 58.9094 10.0589C59.5522 10.0589 60.1951 10.0589 60.8873 10.0589ZM51.1955 6.26784H58.6951C58.6127 5.39426 58.4644 4.5866 58.0523 3.82839C57.6567 3.10315 57.0798 2.5757 56.2887 2.31198C53.7009 1.42191 51.0307 3.48226 51.1955 6.26784ZM66.2772 14.4763H64.0026V0.334047H66.1618V2.31198C66.3267 2.13067 66.4256 2.01529 66.5245 1.89991C68.0738 0.136254 70.0188 -0.325265 72.2275 0.218666C73.7604 0.59777 74.6175 1.68563 74.9142 3.20205C75.0296 3.82839 75.112 4.47122 75.112 5.09757C75.1285 8.1304 75.1285 11.1632 75.1285 14.1961C75.1285 14.2785 75.112 14.3609 75.112 14.4598H72.7879V14.0807C72.7879 11.2456 72.8044 8.4106 72.7714 5.57557C72.7714 4.94922 72.6725 4.30639 72.4912 3.69653C72.1945 2.70757 71.4034 2.18012 70.3649 2.13067C68.4694 2.06474 66.9695 3.07018 66.508 4.75143C66.3432 5.36129 66.2937 6.00412 66.2937 6.64695C66.2772 9.13584 66.2772 11.6083 66.2772 14.0642V14.4763ZM36.2951 0.334047H38.4873V6.33377C38.6191 6.20191 38.7015 6.13598 38.784 6.05357C40.5806 4.22398 42.3772 2.37791 44.1738 0.548321C44.3222 0.383494 44.4705 0.317564 44.7013 0.317564C45.5419 0.334046 46.399 0.317564 47.322 0.317564C47.1902 0.449426 47.1242 0.531838 47.0418 0.614251C45.4595 2.1966 43.8936 3.79543 42.2948 5.36129C42.1135 5.5426 42.1135 5.65798 42.2289 5.85577C43.9595 8.6084 45.6738 11.361 47.388 14.1136C47.4539 14.2125 47.5033 14.3114 47.5858 14.4598C47.4704 14.4763 47.388 14.4763 47.2891 14.4763C46.4979 14.4763 45.7232 14.4763 44.932 14.4763C44.7178 14.4763 44.6189 14.3938 44.5035 14.229C43.1849 12.0203 41.8662 9.81164 40.5476 7.58647C40.4817 7.48757 40.4322 7.38867 40.3498 7.27329C39.74 7.88316 39.1466 8.46005 38.5532 9.06991C38.4708 9.15233 38.4543 9.30067 38.4543 9.41605C38.4543 10.9654 38.4543 12.5148 38.4543 14.0642V14.4598C38.0258 14.4598 37.5972 14.4598 37.1851 14.4598C36.8884 14.4598 36.4764 14.5422 36.3115 14.3774C36.1632 14.2455 36.2456 13.817 36.2456 13.5203V0.713149C36.2951 0.630735 36.2951 0.498875 36.2951 0.334047ZM10.994 0.317564C9.21387 2.08122 7.48318 3.81191 5.736 5.5426C7.61504 8.54247 9.44463 11.4764 11.3072 14.4763C11.1588 14.4763 11.0599 14.4927 10.961 14.4927C10.2028 14.4927 9.42814 14.4927 8.66994 14.4927C8.45566 14.4927 8.3238 14.4103 8.20842 14.229C6.8898 12.0203 5.57118 9.81164 4.25255 7.58647C4.20311 7.48757 4.13718 7.40516 4.05476 7.27329C3.72511 7.61943 3.42842 7.99854 3.0658 8.26226C2.32407 8.82267 2.1098 9.51495 2.15924 10.438C2.24166 11.6412 2.17573 12.861 2.17573 14.0642V14.4598H0V0.334047H2.17573V6.23488C2.22518 6.26784 2.27462 6.30081 2.30759 6.33377C2.37352 6.23488 2.40648 6.1195 2.47242 6.03709C4.25255 4.2075 6.04918 2.39439 7.82932 0.548321C7.99414 0.383494 8.14249 0.301081 8.38973 0.317564C9.13146 0.334046 9.87318 0.317564 10.6149 0.317564C10.7303 0.317564 10.8292 0.317564 10.994 0.317564ZM15.3455 2.6746C16.4498 1.05929 17.6201 -0.292297 19.7958 0.10329V2.52625C19.2189 2.55922 18.642 2.54274 18.0981 2.65812C16.763 2.93833 15.7246 4.15805 15.5103 5.6415C15.4773 5.93819 15.4444 6.23488 15.4444 6.53157C15.4444 9.05343 15.4444 11.5753 15.4444 14.0972V14.4927H13.2027V0.36701H15.3455C15.3455 1.10873 15.3455 1.85046 15.3455 2.6746Z" fill="white"/>
</svg>
