<svg width="21" height="20" viewBox="0 0 21 20" fill="none" xmlns="http://www.w3.org/2000/svg">
<path fill-rule="evenodd" clip-rule="evenodd" d="M0.181641 2.81941C0.181842 1.25958 1.47066 0.0601861 3.03516 0.191475L3.03418 0.192452C5.12256 0.361882 8.21288 1.3912 9.98633 2.49323H9.9873L10.2314 2.63972C10.2346 2.64078 10.2395 2.64125 10.2451 2.64265C10.2656 2.64772 10.2942 2.65144 10.3262 2.65144C10.3578 2.65139 10.3859 2.64767 10.4062 2.64265C10.4111 2.64147 10.416 2.64067 10.4189 2.63972L10.5674 2.54401L10.5762 2.53913C12.3491 1.42373 15.4588 0.38047 17.5498 0.201241L17.6143 0.198311H17.6709V0.199288C19.1996 0.105649 20.4693 1.27341 20.4697 2.82819V14.1514C20.4695 15.4308 19.4572 16.6044 18.1689 16.7657L18.166 16.7667L17.8643 16.8018L17.8652 16.8028C15.915 17.0623 12.854 18.074 11.1357 19.0225L11.1348 19.0216C10.8709 19.1699 10.5743 19.2226 10.3203 19.2227C10.0931 19.2227 9.83542 19.1815 9.59668 19.0723L9.4873 19.0176C9.47915 19.0136 9.47089 19.0093 9.46289 19.005C7.74389 18.0649 4.69029 17.0624 2.74805 16.8028H2.74512L2.47363 16.7647V16.7637C1.18966 16.5982 0.181834 15.4278 0.181641 14.1514V2.81941ZM2.90723 1.71296C2.2397 1.65708 1.70918 2.14724 1.70898 2.81941V14.1514C1.70918 14.6402 2.10537 15.1224 2.57715 15.2335L2.67188 15.251L2.68164 15.252L2.9541 15.2891H2.95312C4.85793 15.5442 7.64389 16.4218 9.55762 17.3409V4.00788C9.51629 3.98771 9.47545 3.96584 9.43555 3.94148V3.94343L9.20117 3.8028L9.19043 3.79597C7.62308 2.81858 4.75712 1.86362 2.91016 1.71394L2.90723 1.71296ZM17.7354 1.72273C17.7142 1.7245 17.6921 1.72564 17.6709 1.72566H17.6533C15.8041 1.891 12.949 2.85028 11.3896 3.83112L11.2383 3.92976C11.2344 3.93225 11.2295 3.93422 11.2256 3.93659C11.1801 3.96483 11.1323 3.98905 11.085 4.01179V17.3331C13.0005 16.4135 15.7664 15.5416 17.6641 15.2891L17.6729 15.2882L17.9824 15.2501C18.4935 15.1843 18.9431 14.6716 18.9434 14.1514V2.82819C18.9429 2.15439 18.4099 1.66649 17.7354 1.72273ZM7.04199 8.46296C7.46358 8.4631 7.80566 8.80501 7.80566 9.22663C7.80559 9.64819 7.46354 9.99016 7.04199 9.9903H4.22754C3.8059 9.99028 3.46395 9.64826 3.46387 9.22663C3.46387 8.80494 3.80585 8.46298 4.22754 8.46296H7.04199ZM6.33789 5.64851C6.7596 5.64851 7.10156 5.99047 7.10156 6.41218C7.10147 6.83381 6.75954 7.17585 6.33789 7.17585H4.22754C3.80591 7.17583 3.46396 6.8338 3.46387 6.41218C3.46387 5.99048 3.80585 5.64853 4.22754 5.64851H6.33789Z" fill="#7D7D7D"/>
<path d="M0.181641 2.81941L-0.000651047 2.81938V2.81941H0.181641ZM3.03516 0.191475L3.16406 0.320375C3.21423 0.270198 3.23073 0.195463 3.20634 0.128824C3.18196 0.062186 3.12111 0.0157563 3.0504 0.00982223L3.03516 0.191475ZM3.03418 0.192452L2.90528 0.0635523C2.85504 0.113794 2.83857 0.18865 2.86308 0.25534C2.88759 0.32203 2.94862 0.368401 3.01944 0.374147L3.03418 0.192452ZM9.98633 2.49323L9.89011 2.64807C9.919 2.66601 9.95232 2.67552 9.98633 2.67552V2.49323ZM9.9873 2.49323L10.0811 2.33692C10.0528 2.31992 10.0203 2.31094 9.9873 2.31094V2.49323ZM10.2314 2.63972L10.1377 2.79603C10.1489 2.80275 10.1608 2.80825 10.1731 2.81243L10.2314 2.63972ZM10.2451 2.64265L10.201 2.81952L10.2013 2.8196L10.2451 2.64265ZM10.3262 2.65144V2.83373L10.3265 2.83373L10.3262 2.65144ZM10.4062 2.64265L10.3631 2.46553L10.3626 2.46567L10.4062 2.64265ZM10.4189 2.63972L10.475 2.81318C10.49 2.80832 10.5044 2.80151 10.5177 2.79293L10.4189 2.63972ZM10.5674 2.54401L10.4787 2.38432L10.4686 2.39081L10.5674 2.54401ZM10.5762 2.53913L10.6648 2.69872L10.6732 2.69343L10.5762 2.53913ZM17.5498 0.201241L17.5415 0.018991L17.5342 0.0196153L17.5498 0.201241ZM17.6143 0.198311V0.0158315L17.606 0.0162077L17.6143 0.198311ZM17.6709 0.198311H17.8532C17.8532 0.0976344 17.7716 0.0160197 17.6709 0.0160197V0.198311ZM17.6709 0.199288H17.4886C17.4886 0.24957 17.5094 0.297619 17.546 0.33207C17.5826 0.36652 17.6319 0.384313 17.682 0.381239L17.6709 0.199288ZM20.4697 2.82819H20.652V2.82814L20.4697 2.82819ZM20.4697 14.1514L20.652 14.1515V14.1514H20.4697ZM18.1689 16.7657L18.1463 16.5848C18.1344 16.5863 18.1227 16.589 18.1113 16.5928L18.1689 16.7657ZM18.166 16.7667L18.1871 16.9477C18.1995 16.9463 18.2118 16.9436 18.2237 16.9396L18.166 16.7667ZM17.8643 16.8018L17.8432 16.6208C17.7737 16.6288 17.715 16.6759 17.6921 16.7419C17.6691 16.808 17.6859 16.8813 17.7354 16.9307L17.8643 16.8018ZM17.8652 16.8028L17.8893 16.9835C17.958 16.9744 18.0156 16.927 18.0379 16.8613C18.0601 16.7956 18.0432 16.7229 17.9941 16.6739L17.8652 16.8028ZM11.1357 19.0225L11.0068 19.1514C11.0643 19.2089 11.1527 19.2214 11.2238 19.1821L11.1357 19.0225ZM11.1348 19.0216L11.2637 18.8927C11.2059 18.8349 11.1167 18.8226 11.0454 18.8627L11.1348 19.0216ZM10.3203 19.2227V19.405H10.3204L10.3203 19.2227ZM9.59668 19.0723L9.51511 19.2355L9.5209 19.2381L9.59668 19.0723ZM9.4873 19.0176L9.40578 19.1807L9.40578 19.1807L9.4873 19.0176ZM9.46289 19.005L9.37542 19.1649L9.37558 19.165L9.46289 19.005ZM2.74805 16.8028L2.7722 16.6221C2.76419 16.621 2.75612 16.6205 2.74805 16.6205V16.8028ZM2.74512 16.8028L2.71979 16.9833C2.72818 16.9845 2.73664 16.9851 2.74512 16.9851V16.8028ZM2.47363 16.7647H2.29134C2.29134 16.8556 2.3583 16.9326 2.44831 16.9452L2.47363 16.7647ZM2.47363 16.7637H2.65592C2.65592 16.6721 2.58786 16.5947 2.49694 16.5829L2.47363 16.7637ZM0.181641 14.1514H-0.000651047V14.1515L0.181641 14.1514ZM2.90723 1.71296L2.96487 1.54002C2.95112 1.53544 2.93688 1.53251 2.92243 1.5313L2.90723 1.71296ZM1.70898 2.81941L1.52669 2.81935V2.81941H1.70898ZM1.70898 14.1514H1.52669L1.52669 14.1515L1.70898 14.1514ZM2.57715 15.2335L2.53532 15.4111L2.54389 15.4127L2.57715 15.2335ZM2.67188 15.251L2.63862 15.4303C2.64362 15.4312 2.64867 15.4319 2.65374 15.4324L2.67188 15.251ZM2.68164 15.252L2.70626 15.0713L2.69978 15.0706L2.68164 15.252ZM2.9541 15.2891V15.4714C3.04999 15.4714 3.12949 15.3971 3.13598 15.3015C3.14246 15.2058 3.07372 15.1214 2.9787 15.1085L2.9541 15.2891ZM2.95312 15.2891V15.1068C2.85715 15.1068 2.77762 15.1813 2.77124 15.277C2.76485 15.3728 2.83381 15.4571 2.92893 15.4698L2.95312 15.2891ZM9.55762 17.3409L9.4787 17.5052C9.53519 17.5323 9.60165 17.5286 9.65469 17.4952C9.70772 17.4618 9.73991 17.4036 9.73991 17.3409H9.55762ZM9.55762 4.00788H9.73991C9.73991 3.93821 9.7002 3.87463 9.63759 3.84407L9.55762 4.00788ZM9.43555 3.94148L9.53053 3.78589C9.47427 3.75154 9.40383 3.75024 9.34634 3.7825C9.28885 3.81476 9.25325 3.87555 9.25325 3.94148H9.43555ZM9.43555 3.94343L9.34176 4.09974C9.39807 4.13353 9.46821 4.13442 9.52536 4.10206C9.58251 4.0697 9.61784 4.0091 9.61784 3.94343H9.43555ZM9.20117 3.8028L9.10327 3.95665L9.10738 3.95912L9.20117 3.8028ZM9.19043 3.79597L9.2883 3.64217L9.28689 3.64129L9.19043 3.79597ZM2.91016 1.71394L2.85251 1.88687C2.86641 1.89151 2.88082 1.89445 2.89543 1.89563L2.91016 1.71394ZM17.7354 1.72273L17.7202 1.54106L17.7201 1.54107L17.7354 1.72273ZM17.6709 1.72566V1.90795L17.671 1.90795L17.6709 1.72566ZM17.6533 1.72566V1.54336C17.6479 1.54336 17.6425 1.54361 17.6371 1.54409L17.6533 1.72566ZM11.3896 3.83112L11.2926 3.6768L11.2901 3.6784L11.3896 3.83112ZM11.2383 3.92976L11.3373 4.0828L11.3378 4.08249L11.2383 3.92976ZM11.2256 3.93659L11.1317 3.7803L11.1295 3.78171L11.2256 3.93659ZM11.085 4.01179L11.0061 3.84745C10.9429 3.87778 10.9027 3.94168 10.9027 4.01179H11.085ZM11.085 17.3331H10.9027C10.9027 17.3957 10.9348 17.454 10.9879 17.4874C11.0409 17.5207 11.1074 17.5245 11.1638 17.4974L11.085 17.3331ZM17.6641 15.2891L17.6439 15.1079L17.64 15.1084L17.6641 15.2891ZM17.6729 15.2882L17.693 15.4693L17.6951 15.4691L17.6729 15.2882ZM17.9824 15.2501L18.0047 15.431L18.0057 15.4309L17.9824 15.2501ZM18.9434 14.1514L19.1257 14.1515V14.1514H18.9434ZM18.9434 2.82819H19.1257V2.82808L18.9434 2.82819ZM7.04199 8.46296L7.04205 8.28067H7.04199V8.46296ZM7.80566 9.22663L7.98796 9.22667V9.22663H7.80566ZM7.04199 9.9903V10.1726H7.04205L7.04199 9.9903ZM4.22754 9.9903L4.22753 10.1726H4.22754V9.9903ZM3.46387 9.22663H3.28158V9.22667L3.46387 9.22663ZM4.22754 8.46296V8.28067H4.22753L4.22754 8.46296ZM7.10156 6.41218L7.28385 6.41222V6.41218H7.10156ZM4.22754 7.17585L4.22753 7.35814H4.22754V7.17585ZM3.46387 6.41218H3.28158V6.41222L3.46387 6.41218ZM4.22754 5.64851V5.46622H4.22753L4.22754 5.64851ZM0.181641 2.81941L0.363932 2.81943C0.36412 1.36542 1.56259 0.250833 3.01991 0.373129L3.03516 0.191475L3.0504 0.00982223C1.37873 -0.130461 -0.00043653 1.15375 -0.000651047 2.81938L0.181641 2.81941ZM3.03516 0.191475L2.90626 0.0625757L2.90528 0.0635523L3.03418 0.192452L3.16308 0.321352L3.16406 0.320375L3.03516 0.191475ZM3.03418 0.192452L3.01944 0.374147C5.07849 0.541197 8.14094 1.56111 9.89011 2.64807L9.98633 2.49323L10.0825 2.3384C8.28483 1.22128 5.16664 0.182567 3.04892 0.0107573L3.03418 0.192452ZM9.98633 2.49323V2.67552H9.9873V2.49323V2.31094H9.98633V2.49323ZM9.9873 2.49323L9.89352 2.64955L10.1377 2.79603L10.2314 2.63972L10.3252 2.4834L10.0811 2.33692L9.9873 2.49323ZM10.2314 2.63972L10.1731 2.81243C10.183 2.81576 10.1913 2.81766 10.1954 2.81857C10.1997 2.8195 10.2036 2.82019 10.2046 2.82038C10.2083 2.82105 10.2049 2.82049 10.201 2.81952L10.2451 2.64265L10.2892 2.46577C10.2797 2.4634 10.2711 2.46191 10.2701 2.46173C10.2688 2.46149 10.2705 2.46178 10.2728 2.46228C10.275 2.46276 10.2815 2.4642 10.2898 2.46701L10.2314 2.63972ZM10.2451 2.64265L10.2013 2.8196C10.2379 2.82865 10.2814 2.83373 10.3262 2.83373V2.65144V2.46914C10.3171 2.46914 10.3089 2.46861 10.302 2.46783C10.2949 2.46702 10.2905 2.46608 10.2889 2.4657L10.2451 2.64265ZM10.3262 2.65144L10.3265 2.83373C10.3711 2.83366 10.4139 2.82853 10.4499 2.81962L10.4062 2.64265L10.3626 2.46567C10.3608 2.4661 10.3564 2.46702 10.3495 2.46782C10.3428 2.4686 10.3348 2.46913 10.3259 2.46914L10.3262 2.65144ZM10.4062 2.64265L10.4494 2.81976C10.4484 2.82 10.4479 2.82011 10.4482 2.82004C10.4492 2.81984 10.4488 2.81992 10.4511 2.81943C10.4525 2.81914 10.4554 2.81851 10.4588 2.81771C10.4619 2.81696 10.4679 2.81548 10.475 2.81318L10.4189 2.63972L10.3629 2.46625C10.3686 2.46443 10.3728 2.46341 10.374 2.46312C10.3755 2.46277 10.3763 2.46259 10.3755 2.46276C10.3751 2.46285 10.3749 2.4629 10.3741 2.46307C10.3734 2.46321 10.3725 2.4634 10.3715 2.46362C10.3695 2.46405 10.3665 2.4647 10.3631 2.46553L10.4062 2.64265ZM10.4189 2.63972L10.5177 2.79293L10.6662 2.69722L10.5674 2.54401L10.4686 2.39081L10.3202 2.48651L10.4189 2.63972ZM10.5674 2.54401L10.6559 2.70337L10.6647 2.69848L10.5762 2.53913L10.4876 2.37978L10.4789 2.38466L10.5674 2.54401ZM10.5762 2.53913L10.6732 2.69343C12.4216 1.59351 15.5033 0.559613 17.5654 0.382867L17.5498 0.201241L17.5342 0.0196153C15.4143 0.201326 12.2766 1.25396 10.4791 2.38484L10.5762 2.53913ZM17.5498 0.201241L17.5581 0.383345L17.6225 0.380415L17.6143 0.198311L17.606 0.0162077L17.5415 0.0191374L17.5498 0.201241ZM17.6143 0.198311V0.380603H17.6709V0.198311V0.0160197H17.6143V0.198311ZM17.6709 0.198311H17.4886V0.199288H17.6709H17.8532V0.198311H17.6709ZM17.6709 0.199288L17.682 0.381239C19.1073 0.293938 20.287 1.37986 20.2874 2.82825L20.4697 2.82819L20.652 2.82814C20.6516 1.16697 19.292 -0.0826409 17.6598 0.0173373L17.6709 0.199288ZM20.4697 2.82819H20.2874V14.1514H20.4697H20.652V2.82819H20.4697ZM20.4697 14.1514L20.2874 14.1514C20.2873 15.3403 19.3419 16.4351 18.1463 16.5848L18.1689 16.7657L18.1916 16.9466C19.5725 16.7737 20.6518 15.5213 20.652 14.1515L20.4697 14.1514ZM18.1689 16.7657L18.1113 16.5928L18.1084 16.5937L18.166 16.7667L18.2237 16.9396L18.2266 16.9386L18.1689 16.7657ZM18.166 16.7667L18.1449 16.5856L17.8432 16.6208L17.8643 16.8018L17.8854 16.9829L18.1871 16.9477L18.166 16.7667ZM17.8643 16.8018L17.7354 16.9307L17.7363 16.9317L17.8652 16.8028L17.9941 16.6739L17.9932 16.6729L17.8643 16.8018ZM17.8652 16.8028L17.8412 16.6221C15.8683 16.8846 12.7856 17.9035 11.0476 18.8629L11.1357 19.0225L11.2238 19.1821C12.9223 18.2445 15.9616 17.24 17.8893 16.9835L17.8652 16.8028ZM11.1357 19.0225L11.2646 18.8936L11.2637 18.8927L11.1348 19.0216L11.0059 19.1505L11.0068 19.1514L11.1357 19.0225ZM11.1348 19.0216L11.0454 18.8627C10.8153 18.9921 10.5514 19.0404 10.3203 19.0404L10.3203 19.2227L10.3204 19.405C10.5972 19.4049 10.9264 19.3478 11.2241 19.1805L11.1348 19.0216ZM10.3203 19.2227V19.0404C10.1137 19.0404 9.8828 19.0027 9.67246 18.9065L9.59668 19.0723L9.5209 19.2381C9.78805 19.3602 10.0726 19.405 10.3203 19.405V19.2227ZM9.59668 19.0723L9.6782 18.9093L9.56883 18.8546L9.4873 19.0176L9.40578 19.1807L9.51516 19.2354L9.59668 19.0723ZM9.4873 19.0176L9.56883 18.8546C9.5619 18.8511 9.55569 18.8479 9.5502 18.8449L9.46289 19.005L9.37558 19.165C9.38609 19.1707 9.39641 19.176 9.40578 19.1807L9.4873 19.0176ZM9.46289 19.005L9.55036 18.845C7.81178 17.8942 4.73672 16.8847 2.7722 16.6221L2.74805 16.8028L2.72389 16.9835C4.64385 17.2401 7.67601 18.2355 9.37542 19.1649L9.46289 19.005ZM2.74805 16.8028V16.6205H2.74512V16.8028V16.9851H2.74805V16.8028ZM2.74512 16.8028L2.77044 16.6223L2.49896 16.5842L2.47363 16.7647L2.44831 16.9452L2.71979 16.9833L2.74512 16.8028ZM2.47363 16.7647H2.65592V16.7637H2.47363H2.29134V16.7647H2.47363ZM2.47363 16.7637L2.49694 16.5829C1.30516 16.4293 0.364112 15.3375 0.363932 14.1514L0.181641 14.1514L-0.000651047 14.1515C-0.000443652 15.5182 1.07415 16.7671 2.45032 16.9445L2.47363 16.7637ZM0.181641 14.1514H0.363932V2.81941H0.181641H-0.000651047V14.1514H0.181641ZM2.90723 1.71296L2.92243 1.5313C2.14785 1.46646 1.52691 2.04132 1.52669 2.81935L1.70898 2.81941L1.89128 2.81946C1.89144 2.25317 2.33156 1.8477 2.89202 1.89462L2.90723 1.71296ZM1.70898 2.81941H1.52669V14.1514H1.70898H1.89128V2.81941H1.70898ZM1.70898 14.1514L1.52669 14.1515C1.52693 14.7279 1.98426 15.2811 2.53536 15.4109L2.57715 15.2335L2.61893 15.056C2.22647 14.9636 1.89144 14.5525 1.89128 14.1514L1.70898 14.1514ZM2.57715 15.2335L2.54389 15.4127L2.63862 15.4303L2.67188 15.251L2.70513 15.0718L2.61041 15.0542L2.57715 15.2335ZM2.67188 15.251L2.65374 15.4324L2.6635 15.4334L2.68164 15.252L2.69978 15.0706L2.69001 15.0697L2.67188 15.251ZM2.68164 15.252L2.65704 15.4326L2.9295 15.4698L2.9541 15.2891L2.9787 15.1085L2.70624 15.0714L2.68164 15.252ZM2.9541 15.2891V15.1068H2.95312V15.2891V15.4714H2.9541V15.2891ZM2.95312 15.2891L2.92893 15.4698C4.81194 15.7219 7.57948 16.5931 9.4787 17.5052L9.55762 17.3409L9.63653 17.1766C7.70829 16.2505 4.90392 15.3664 2.97732 15.1085L2.95312 15.2891ZM9.55762 17.3409H9.73991V4.00788H9.55762H9.37533V17.3409H9.55762ZM9.55762 4.00788L9.63759 3.84407C9.60035 3.82589 9.56467 3.80672 9.53053 3.78589L9.43555 3.94148L9.34056 4.09706C9.38624 4.12495 9.43223 4.14953 9.47765 4.1717L9.55762 4.00788ZM9.43555 3.94148H9.25325V3.94343H9.43555H9.61784V3.94148H9.43555ZM9.43555 3.94343L9.52934 3.78711L9.29496 3.64649L9.20117 3.8028L9.10738 3.95912L9.34176 4.09974L9.43555 3.94343ZM9.20117 3.8028L9.29904 3.64901L9.2883 3.64218L9.19043 3.79597L9.09256 3.94976L9.1033 3.9566L9.20117 3.8028ZM9.19043 3.79597L9.28689 3.64129C8.48678 3.14234 7.36389 2.65384 6.21259 2.27156C5.06135 1.88929 3.86799 1.60867 2.92488 1.53224L2.91016 1.71394L2.89543 1.89563C3.79929 1.96888 4.96239 2.24059 6.0977 2.61756C7.23296 2.99453 8.32673 3.4722 9.09397 3.95065L9.19043 3.79597ZM2.91016 1.71394L2.9678 1.541L2.96487 1.54002L2.90723 1.71296L2.84958 1.8859L2.85251 1.88687L2.91016 1.71394ZM17.7354 1.72273L17.7201 1.54107C17.7028 1.54253 17.6859 1.54335 17.6708 1.54336L17.6709 1.72566L17.671 1.90795C17.6984 1.90793 17.7257 1.90647 17.7506 1.90438L17.7354 1.72273ZM17.6709 1.72566V1.54336H17.6533V1.72566V1.90795H17.6709V1.72566ZM17.6533 1.72566L17.6371 1.54409C16.6934 1.62847 15.5025 1.91401 14.3547 2.29978C13.2069 2.68554 12.0887 3.17604 11.2926 3.67682L11.3896 3.83112L11.4867 3.98543C12.2499 3.50537 13.3389 3.02581 14.4708 2.64537C15.6027 2.26496 16.764 1.98819 17.6696 1.90722L17.6533 1.72566ZM11.3896 3.83112L11.2901 3.6784L11.1388 3.77703L11.2383 3.92976L11.3378 4.08249L11.4892 3.98385L11.3896 3.83112ZM11.2383 3.92976L11.1392 3.77671C11.1437 3.77385 11.1471 3.77193 11.1487 3.77107C11.1503 3.77025 11.1513 3.76976 11.1503 3.77022C11.1502 3.77032 11.1473 3.77172 11.1448 3.77306C11.1419 3.77454 11.1372 3.77703 11.1317 3.78032L11.2256 3.93659L11.3194 4.09286C11.3159 4.09497 11.3133 4.09633 11.3126 4.0967C11.3122 4.09692 11.3116 4.09722 11.3136 4.09622C11.3149 4.09559 11.3181 4.09399 11.3217 4.09202C11.3254 4.09001 11.331 4.08691 11.3373 4.0828L11.2383 3.92976ZM11.2256 3.93659L11.1295 3.78171C11.0923 3.80475 11.0515 3.82563 11.0061 3.84745L11.085 4.01179L11.1638 4.17613C11.2131 4.15248 11.2678 4.12492 11.3217 4.09148L11.2256 3.93659ZM11.085 4.01179H10.9027V17.3331H11.085H11.2673V4.01179H11.085ZM11.085 17.3331L11.1638 17.4974C13.065 16.5848 15.8124 15.7194 17.6881 15.4698L17.6641 15.2891L17.64 15.1084C15.7204 15.3638 12.936 16.2423 11.0061 17.1687L11.085 17.3331ZM17.6641 15.2891L17.6842 15.4703L17.693 15.4693L17.6729 15.2882L17.6527 15.107L17.6439 15.108L17.6641 15.2891ZM17.6729 15.2882L17.6951 15.4691L18.0047 15.431L17.9824 15.2501L17.9602 15.0691L17.6506 15.1072L17.6729 15.2882ZM17.9824 15.2501L18.0057 15.4309C18.313 15.3913 18.5916 15.2197 18.7916 14.9912C18.9917 14.7626 19.1255 14.4632 19.1257 14.1515L18.9434 14.1514L18.7611 14.1514C18.761 14.3599 18.6698 14.5768 18.5173 14.7511C18.3647 14.9254 18.1629 15.043 17.9591 15.0693L17.9824 15.2501ZM18.9434 14.1514H19.1257V2.82819H18.9434H18.7611V14.1514H18.9434ZM18.9434 2.82819L19.1257 2.82808C19.1252 2.04683 18.5001 1.47604 17.7202 1.54106L17.7354 1.72273L17.7505 1.90439C18.3196 1.85694 18.7607 2.26196 18.7611 2.82831L18.9434 2.82819ZM7.04199 8.46296L7.04193 8.64525C7.36295 8.64536 7.62337 8.90575 7.62337 9.22663H7.80566H7.98796C7.98796 8.70427 7.56421 8.28084 7.04205 8.28067L7.04199 8.46296ZM7.80566 9.22663L7.62337 9.2266C7.62331 9.54748 7.36287 9.80791 7.04193 9.80801L7.04199 9.9903L7.04205 10.1726C7.5642 10.1724 7.98786 9.7489 7.98796 9.22667L7.80566 9.22663ZM7.04199 9.9903V9.80801H4.22754V9.9903V10.1726H7.04199V9.9903ZM4.22754 9.9903L4.22755 9.80801C3.9066 9.80799 3.64622 9.5476 3.64616 9.2266L3.46387 9.22663L3.28158 9.22667C3.28167 9.74892 3.70519 10.1726 4.22753 10.1726L4.22754 9.9903ZM3.46387 9.22663H3.64616C3.64616 8.90562 3.90652 8.64527 4.22755 8.64525L4.22754 8.46296L4.22753 8.28067C3.70518 8.28069 3.28158 8.70425 3.28158 9.22663H3.46387ZM4.22754 8.46296V8.64525H7.04199V8.46296V8.28067H4.22754V8.46296ZM6.33789 5.64851V5.8308C6.65892 5.8308 6.91927 6.09115 6.91927 6.41218H7.10156H7.28385C7.28385 5.88979 6.86028 5.46622 6.33789 5.46622V5.64851ZM7.10156 6.41218L6.91927 6.41214C6.9192 6.73316 6.65883 6.99356 6.33789 6.99356V7.17585V7.35814C6.86026 7.35814 7.28374 6.93445 7.28385 6.41222L7.10156 6.41218ZM6.33789 7.17585V6.99356H4.22754V7.17585V7.35814H6.33789V7.17585ZM4.22754 7.17585L4.22755 6.99356C3.90662 6.99354 3.64623 6.73314 3.64616 6.41214L3.46387 6.41218L3.28158 6.41222C3.28169 6.93445 3.7052 7.35811 4.22753 7.35814L4.22754 7.17585ZM3.46387 6.41218H3.64616C3.64616 6.09117 3.90652 5.83082 4.22755 5.8308L4.22754 5.64851L4.22753 5.46622C3.70518 5.46624 3.28158 5.8898 3.28158 6.41218H3.46387ZM4.22754 5.64851V5.8308H6.33789V5.64851V5.46622H4.22754V5.64851Z" fill="#1B1B1B"/>
</svg>
