<svg width="44" height="44" viewBox="0 0 44 44" fill="none" xmlns="http://www.w3.org/2000/svg">
<rect width="44" height="44" rx="22" fill="#1A1A1A"/>
<g clip-path="url(#clip0_2366_4170)">
<path d="M21.1562 12.25C26.6274 12.25 31.0633 16.6851 31.0635 22.1562C31.0635 23.4347 30.6444 24.9226 30.0264 26.2588C29.5418 27.3062 28.9074 28.3162 28.1934 29.0996L33.0029 33.4434C33.3102 33.721 33.3343 34.1956 33.0566 34.5029C32.779 34.8102 32.3044 34.8343 31.9971 34.5566L27.0684 30.1035C25.4181 31.333 23.372 32.0635 21.1562 32.0635C15.6851 32.0633 11.25 27.6274 11.25 22.1562C11.2502 16.6853 15.6853 12.2502 21.1562 12.25Z" stroke="white" stroke-width="1.5" stroke-linecap="round"/>
</g>
<defs>
<clipPath id="clip0_2366_4170">
<rect width="24" height="24" fill="white" transform="translate(10 11)"/>
</clipPath>
</defs>
</svg>
