<svg width="44" height="44" viewBox="0 0 44 44" fill="none" xmlns="http://www.w3.org/2000/svg">
<rect width="44" height="44" rx="22" fill="#1A1A1A"/>
<path fill-rule="evenodd" clip-rule="evenodd" d="M12 23C12 23.3853 12.3124 23.6977 12.6977 23.6977H14.5904C14.9208 27.2509 17.7491 30.0792 21.3023 30.4096V32.3023C21.3023 32.6876 21.6147 33 22 33C22.3853 33 22.6977 32.6876 22.6977 32.3023V30.4096C26.2509 30.0792 29.0792 27.2509 29.4096 23.6977H31.3023C31.6876 23.6977 32 23.3853 32 23C32 22.6147 31.6876 22.3023 31.3023 22.3023H29.4096C29.0792 18.7491 26.2509 15.9208 22.6977 15.5904V13.6977C22.6977 13.3124 22.3853 13 22 13C21.6147 13 21.3023 13.3124 21.3023 13.6977V15.5904C17.7491 15.9208 14.9208 18.7491 14.5904 22.3023H12.6977C12.3124 22.3023 12 22.6147 12 23ZM18.5116 23C18.5116 21.0734 20.0734 19.5116 22 19.5116C23.9266 19.5116 25.4884 21.0734 25.4884 23C25.4884 24.9266 23.9266 26.4884 22 26.4884C20.0734 26.4884 18.5116 24.9266 18.5116 23Z" fill="white"/>
<path d="M19.907 23C19.907 21.8441 20.8441 20.907 22 20.907C23.1559 20.907 24.093 21.8441 24.093 23C24.093 24.1559 23.1559 25.093 22 25.093C20.8441 25.093 19.907 24.1559 19.907 23Z" fill="white"/>
</svg>
