<svg width="44" height="44" viewBox="0 0 44 44" fill="none" xmlns="http://www.w3.org/2000/svg">
<rect width="44" height="44" rx="22" fill="#1A1A1A"/>
<path fill-rule="evenodd" clip-rule="evenodd" d="M22.052 12.25H21.948C21.0495 12.25 20.3003 12.2499 19.7055 12.3299C19.0777 12.4143 18.5109 12.6 18.0555 13.0555C17.6 13.5109 17.4143 14.0777 17.3299 14.7055C17.2726 15.1319 17.2564 16.1515 17.2518 17.0257C15.2295 17.0917 14.0154 17.3278 13.1716 18.1716C12 19.3431 12 21.2288 12 25C12 28.7712 12 30.6569 13.1716 31.8284C14.3431 33 16.2288 33 20 33H24C27.7712 33 29.6569 33 30.8284 31.8284C32 30.6569 32 28.7712 32 25C32 21.2288 32 19.3431 30.8284 18.1716C29.9846 17.3278 28.7705 17.0917 26.7482 17.0257C26.7436 16.1515 26.7274 15.1319 26.6701 14.7055C26.5857 14.0777 26.4 13.5109 25.9445 13.0555C25.4891 12.6 24.9223 12.4143 24.2945 12.3299C23.6997 12.2499 22.9505 12.25 22.052 12.25ZM25.2479 17.0019C25.2434 16.1552 25.229 15.2441 25.1835 14.9054C25.1214 14.4439 25.0142 14.2464 24.8839 14.1161C24.7536 13.9858 24.5561 13.8786 24.0946 13.8165C23.6116 13.7516 22.964 13.75 22 13.75C21.036 13.75 20.3884 13.7516 19.9054 13.8165C19.4439 13.8786 19.2464 13.9858 19.1161 14.1161C18.9858 14.2464 18.8786 14.4439 18.8165 14.9054C18.771 15.2441 18.7566 16.1552 18.7521 17.0019C19.1435 17 19.5588 17 20 17H24C24.4412 17 24.8565 17 25.2479 17.0019ZM22 20.25C22.4142 20.25 22.75 20.5858 22.75 21V21.0102C23.8388 21.2845 24.75 22.143 24.75 23.3333C24.75 23.7475 24.4142 24.0833 24 24.0833C23.5858 24.0833 23.25 23.7475 23.25 23.3333C23.25 22.9493 22.8242 22.4167 22 22.4167C21.1758 22.4167 20.75 22.9493 20.75 23.3333C20.75 23.7174 21.1758 24.25 22 24.25C23.3849 24.25 24.75 25.2098 24.75 26.6667C24.75 27.857 23.8388 28.7155 22.75 28.9898V29C22.75 29.4142 22.4142 29.75 22 29.75C21.5858 29.75 21.25 29.4142 21.25 29V28.9898C20.1612 28.7155 19.25 27.857 19.25 26.6667C19.25 26.2525 19.5858 25.9167 20 25.9167C20.4142 25.9167 20.75 26.2525 20.75 26.6667C20.75 27.0507 21.1758 27.5833 22 27.5833C22.8242 27.5833 23.25 27.0507 23.25 26.6667C23.25 26.2826 22.8242 25.75 22 25.75C20.6151 25.75 19.25 24.7903 19.25 23.3333C19.25 22.143 20.1612 21.2845 21.25 21.0102V21C21.25 20.5858 21.5858 20.25 22 20.25Z" fill="white"/>
</svg>
