<svg width="44" height="44" viewBox="0 0 44 44" fill="none" xmlns="http://www.w3.org/2000/svg">
<rect width="44" height="44" rx="22" fill="#1A1A1A"/>
<path d="M26 18.5C26 20.433 24.433 22 22.5 22C20.567 22 19 20.433 19 18.5C19 16.567 20.567 15 22.5 15C24.433 15 26 16.567 26 18.5Z" fill="white"/>
<path d="M28 27.5C28 29.433 25.3137 31 22 31C18.6863 31 16 29.433 16 27.5C16 25.567 18.6863 24 22 24C25.3137 24 28 25.567 28 27.5Z" fill="white"/>
<path d="M17.4489 16C17.6377 16 17.822 16.0174 18 16.0506C17.5664 16.7752 17.3191 17.6117 17.3191 18.5025C17.3191 19.3716 17.5545 20.189 17.9687 20.9013C17.8004 20.9308 17.6267 20.9462 17.4489 20.9462C15.9443 20.9462 14.7245 19.839 14.7245 18.4731C14.7245 17.1072 15.9443 16 17.4489 16Z" fill="white"/>
<path d="M15.6673 30C15.0632 29.3204 14.6595 28.4865 14.6595 27.5115C14.6595 26.5664 15.0389 25.7538 15.6125 25.0858C13.5863 25.2337 12 26.2765 12 27.541C12 28.8173 13.6141 29.8677 15.6673 30Z" fill="white"/>
<path d="M26.6809 18.5025C26.6809 19.3716 26.4455 20.189 26.0313 20.9013C26.1996 20.9308 26.3733 20.9462 26.5511 20.9462C28.0557 20.9462 29.2755 19.839 29.2755 18.4731C29.2755 17.1072 28.0557 16 26.5511 16C26.3623 16 26.178 16.0174 26 16.0506C26.4336 16.7752 26.6809 17.6117 26.6809 18.5025Z" fill="white"/>
<path d="M28.3327 30C30.3859 29.8677 32 28.8173 32 27.541C32 26.2765 30.4137 25.2337 28.3875 25.0858C28.9611 25.7538 29.3405 26.5664 29.3405 27.5115C29.3405 28.4865 28.9368 29.3204 28.3327 30Z" fill="white"/>
</svg>
