<svg width="24" height="24" viewBox="0 0 24 24" fill="none" xmlns="http://www.w3.org/2000/svg">
<path fill-rule="evenodd" clip-rule="evenodd" d="M20 9.03475C20 11.8154 17.7366 14.0695 14.9446 14.0695C14.4351 14.0695 13.2751 13.9524 12.7108 13.4841L12.0054 14.1866C11.5906 14.5997 11.7026 14.7213 11.8871 14.9216C11.9641 15.0052 12.0537 15.1025 12.1229 15.2404C12.1229 15.2404 12.7108 16.06 12.1229 16.8796C11.7702 17.3479 10.7827 18.0036 9.65403 16.8796L9.4189 17.1138C9.4189 17.1138 10.1243 17.9334 9.53646 18.753C9.18376 19.2213 8.24322 19.6897 7.42025 18.8701L6.59728 19.6897C6.03295 20.2517 5.34324 19.9239 5.06893 19.6897L4.36352 18.9872C3.70515 18.3315 4.0892 17.6211 4.36352 17.3479L10.477 11.2594C10.477 11.2594 9.8892 10.3227 9.8892 9.03475C9.8892 6.25413 12.1526 4 14.9446 4C17.7366 4 20 6.25413 20 9.03475ZM14.9448 10.7911C15.9187 10.7911 16.7083 10.0048 16.7083 9.03482C16.7083 8.06484 15.9187 7.27852 14.9448 7.27852C13.9708 7.27852 13.1813 8.06484 13.1813 9.03482C13.1813 10.0048 13.9708 10.7911 14.9448 10.7911Z" fill="white"/>
</svg>
