<svg width="24" height="24" viewBox="0 0 24 24" fill="none" xmlns="http://www.w3.org/2000/svg">
<path fill-rule="evenodd" clip-rule="evenodd" d="M5.925 10.0621V8.18072C5.925 4.7672 8.64487 2 12 2C15.3551 2 18.075 4.7672 18.075 8.18072V10.0621C19.0783 10.1383 19.7316 10.3307 20.2092 10.8166C21 11.6212 21 12.9161 21 15.506C21 18.0959 21 19.3909 20.2092 20.1954C19.4184 21 18.1456 21 15.6 21H8.4C5.85442 21 4.58162 21 3.79081 20.1954C3 19.3909 3 18.0959 3 15.506C3 12.9161 3 11.6212 3.79081 10.8166C4.26838 10.3307 4.92172 10.1383 5.925 10.0621ZM7.275 8.18072C7.275 5.52576 9.39045 3.37349 12 3.37349C14.6095 3.37349 16.725 5.52576 16.725 8.18072V10.0153C16.3803 10.012 16.0064 10.012 15.6 10.012H8.4C7.99364 10.012 7.61971 10.012 7.275 10.0153V8.18072ZM13.8 15.506C13.8 16.5174 12.9941 17.3373 12 17.3373C11.0059 17.3373 10.2 16.5174 10.2 15.506C10.2 14.4946 11.0059 13.6747 12 13.6747C12.9941 13.6747 13.8 14.4946 13.8 15.506Z" fill="white"/>
</svg>
