<svg width="64" height="64" viewBox="0 0 64 64" fill="none" xmlns="http://www.w3.org/2000/svg">
<rect x="1" y="1" width="62" height="62" rx="15" fill="#060606"/>
<rect x="1" y="1" width="62" height="62" rx="15" stroke="#1A1A1A" stroke-width="2"/>
<path d="M24 31C23.4477 31 23 31.4477 23 32C23 32.5523 23.4477 33 24 33V32V31ZM40.7071 32.7071C41.0976 32.3166 41.0976 31.6834 40.7071 31.2929L34.3431 24.9289C33.9526 24.5384 33.3195 24.5384 32.9289 24.9289C32.5384 25.3195 32.5384 25.9526 32.9289 26.3431L38.5858 32L32.9289 37.6569C32.5384 38.0474 32.5384 38.6805 32.9289 39.0711C33.3195 39.4616 33.9526 39.4616 34.3431 39.0711L40.7071 32.7071ZM24 32V33H40V32V31H24V32Z" fill="white"/>
</svg>
