<svg width="24" height="24" viewBox="0 0 24 24" fill="none" xmlns="http://www.w3.org/2000/svg">
<path d="M16 7.5C16 9.433 14.433 11 12.5 11C10.567 11 9 9.433 9 7.5C9 5.567 10.567 4 12.5 4C14.433 4 16 5.567 16 7.5Z" fill="white"/>
<path d="M18 16.5C18 18.433 15.3137 20 12 20C8.68629 20 6 18.433 6 16.5C6 14.567 8.68629 13 12 13C15.3137 13 18 14.567 18 16.5Z" fill="white"/>
<path d="M7.44894 5C7.63772 5 7.82203 5.01743 8 5.05061C7.56643 5.77523 7.3191 6.61169 7.3191 7.50251C7.3191 8.37163 7.55453 9.18902 7.96866 9.90127C7.80042 9.93077 7.62667 9.94622 7.44894 9.94622C5.94425 9.94622 4.72447 8.83897 4.72447 7.47311C4.72447 6.10725 5.94425 5 7.44894 5Z" fill="white"/>
<path d="M5.66734 19C5.06318 18.3204 4.65955 17.4865 4.65955 16.5115C4.65955 15.5664 5.03888 14.7538 5.6125 14.0858C3.58626 14.2337 2 15.2765 2 16.541C2 17.8173 3.61414 18.8677 5.66734 19Z" fill="white"/>
<path d="M16.6809 7.50251C16.6809 8.37163 16.4455 9.18902 16.0313 9.90128C16.1996 9.93077 16.3733 9.94622 16.5511 9.94622C18.0557 9.94622 19.2755 8.83897 19.2755 7.47311C19.2755 6.10725 18.0557 5 16.5511 5C16.3623 5 16.178 5.01743 16 5.05061C16.4336 5.77523 16.6809 6.61169 16.6809 7.50251Z" fill="white"/>
<path d="M18.3327 19C20.3859 18.8677 22 17.8173 22 16.541C22 15.2765 20.4137 14.2337 18.3875 14.0858C18.9611 14.7538 19.3405 15.5664 19.3405 16.5115C19.3405 17.4865 18.9368 18.3204 18.3327 19Z" fill="white"/>
</svg>
