<svg width="44" height="44" viewBox="0 0 44 44" fill="none" xmlns="http://www.w3.org/2000/svg">
<rect width="44" height="44" rx="22" fill="#1A1A1A"/>
<path fill-rule="evenodd" clip-rule="evenodd" d="M13.5155 26.7248C13.787 26.7062 14.1339 26.7059 14.6316 26.7059H29.3684C29.8661 26.7059 30.213 26.7062 30.4845 26.7248C30.7513 26.7431 30.9067 26.7774 31.0253 26.8268C31.4122 26.988 31.7196 27.2972 31.8798 27.6863C31.9289 27.8056 31.963 27.9619 31.9812 28.2303C31.9997 28.5034 32 28.8523 32 29.3529C32 29.8535 31.9997 30.2025 31.9812 30.4756C31.963 30.744 31.9289 30.9002 31.8798 31.0196C31.7196 31.4087 31.4122 31.7179 31.0253 31.8791C30.9067 31.9285 30.7513 31.9628 30.4845 31.9811C30.213 31.9997 29.8661 32 29.3684 32H14.6316C14.1339 32 13.787 31.9997 13.5155 31.9811C13.2487 31.9628 13.0933 31.9285 12.9747 31.8791C12.5878 31.7179 12.2804 31.4087 12.1202 31.0196C12.0711 30.9002 12.037 30.744 12.0188 30.4756C12.0003 30.2025 12 29.8535 12 29.3529C12 28.8523 12.0003 28.5034 12.0188 28.2303C12.037 27.9619 12.0711 27.8056 12.1202 27.6863C12.2804 27.2972 12.5878 26.988 12.9747 26.8268C13.0933 26.7774 13.2487 26.7431 13.5155 26.7248ZM14.6316 30.4118C15.2129 30.4118 15.6842 29.9377 15.6842 29.3529C15.6842 28.7682 15.2129 28.2941 14.6316 28.2941C14.0502 28.2941 13.5789 28.7682 13.5789 29.3529C13.5789 29.9377 14.0502 30.4118 14.6316 30.4118Z" fill="white"/>
<path fill-rule="evenodd" clip-rule="evenodd" d="M14.6316 19.2941C14.1339 19.2941 13.787 19.2938 13.5155 19.2752C13.2487 19.2569 13.0933 19.2226 12.9747 19.1732C12.5878 19.012 12.2804 18.7028 12.1202 18.3137C12.0711 18.1944 12.037 18.0381 12.0188 17.7697C12.0003 17.4966 12 17.1477 12 16.6471C12 16.1465 12.0003 15.7975 12.0188 15.5244C12.037 15.256 12.0711 15.0998 12.1202 14.9804C12.2804 14.5913 12.5878 14.2821 12.9747 14.1209C13.0933 14.0715 13.2487 14.0372 13.5155 14.0189C13.787 14.0003 14.1339 14 14.6316 14H29.3684C29.8661 14 30.213 14.0003 30.4845 14.0189C30.7513 14.0372 30.9067 14.0715 31.0253 14.1209C31.4122 14.2821 31.7196 14.5913 31.8798 14.9804C31.9289 15.0998 31.963 15.256 31.9812 15.5244C31.9997 15.7975 32 16.1465 32 16.6471C32 17.1477 31.9997 17.4966 31.9812 17.7697C31.963 18.0381 31.9289 18.1944 31.8798 18.3137C31.7196 18.7028 31.4122 19.012 31.0253 19.1732C30.9067 19.2226 30.7513 19.2569 30.4845 19.2752C30.213 19.2938 29.8661 19.2941 29.3684 19.2941H14.6316ZM14.6316 20.3529C14.1339 20.3529 13.787 20.3532 13.5155 20.3719C13.2487 20.3902 13.0933 20.4244 12.9747 20.4738C12.5878 20.635 12.2804 20.9442 12.1202 21.3334C12.0711 21.4527 12.037 21.609 12.0188 21.8774C12.0003 22.1505 12 22.4994 12 23C12 23.5006 12.0003 23.8495 12.0188 24.1226C12.037 24.391 12.0711 24.5473 12.1202 24.6666C12.2804 25.0558 12.5878 25.365 12.9747 25.5262C13.0933 25.5756 13.2487 25.6098 13.5155 25.6281C13.787 25.6468 14.1339 25.6471 14.6316 25.6471H29.3684C29.8661 25.6471 30.213 25.6468 30.4845 25.6281C30.7513 25.6098 30.9067 25.5756 31.0253 25.5262C31.4122 25.365 31.7196 25.0558 31.8798 24.6666C31.9289 24.5473 31.963 24.391 31.9812 24.1226C31.9997 23.8495 32 23.5006 32 23C32 22.4994 31.9997 22.1505 31.9812 21.8774C31.963 21.609 31.9289 21.4527 31.8798 21.3334C31.7196 20.9442 31.4122 20.635 31.0253 20.4738C30.9067 20.4244 30.7513 20.3902 30.4845 20.3719C30.213 20.3532 29.8661 20.3529 29.3684 20.3529H14.6316ZM15.6842 23C15.6842 23.5848 15.2129 24.0588 14.6316 24.0588C14.0502 24.0588 13.5789 23.5848 13.5789 23C13.5789 22.4152 14.0502 21.9412 14.6316 21.9412C15.2129 21.9412 15.6842 22.4152 15.6842 23ZM14.6316 17.7059C15.2129 17.7059 15.6842 17.2318 15.6842 16.6471C15.6842 16.0623 15.2129 15.5882 14.6316 15.5882C14.0502 15.5882 13.5789 16.0623 13.5789 16.6471C13.5789 17.2318 14.0502 17.7059 14.6316 17.7059Z" fill="white"/>
</svg>
