<svg preserveAspectRatio="none" width="100%" height="100%" overflow="visible" style="display: block;" viewBox="0 0 155 24" fill="none" xmlns="http://www.w3.org/2000/svg">
<g id="Group 2087335783">
<path id="Vector" d="M54.6588 0H49.2405L43.5224 7.98486L37.7905 0H32.3343L40.8098 11.7589L32 24H37.4562L43.519 15.5329L49.5817 24H55L46.2246 11.7589" fill="var(--fill-0, white)"/>
<path id="Vector_2" d="M68.6292 13.9857H79.9297V9.74181H68.6292V4.2579H81.8278V0H64V24H82V19.7561H68.6292" fill="var(--fill-0, white)"/>
<path id="Vector_3" d="M128 0H123V24H128V0Z" fill="var(--fill-0, white)"/>
<path id="Vector_4" d="M142.68 0H138V24H155V19.7542H142.68" fill="var(--fill-0, white)"/>
<path id="Vector_5" d="M0 24H4.76212L8.38451 16.6245L12.0069 9.26646L17.3544 20.1936L19.2207 23.9721H24L12.0034 0L0 24Z" fill="var(--fill-0, white)"/>
<path id="Vector_6" d="M105.605 7.33139L101.953 14.7012L96.6313 3.78451L94.7642 0H90L102.002 24L114 0H109.229L105.605 7.33139Z" fill="var(--fill-0, white)"/>
<path id="Vector_7" d="M149.799 2.99599H150.201V0.516689H151V0H149V0.516689H149.799V3V2.99599Z" fill="var(--fill-0, white)"/>
<path id="Vector_8" d="M154.527 0L153.498 2.06676L152.47 0H152V3H152.47V0.929239L153.313 2.68758H153.594L154.53 0.929239V2.99599H155V0H154.53H154.527Z" fill="var(--fill-0, white)"/>
</g>
</svg>
