<svg width="120" height="120" viewBox="0 0 120 120" fill="none" xmlns="http://www.w3.org/2000/svg">
<g filter="url(#filter0_i_811_8723)">
<path fill-rule="evenodd" clip-rule="evenodd" d="M10.1367 56.25C12.0543 30.3873 33.6454 10 59.9982 10C55.8439 10 52.1451 11.821 49.1022 14.6056C46.0746 17.3763 43.5161 21.2439 41.4467 25.8158C39.3651 30.4146 37.7482 35.7934 36.6538 41.6306C35.7766 46.3097 35.2427 51.2426 35.0647 56.25H10.1367ZM10.1367 63.75H35.0647C35.2427 68.7574 35.7766 73.6903 36.6538 78.3694C37.7482 84.2066 39.3651 89.5854 41.4467 94.1842C43.5161 98.7561 46.0746 102.624 49.1022 105.394C52.1451 108.179 55.8439 110 59.9982 110C33.6454 110 12.0543 89.6128 10.1367 63.75Z" fill="white"/>
<path d="M59.9982 16.9767C58.6232 16.9767 56.8468 17.5618 54.7812 19.4521C52.7004 21.3563 50.6173 24.3407 48.7768 28.4069C46.9485 32.446 45.464 37.322 44.4424 42.771C43.6379 47.0621 43.1388 51.6109 42.9636 56.25H77.0328C76.8577 51.6109 76.3586 47.0621 75.554 42.771C74.5324 37.322 73.0479 32.446 71.2196 28.4069C69.3792 24.3407 67.296 21.3563 65.2152 19.4521C63.1496 17.5618 61.3733 16.9767 59.9982 16.9767Z" fill="white"/>
<path d="M44.4424 77.229C45.464 82.678 46.9485 87.554 48.7768 91.5931C50.6173 95.6593 52.7004 98.6437 54.7812 100.548C56.8468 102.438 58.6232 103.023 59.9982 103.023C61.3732 103.023 63.1496 102.438 65.2152 100.548C67.296 98.6437 69.3792 95.6593 71.2196 91.5931C73.0479 87.554 74.5324 82.678 75.554 77.229C76.3586 72.9379 76.8577 68.3891 77.0328 63.75H42.9636C43.1388 68.3891 43.6379 72.9379 44.4424 77.229Z" fill="white"/>
<path d="M59.9982 10C64.1525 10 67.8513 11.821 70.8942 14.6056C73.9218 17.3763 76.4803 21.2439 78.5497 25.8158C80.6313 30.4146 82.2482 35.7934 83.3426 41.6306C84.2199 46.3097 84.7537 51.2426 84.9317 56.25H109.86C107.942 30.3873 86.351 10 59.9982 10Z" fill="white"/>
<path d="M83.3426 78.3694C82.2482 84.2066 80.6313 89.5854 78.5497 94.1842C76.4803 98.7561 73.9218 102.624 70.8942 105.394C67.8513 108.179 64.1525 110 59.9982 110C86.351 110 107.942 89.6128 109.86 63.75H84.9317C84.7537 68.7574 84.2199 73.6903 83.3426 78.3694Z" fill="white"/>
</g>
<defs>
<filter id="filter0_i_811_8723" x="0" y="-6" width="120" height="126" filterUnits="userSpaceOnUse" color-interpolation-filters="sRGB">
<feFlood flood-opacity="0" result="BackgroundImageFix"/>
<feBlend mode="normal" in="SourceGraphic" in2="BackgroundImageFix" result="shape"/>
<feColorMatrix in="SourceAlpha" type="matrix" values="0 0 0 0 0 0 0 0 0 0 0 0 0 0 0 0 0 0 127 0" result="hardAlpha"/>
<feOffset dy="-6"/>
<feGaussianBlur stdDeviation="8"/>
<feComposite in2="hardAlpha" operator="arithmetic" k2="-1" k3="1"/>
<feColorMatrix type="matrix" values="0 0 0 0 0 0 0 0 0 0 0 0 0 0 0 0 0 0 0.5 0"/>
<feBlend mode="normal" in2="shape" result="effect1_innerShadow_811_8723"/>
</filter>
</defs>
</svg>
