<svg width="120" height="120" viewBox="0 0 120 120" fill="none" xmlns="http://www.w3.org/2000/svg">
<g filter="url(#filter0_i_811_8725)">
<path d="M45.1715 29.8152L32.4557 42.4928C30.1184 44.823 27.9744 46.9605 26.2812 48.8928C25.1939 50.1337 24.1073 51.4918 23.1868 52.9925L23.0629 52.869C22.8278 52.6346 22.71 52.5172 22.5919 52.4026C20.3818 50.2581 17.782 48.5531 14.9318 47.3788C14.7795 47.316 14.6249 47.2548 14.3157 47.1323L12.4225 46.3821C9.85766 45.3658 9.17411 42.064 11.1257 40.1183C16.7267 34.5342 23.4516 27.8297 26.697 26.4831C29.5593 25.2955 32.6512 24.9004 35.6332 25.3411C38.3655 25.7449 40.9503 27.1484 45.1715 29.8152Z" fill="white"/>
<path d="M66.8834 96.5659C67.9081 97.6058 68.5887 98.3405 69.2038 99.1253C70.0156 100.161 70.7414 101.261 71.374 102.415C72.0862 103.713 72.6391 105.1 73.7449 107.874C74.6452 110.132 77.6358 110.729 79.3728 108.997L79.793 108.578C85.3939 102.994 92.1185 96.2896 93.4692 93.0538C94.6603 90.2002 95.0567 87.1176 94.6146 84.1445C94.2097 81.4207 92.8023 78.844 90.1281 74.6365L77.3699 87.3564C74.9796 89.7396 72.788 91.9248 70.8058 93.6367C69.618 94.6625 68.3184 95.6879 66.8834 96.5659Z" fill="white"/>
<path fill-rule="evenodd" clip-rule="evenodd" d="M72.2333 81.8847L101.468 52.7381C105.678 48.5406 107.783 46.4418 108.892 43.7729C110.001 41.104 110.001 38.1359 110.001 32.1998V29.3639C110.001 20.2357 110.001 15.6715 107.156 12.8358C104.312 10 99.7341 10 90.5784 10H87.7341C81.78 10 78.8029 10 76.126 11.1055C73.4491 12.211 71.344 14.3097 67.1338 18.5073L37.8995 47.6539C32.98 52.5587 29.9295 55.6 28.7483 58.5374C28.3751 59.4655 28.1885 60.3833 28.1885 61.3462C28.1885 65.3566 31.4255 68.5839 37.8995 75.0385L38.7696 75.906L48.9622 65.5614C50.4158 64.0861 52.7901 64.0686 54.2654 65.5222C55.7407 66.9757 55.7582 69.35 54.3047 70.8253L44.081 81.2014L44.7663 81.8847C51.2403 88.3393 54.4774 91.5666 58.4998 91.5666C59.3886 91.5666 60.239 91.4091 61.0945 91.094C64.1108 89.9829 67.1898 86.9132 72.2333 81.8847ZM85.9675 47.656C82.1751 51.4371 76.0264 51.4371 72.234 47.656C68.4415 43.875 68.4415 37.7447 72.234 33.9637C76.0264 30.1827 82.1751 30.1827 85.9675 33.9637C89.7599 37.7447 89.7599 43.875 85.9675 47.656Z" fill="white"/>
</g>
<defs>
<filter id="filter0_i_811_8725" x="0" y="-6" width="120" height="126" filterUnits="userSpaceOnUse" color-interpolation-filters="sRGB">
<feFlood flood-opacity="0" result="BackgroundImageFix"/>
<feBlend mode="normal" in="SourceGraphic" in2="BackgroundImageFix" result="shape"/>
<feColorMatrix in="SourceAlpha" type="matrix" values="0 0 0 0 0 0 0 0 0 0 0 0 0 0 0 0 0 0 127 0" result="hardAlpha"/>
<feOffset dy="-6"/>
<feGaussianBlur stdDeviation="8"/>
<feComposite in2="hardAlpha" operator="arithmetic" k2="-1" k3="1"/>
<feColorMatrix type="matrix" values="0 0 0 0 0 0 0 0 0 0 0 0 0 0 0 0 0 0 0.5 0"/>
<feBlend mode="normal" in2="shape" result="effect1_innerShadow_811_8725"/>
</filter>
</defs>
</svg>
