<svg width="120" height="120" viewBox="0 0 120 120" fill="none" xmlns="http://www.w3.org/2000/svg">
<g filter="url(#filter0_i_451_3718)">
<path fill-rule="evenodd" clip-rule="evenodd" d="M60.26 6.25001H59.74C55.2477 6.24987 51.5015 6.24975 48.5276 6.64957C45.3886 7.0716 42.5546 7.99995 40.2773 10.2773C37.9999 12.5546 37.0716 15.3886 36.6496 18.5276C36.2497 21.5015 36.2499 25.2476 36.25 29.7399V30.1286C26.1441 30.4592 20.0756 31.6402 15.8579 35.8579C10 41.7157 10 51.1438 10 70C10 88.8562 10 98.2843 15.8579 104.142C21.7157 110 31.1438 110 50 110H70C88.8562 110 98.2843 110 104.142 104.142C110 98.2843 110 88.8562 110 70C110 51.1438 110 41.7157 104.142 35.8579C99.9244 31.6402 93.8559 30.4592 83.75 30.1286V29.74C83.7502 25.2477 83.7503 21.5015 83.3505 18.5276C82.9284 15.3886 82.0001 12.5546 79.7227 10.2773C77.4454 7.99995 74.6114 7.0716 71.4724 6.64957C68.4985 6.24975 64.7523 6.24987 60.26 6.25001ZM76.25 30.0094V30C76.25 25.18 76.242 21.9422 75.9173 19.527C75.6071 17.2197 75.071 16.2322 74.4194 15.5806C73.7678 14.929 72.7804 14.3929 70.4731 14.0827C68.0579 13.758 64.8201 13.75 60 13.75C55.18 13.75 51.9422 13.758 49.527 14.0827C47.2197 14.3929 46.2322 14.929 45.5806 15.5806C44.929 16.2322 44.3929 17.2197 44.0827 19.527C43.758 21.9422 43.75 25.18 43.75 30V30.0094C45.7102 30 47.7903 30 50 30H70C72.2097 30 74.2899 30 76.25 30.0094ZM85 45C85 47.7614 82.7614 50 80 50C77.2386 50 75 47.7614 75 45C75 42.2386 77.2386 40 80 40C82.7614 40 85 42.2386 85 45ZM40 50C42.7614 50 45 47.7614 45 45C45 42.2386 42.7614 40 40 40C37.2386 40 35 42.2386 35 45C35 47.7614 37.2386 50 40 50Z" fill="white"/>
</g>
<defs>
<filter id="filter0_i_451_3718" x="0" y="-6" width="120" height="126" filterUnits="userSpaceOnUse" color-interpolation-filters="sRGB">
<feFlood flood-opacity="0" result="BackgroundImageFix"/>
<feBlend mode="normal" in="SourceGraphic" in2="BackgroundImageFix" result="shape"/>
<feColorMatrix in="SourceAlpha" type="matrix" values="0 0 0 0 0 0 0 0 0 0 0 0 0 0 0 0 0 0 127 0" result="hardAlpha"/>
<feOffset dy="-6"/>
<feGaussianBlur stdDeviation="8"/>
<feComposite in2="hardAlpha" operator="arithmetic" k2="-1" k3="1"/>
<feColorMatrix type="matrix" values="0 0 0 0 0 0 0 0 0 0 0 0 0 0 0 0 0 0 0.5 0"/>
<feBlend mode="normal" in2="shape" result="effect1_innerShadow_451_3718"/>
</filter>
</defs>
</svg>
