<svg preserveAspectRatio="none" width="100%" height="100%" overflow="visible" style="display: block;" viewBox="0 0 207 32" fill="none" xmlns="http://www.w3.org/2000/svg">
<g id="Group 2087335783">
<path id="Vector" d="M72.5401 0H65.2372L57.5302 10.6465L49.8046 0H42.4506L53.8741 15.6785L42 32H49.354L57.5256 20.7105L65.6971 32H73L61.1723 15.6785" fill="var(--fill-0, white)"/>
<path id="Vector_2" d="M91.1722 18.6476H106.24V12.9891H91.1722V5.67719H108.77V0H85V32H109V26.3414H91.1722" fill="var(--fill-0, white)"/>
<path id="Vector_3" d="M170 0H164V32H170V0Z" fill="var(--fill-0, white)"/>
<path id="Vector_4" d="M191.056 0H185V32H207V26.339H191.056" fill="var(--fill-0, white)"/>
<path id="Vector_5" d="M0 32H6.3495L11.1793 22.166L16.0092 12.3553L23.1392 26.9248L25.6275 31.9628H32L16.0046 0L0 32Z" fill="var(--fill-0, white)"/>
<path id="Vector_6" d="M140.807 9.77519L135.938 19.6016L128.842 5.04601L126.352 0H120L136.002 32L152 0H145.639L140.807 9.77519Z" fill="var(--fill-0, white)"/>
<path id="Vector_7" d="M201.199 2.99599H201.801V0.516689H203V0H200V0.516689H201.199V3V2.99599Z" fill="var(--fill-0, white)"/>
<path id="Vector_8" d="M206.369 0L204.998 2.06676L203.626 0H203V3H203.626V0.929239L204.751 2.68758H205.126L206.374 0.929239V2.99599H207V0H206.374H206.369Z" fill="var(--fill-0, white)"/>
</g>
</svg>
