<svg width="28" height="28" viewBox="0 0 28 28" fill="none" xmlns="http://www.w3.org/2000/svg">
<path d="M10.786 11.0211V8.7411C10.786 8.54908 10.8608 8.40503 11.0352 8.30909L15.7947 5.66914C16.4426 5.30915 17.2151 5.14124 18.0124 5.14124C21.0025 5.14124 22.8965 7.37329 22.8965 9.74919C22.8965 9.91715 22.8965 10.1092 22.8715 10.3012L17.9376 7.51714C17.6386 7.34918 17.3395 7.34918 17.0405 7.51714L10.786 11.0211ZM21.8996 19.9012V14.4531C21.8996 14.1169 21.75 13.877 21.4511 13.709L15.1966 10.2051L17.2399 9.07698C17.4143 8.9811 17.5638 8.9811 17.7382 9.07698L22.4977 11.717C23.8684 12.4851 24.7902 14.1169 24.7902 15.7009C24.7902 17.5248 23.669 19.2049 21.8996 19.901V19.9012ZM9.31582 15.1012L7.27251 13.9493C7.09817 13.8533 7.02333 13.7093 7.02333 13.5173V8.23731C7.02333 5.66934 9.06664 3.7252 11.8327 3.7252C12.8794 3.7252 13.851 4.06133 14.6735 4.66126L9.76457 7.39739C9.46564 7.56531 9.31607 7.8053 9.31607 8.14138V15.1014L9.31582 15.1012ZM13.714 17.5491L10.786 15.9652V12.6053L13.714 11.0214L16.6418 12.6053V15.9652L13.714 17.5491ZM15.5953 24.8453C14.5486 24.8453 13.577 24.5092 12.7545 23.9092L17.6634 21.1731C17.9624 21.0052 18.1119 20.7652 18.1119 20.4291V13.4691L20.1803 14.621C20.3546 14.7169 20.4295 14.861 20.4295 15.053V20.3329C20.4295 22.9009 18.3611 24.8451 15.5953 24.8451V24.8453ZM9.68958 19.4933L4.93001 16.8533C3.55939 16.0852 2.63753 14.4533 2.63753 12.8694C2.63753 11.0214 3.78379 9.36539 5.5529 8.66933V14.1413C5.5529 14.4774 5.70252 14.7174 6.00144 14.8853L12.2312 18.3652L10.1879 19.4933C10.0135 19.5892 9.86392 19.5892 9.68958 19.4933ZM9.41563 23.4293C6.59982 23.4293 4.53153 21.3893 4.53153 18.8692C4.53153 18.6772 4.55651 18.4852 4.58128 18.2932L9.49021 21.0293C9.78913 21.1972 10.0883 21.1972 10.3872 21.0293L16.6418 17.5494V19.8294C16.6418 20.0214 16.567 20.1655 16.3926 20.2614L11.6331 22.9014C10.9852 23.2613 10.2126 23.4293 9.41537 23.4293H9.41563ZM15.5953 26.2852C18.6105 26.2852 21.1271 24.2212 21.7005 21.4851C24.4913 20.7891 26.2854 18.2691 26.2854 15.7011C26.2854 14.0211 25.538 12.3892 24.1923 11.2131C24.3169 10.7091 24.3917 10.2051 24.3917 9.70127C24.3917 6.26932 21.5011 3.70114 18.1619 3.70114C17.4893 3.70114 16.8414 3.79703 16.1935 4.01316C15.072 2.95711 13.527 2.28516 11.8327 2.28516C8.81752 2.28516 6.30089 4.34904 5.72755 7.08513C2.93671 7.78119 1.14258 10.3012 1.14258 12.8691C1.14258 14.5492 1.89005 16.1811 3.23569 17.3571C3.1111 17.8612 3.03632 18.3652 3.03632 18.869C3.03632 22.3009 5.92692 24.8691 9.26601 24.8691C9.9387 24.8691 10.5866 24.7732 11.2345 24.5571C12.3558 25.6132 13.9007 26.2852 15.5953 26.2852Z" fill="white"/>
</svg>
