<svg width="28" height="28" viewBox="0 0 28 28" fill="none" xmlns="http://www.w3.org/2000/svg">
<path d="M15.5597 10.9994C13.5313 10.2318 12.4256 9.64135 12.4256 8.70516C12.4256 7.91373 13.0635 7.4623 14.2009 7.4623C16.2807 7.4623 18.4173 8.27944 19.8882 9.01563L20.7193 3.78325C19.5529 3.21373 17.1669 2.28516 13.8685 2.28516C11.5357 2.28516 9.59507 2.90801 8.20828 4.06801C6.76638 5.2823 6.01648 7.03944 6.01648 9.15944C6.01648 13.0061 8.32034 14.6452 12.0642 16.0347C14.4783 16.9109 15.2814 17.5337 15.2814 18.4947C15.2814 19.428 14.497 19.9661 13.0831 19.9661C11.3321 19.9661 8.44641 19.089 6.55533 17.9575L5.71484 23.248C7.34071 24.1804 10.3384 25.1423 13.4473 25.1423C15.9136 25.1423 17.97 24.548 19.3568 23.4156C20.9108 22.1728 21.7148 20.3337 21.7148 17.9566C21.7148 14.0252 19.3578 12.3842 15.5569 10.9994H15.5597Z" fill="white"/>
</svg>
