<svg preserveAspectRatio="none" width="100%" height="100%" overflow="visible" style="display: block;" viewBox="0 0 16.6667 14.48" fill="none" xmlns="http://www.w3.org/2000/svg">
<g id="Vector">
<path d="M0 10.9392V1.651C0 0.735858 0.738584 -0.00756629 1.652 0.0485725C2.46564 0.098579 3.42791 0.197424 4.16667 0.392368C5.04101 0.62309 6.08009 1.11451 6.90188 1.54905C7.15775 1.68435 7.42985 1.7782 7.70833 1.83111L7.70833 14.48C7.45588 14.4243 7.20959 14.3345 6.97701 14.2105C6.14411 13.7666 5.06788 13.2518 4.16667 13.014C3.43608 12.8212 2.4869 12.7224 1.67905 12.6718C0.755038 12.6141 0 11.865 0 10.9392Z" fill="var(--fill-0, #080808)"/>
<path d="M8.95833 14.48C9.21079 14.4243 9.45708 14.3345 9.68965 14.2105C10.5226 13.7666 11.5988 13.2518 12.5 13.014C13.2306 12.8212 14.1798 12.7224 14.9876 12.6718C15.9116 12.6141 16.6667 11.865 16.6667 10.9392V1.59716C16.6667 0.703454 15.9615 -0.0301575 15.0683 0.000954468C14.1278 0.0337147 12.9558 0.131188 12.0833 0.392368C11.327 0.618802 10.4461 1.07299 9.7282 1.48846C9.4853 1.62904 9.22568 1.73229 8.95833 1.79776L8.95833 14.48Z" fill="var(--fill-0, #080808)"/>
</g>
</svg>
