<svg preserveAspectRatio="none" width="100%" height="100%" overflow="visible" style="display: block;" viewBox="0 0 16.7164 10.6449" fill="none" xmlns="http://www.w3.org/2000/svg">
<path id="Cellular Connection" fill-rule="evenodd" clip-rule="evenodd" d="M16.7164 0.997958C16.7164 0.446801 16.3006 0 15.7877 0H14.859C14.3461 0 13.9303 0.446801 13.9303 0.997958V9.64693C13.9303 10.1981 14.3461 10.6449 14.859 10.6449H15.7877C16.3006 10.6449 16.7164 10.1981 16.7164 9.64693V0.997958ZM10.2439 2.12898H11.1726C11.6855 2.12898 12.1013 2.5865 12.1013 3.15089V9.62298C12.1013 10.1874 11.6855 10.6449 11.1726 10.6449H10.2439C9.73103 10.6449 9.31524 10.1874 9.31524 9.62298V3.15089C9.31524 2.5865 9.73103 2.12898 10.2439 2.12898ZM6.47249 4.43536H5.5438C5.0309 4.43536 4.61511 4.89871 4.61511 5.47028V9.60996C4.61511 10.1815 5.0309 10.6449 5.5438 10.6449H6.47249C6.98539 10.6449 7.40118 10.1815 7.40118 9.60996V5.47028C7.40118 4.89871 6.98539 4.43536 6.47249 4.43536ZM1.85738 6.56435H0.92869C0.415789 6.56435 0 7.02108 0 7.58448V9.62475C0 10.1882 0.415789 10.6449 0.92869 10.6449H1.85738C2.37028 10.6449 2.78607 10.1882 2.78607 9.62475V7.58448C2.78607 7.02108 2.37028 6.56435 1.85738 6.56435Z" fill="var(--fill-0, white)"/>
</svg>
