<svg preserveAspectRatio="none" width="100%" height="100%" overflow="visible" style="display: block;" viewBox="0 0 14.9243 10.7336" fill="none" xmlns="http://www.w3.org/2000/svg">
<path id="Wifi" fill-rule="evenodd" clip-rule="evenodd" d="M7.46258 2.14726C9.62797 2.14735 11.7106 2.95016 13.2799 4.38976C13.3981 4.5009 13.587 4.4995 13.7034 4.38661L14.833 3.28658C14.892 3.22933 14.9248 3.15177 14.9243 3.07108C14.9238 2.99039 14.89 2.91321 14.8304 2.85662C10.7114 -0.952208 4.21312 -0.952208 0.0940786 2.85662C0.0344114 2.91317 0.00055701 2.99032 6.81193e-06 3.07101C-0.000543387 3.15171 0.032256 3.22928 0.0911469 3.28658L1.22113 4.38661C1.33744 4.49967 1.52648 4.50107 1.64459 4.38976C3.21414 2.95007 5.29697 2.14725 7.46258 2.14726ZM7.45966 5.82163C8.6414 5.82156 9.78097 6.2671 10.6569 7.07169C10.7754 7.18588 10.9621 7.1834 11.0776 7.06611L12.1983 5.91746C12.2573 5.85721 12.2901 5.77548 12.2892 5.69054C12.2884 5.60561 12.254 5.52457 12.1938 5.46555C9.52628 2.94864 5.39529 2.94864 2.72778 5.46555C2.66752 5.52457 2.63314 5.60565 2.63235 5.69061C2.63156 5.77557 2.66443 5.8573 2.72357 5.91746L3.84402 7.06611C3.95951 7.1834 4.14615 7.18588 4.26463 7.07169C5.14002 6.26763 6.27869 5.82213 7.45966 5.82163ZM9.65754 8.25383C9.65921 8.34555 9.62694 8.43398 9.56835 8.49824L7.67325 10.6354C7.61769 10.6983 7.54195 10.7336 7.46292 10.7336C7.3839 10.7336 7.30816 10.6983 7.2526 10.6354L5.35718 8.49824C5.29863 8.43393 5.26642 8.34547 5.26815 8.25375C5.26989 8.16203 5.30542 8.07517 5.36635 8.01369C6.57664 6.86975 8.34921 6.86975 9.5595 8.01369C9.62039 8.07522 9.65586 8.1621 9.65754 8.25383Z" fill="var(--fill-0, white)"/>
</svg>
