<svg preserveAspectRatio="none" width="100%" height="100%" overflow="visible" style="display: block;" viewBox="0 0 114 16" fill="none" xmlns="http://www.w3.org/2000/svg">
<g id="spacex 2" clip-path="url(#clip0_44_500)">
<path id="Vector" d="M29.434 6.11495H18.7722L18.3914 6.42149V15.9617H21.3234V12.3601L21.5899 12.092H29.4339C31.4139 12.092 32.3278 11.5556 32.3278 10.1764V7.99243C32.3279 6.65134 31.414 6.11495 29.434 6.11495ZM29.434 9.63981C29.434 10.2911 29.0151 10.406 28.0632 10.406H21.6281L21.3234 10.1379V8.10728L21.5899 7.83908H28.0631C28.977 7.83908 29.4339 7.95403 29.4339 8.60532L29.434 9.63981ZM37.7349 7.91567L40.2861 11.6704L40.1338 12.0153H34.4983L33.0514 13.8161H41.4284L42.0377 14.1609L43.3323 15.9616H46.7212L39.2961 6M71.3575 14.0459V11.364L71.6621 11.0957H77.3357V9.40991H68.3493V15.9616H81.6004V14.2758H71.7002M68.3493 6.11495H81.7146V7.95403H68.3493V6.11495ZM53.461 7.87738H64.2369C64.0846 6.49809 63.2088 6.11495 61.0765 6.11495H53.3468C50.9098 6.11495 50.1483 6.57474 50.1483 8.45207V13.6628C50.1483 15.5019 50.9098 16 53.3468 16H61.0765C63.247 16 64.0846 15.5785 64.1608 14.1609H53.461L53.1564 13.8543V8.10728M11.1567 9.94636H3.35081L3.12233 9.67821V7.99238L3.35081 7.80083H13.8983L14.0506 7.45598C13.7079 6.53639 12.756 6.0767 11.0425 6.0767H3.69348C1.25653 6.0767 0.494971 6.53644 0.494971 8.41377V9.52491C0.494971 11.364 1.25653 11.8621 3.69348 11.8621H11.4994L11.7279 12.0919V13.8544L11.5375 14.1226H0.266492C0.266492 14.1226 0 14.2758 0 14.3142C0.190365 15.6169 1.06617 15.9616 3.16039 15.9616H11.1568C13.5937 15.9616 14.3934 15.5019 14.3934 13.6245V12.2835C14.3933 10.4445 13.5937 9.94636 11.1567 9.94636ZM90.1297 6.07665H85.7127L85.4843 6.53639L90.3582 10.138C91.2721 9.60151 92.3001 9.06517 93.3663 8.52872M94.0898 12.8199L98.3926 15.9616H102.81L103 15.5402L96.6029 10.8275C95.7652 11.4788 94.8895 12.1302 94.0898 12.8199Z" fill="var(--fill-0, white)"/>
<path id="Vector_2" d="M89.3278 16H85.3417L85 15.4509C87.6954 12.7451 99.7676 1.21569 126 0C126 0 104.019 0.784268 89.3278 16Z" fill="var(--fill-0, white)"/>
</g>
<defs>
<clipPath id="clip0_44_500">
<rect width="114" height="16" fill="white"/>
</clipPath>
</defs>
</svg>
