<svg preserveAspectRatio="none" width="100%" height="100%" overflow="visible" style="display: block;" viewBox="0 0 212 27" fill="none" xmlns="http://www.w3.org/2000/svg">
<g id="spacex 2" clip-path="url(#clip0_20_367)">
<path id="Vector" d="M69.4377 10.1954H51.5301L50.8904 10.7165V26.9349H55.8151V20.8122L56.2627 20.3564H69.4376C72.7632 20.3564 74.2982 19.4446 74.2982 17.0998V13.3871C74.2984 11.1073 72.7633 10.1954 69.4377 10.1954ZM69.4377 16.1877C69.4377 17.2949 68.7341 17.4903 67.1353 17.4903H56.3268L55.8151 17.0344V13.5824L56.2627 13.1264H67.1351C68.6701 13.1264 69.4375 13.3218 69.4375 14.429L69.4377 16.1877ZM83.38 13.2566L87.665 19.6397L87.4092 20.226H77.9438L75.5135 23.2873H89.5836L90.607 23.8735L92.7815 26.9348H98.4735L86.0022 10M139.853 23.6781V19.1188L140.365 18.6628H149.894V15.7969H134.8V26.9348H157.057V24.0689H140.428M134.8 10.1954H157.249V13.3218H134.8V10.1954ZM109.794 13.1915H127.893C127.637 10.8468 126.166 10.1954 122.585 10.1954H109.602C105.509 10.1954 104.23 10.9771 104.23 14.1685V23.0267C104.23 26.1532 105.509 27 109.602 27H122.585C126.23 27 127.637 26.2835 127.765 23.8735H109.794L109.282 23.3523V13.5824M38.7389 16.7088H25.6281L25.2443 16.253V13.387L25.6281 13.0614H43.3437L43.5996 12.4752C43.0239 10.9119 41.4251 10.1304 38.5471 10.1304H26.2036C22.1105 10.1304 20.8314 10.912 20.8314 14.1034V15.9924C20.8314 19.1189 22.1105 19.9656 26.2036 19.9656H39.3146L39.6982 20.3563V23.3524L39.3785 23.8084H20.4476C20.4476 23.8084 20 24.0689 20 24.1341C20.3197 26.3487 21.7908 26.9348 25.3082 26.9348H38.739C42.8321 26.9348 44.1753 26.1532 44.1753 22.9617V20.6819C44.1752 17.5556 42.8321 16.7088 38.7389 16.7088ZM171.383 10.1303H163.964L163.58 10.9119L171.767 17.0345C173.302 16.1226 175.028 15.2108 176.819 14.2988M178.034 21.5939L185.261 26.9348H192.68L193 26.2183L182.255 18.2068C180.848 19.314 179.377 20.4214 178.034 21.5939Z" fill="var(--fill-0, #303030)"/>
<path id="Vector_2" d="M170.283 27H163.575L163 26.0734C167.536 21.5074 187.853 2.05147 232 0C232 0 195.008 1.32345 170.283 27Z" fill="var(--fill-0, #A7A9AC)"/>
</g>
<defs>
<clipPath id="clip0_20_367">
<rect width="212" height="27" fill="white"/>
</clipPath>
</defs>
</svg>
