<svg width="120" height="120" viewBox="0 0 120 120" fill="none" xmlns="http://www.w3.org/2000/svg">
<g filter="url(#filter0_i_811_8724)">
<path fill-rule="evenodd" clip-rule="evenodd" d="M17.3223 17.3223C10 24.6447 10 36.4298 10 60C10 83.5702 10 95.3553 17.3223 102.678C24.6447 110 36.4298 110 60 110C83.5702 110 95.3553 110 102.678 102.678C110 95.3553 110 83.5702 110 60C110 36.4298 110 24.6447 102.678 17.3223C95.3553 10 83.5702 10 60 10C36.4298 10 24.6447 10 17.3223 17.3223ZM85 41.25C87.0711 41.25 88.75 42.9289 88.75 45V90C88.75 92.0711 87.0711 93.75 85 93.75C82.9289 93.75 81.25 92.0711 81.25 90V45C81.25 42.9289 82.9289 41.25 85 41.25ZM63.75 60C63.75 57.9289 62.0711 56.25 60 56.25C57.9289 56.25 56.25 57.9289 56.25 60V90C56.25 92.0711 57.9289 93.75 60 93.75C62.0711 93.75 63.75 92.0711 63.75 90V60ZM35 71.25C37.0711 71.25 38.75 72.9289 38.75 75V90C38.75 92.0711 37.0711 93.75 35 93.75C32.9289 93.75 31.25 92.0711 31.25 90V75C31.25 72.9289 32.9289 71.25 35 71.25Z" fill="white"/>
</g>
<defs>
<filter id="filter0_i_811_8724" x="0" y="-6" width="120" height="126" filterUnits="userSpaceOnUse" color-interpolation-filters="sRGB">
<feFlood flood-opacity="0" result="BackgroundImageFix"/>
<feBlend mode="normal" in="SourceGraphic" in2="BackgroundImageFix" result="shape"/>
<feColorMatrix in="SourceAlpha" type="matrix" values="0 0 0 0 0 0 0 0 0 0 0 0 0 0 0 0 0 0 127 0" result="hardAlpha"/>
<feOffset dy="-6"/>
<feGaussianBlur stdDeviation="8"/>
<feComposite in2="hardAlpha" operator="arithmetic" k2="-1" k3="1"/>
<feColorMatrix type="matrix" values="0 0 0 0 0 0 0 0 0 0 0 0 0 0 0 0 0 0 0.5 0"/>
<feBlend mode="normal" in2="shape" result="effect1_innerShadow_811_8724"/>
</filter>
</defs>
</svg>
