<svg preserveAspectRatio="none" width="100%" height="100%" overflow="visible" style="display: block;" viewBox="0 0 15 15.5625" fill="none" xmlns="http://www.w3.org/2000/svg">
<path id="Vector" fill-rule="evenodd" clip-rule="evenodd" d="M2.4375 6.60346V5.0625C2.4375 2.26656 4.70406 0 7.5 0C10.2959 0 12.5625 2.26656 12.5625 5.0625V6.60346C13.3986 6.6659 13.943 6.82354 14.341 7.22151C15 7.88052 15 8.94118 15 11.0625C15 13.1838 15 14.2445 14.341 14.9035C13.682 15.5625 12.6213 15.5625 10.5 15.5625H4.5C2.37868 15.5625 1.31802 15.5625 0.65901 14.9035C0 14.2445 0 13.1838 0 11.0625C0 8.94118 0 7.88052 0.65901 7.22151C1.05698 6.82354 1.60143 6.6659 2.4375 6.60346ZM3.5625 5.0625C3.5625 2.88788 5.32538 1.125 7.5 1.125C9.67462 1.125 11.4375 2.88788 11.4375 5.0625V6.56518C11.1502 6.5625 10.8386 6.5625 10.5 6.5625H4.5C4.16136 6.5625 3.84976 6.5625 3.5625 6.56518V5.0625ZM9 11.0625C9 11.8909 8.32843 12.5625 7.5 12.5625C6.67157 12.5625 6 11.8909 6 11.0625C6 10.2341 6.67157 9.5625 7.5 9.5625C8.32843 9.5625 9 10.2341 9 11.0625Z" fill="var(--fill-0, #2B2B2B)"/>
</svg>
