<svg preserveAspectRatio="none" width="100%" height="100%" overflow="visible" style="display: block;" viewBox="0 0 15 15" fill="none" xmlns="http://www.w3.org/2000/svg">
<path id="Vector" fill-rule="evenodd" clip-rule="evenodd" d="M15 4.72008C15 7.3269 12.8781 9.44015 10.2606 9.44015C9.78294 9.44015 8.69544 9.33038 8.16639 8.89131L7.50504 9.54995C7.11622 9.93719 7.22122 10.0512 7.39419 10.239C7.46636 10.3174 7.55036 10.4086 7.61526 10.5378C7.61526 10.5378 8.16636 11.3062 7.61526 12.0746C7.28461 12.5137 6.35876 13.1284 5.30065 12.0746L5.08022 12.2942C5.08022 12.2942 5.74153 13.0625 5.19043 13.8309C4.85978 14.27 3.97802 14.7091 3.20648 13.9407L2.43495 14.7091C1.90589 15.236 1.25929 14.9286 1.00212 14.7091L0.340804 14.0505C-0.276425 13.4358 0.0836253 12.7698 0.340804 12.5137L6.07222 6.80569C6.07222 6.80569 5.52112 5.92754 5.52112 4.72008C5.52112 2.11325 7.64304 0 10.2606 0C12.8781 0 15 2.11325 15 4.72008ZM10.2607 6.36668C11.1738 6.36668 11.914 5.6295 11.914 4.72015C11.914 3.81079 11.1738 3.07361 10.2607 3.07361C9.34763 3.07361 8.60742 3.81079 8.60742 4.72015C8.60742 5.6295 9.34763 6.36668 10.2607 6.36668Z" fill="var(--fill-0, #2A2A2A)"/>
</svg>
