<svg width="18" height="18" viewBox="0 0 18 18" fill="none" xmlns="http://www.w3.org/2000/svg">
  <path fill-rule="evenodd" clip-rule="evenodd" d="M9 1.5C6.93 1.5 5.25 3.18 5.25 5.25V7.5H4.5C3.67 7.5 3 8.17 3 9V15C3 15.83 3.67 16.5 4.5 16.5H13.5C14.33 16.5 15 15.83 15 15V9C15 8.17 14.33 7.5 13.5 7.5H12.75V5.25C12.75 3.18 11.07 1.5 9 1.5ZM11.25 7.5V5.25C11.25 4.01 10.24 3 9 3C7.76 3 6.75 4.01 6.75 5.25V7.5H11.25ZM9 10.5C9.62 10.5 10.12 11 10.12 11.62C10.12 12.03 9.9 12.38 9.56 12.59L9.75 14.25H8.25L8.44 12.59C8.1 12.38 7.88 12.03 7.88 11.62C7.88 11 8.38 10.5 9 10.5Z" fill="white"/>
</svg>
