<svg preserveAspectRatio="none" width="100%" height="100%" overflow="visible" style="display: block;" viewBox="0 0 877 160" fill="none" xmlns="http://www.w3.org/2000/svg">
<g id="Group 3">
<path id="fatline" d="M413 160C421.837 160 429 152.837 429 144C429 135.163 421.837 128 413 128V144V160ZM16 96H32V0H16H0V96H16ZM64 144V160H413V144V128H64V144ZM16 96H0C0 131.346 28.6538 160 64 160V144V128C46.3269 128 32 113.673 32 96H16Z" fill="var(--stroke-0, #101010)"/>
<path id="fat-line" d="M464 160C455.163 160 448 152.837 448 144C448 135.163 455.163 128 464 128V144V160ZM861 96H845V0L861 0L877 0V96H861ZM813 144V160H464V144V128H813V144ZM861 96H877C877 131.346 848.346 160 813 160V144V128C830.673 128 845 113.673 845 96H861Z" fill="var(--stroke-0, #101010)"/>
<path id="Vector 14" d="M411 145C411.552 145 412 144.552 412 144C412 143.448 411.552 143 411 143V144V145ZM411 144V143H64V144V145H411V144ZM16 96H17V0.5H16H15V96H16ZM64 144V143C38.0426 143 17 121.957 17 96H16H15C15 123.062 36.938 145 64 145V144Z" fill="url(#paint0_linear_21_381)"/>
<path id="Line 114" d="M289 143.5C288.724 143.5 288.5 143.724 288.5 144C288.5 144.276 288.724 144.5 289 144.5V144V143.5ZM339 144V143.5H289V144V144.5H339V144Z" fill="url(#paint1_linear_21_381)"/>
<path id="Line 117" d="M613 143.5C612.724 143.5 612.5 143.724 612.5 144C612.5 144.276 612.724 144.5 613 144.5V144V143.5ZM663 144V143.5H613V144V144.5H663V144Z" fill="url(#paint2_linear_21_381)"/>
<path id="Line 115" d="M162 143.5C161.724 143.5 161.5 143.724 161.5 144C161.5 144.276 161.724 144.5 162 144.5V144V143.5ZM212 144V143.5H162V144V144.5H212V144Z" fill="url(#paint3_linear_21_381)"/>
<path id="Line 118" d="M486 143.5C485.724 143.5 485.5 143.724 485.5 144C485.5 144.276 485.724 144.5 486 144.5V144V143.5ZM536 144V143.5H486V144V144.5H536V144Z" fill="url(#paint4_linear_21_381)"/>
<path id="Line 116" d="M16.5 54C16.5 53.7239 16.2761 53.5 16 53.5C15.7239 53.5 15.5 53.7239 15.5 54L16 54L16.5 54ZM16 104L16.5 104L16.5 54L16 54L15.5 54L15.5 104L16 104Z" fill="url(#paint5_linear_21_381)"/>
<path id="Line 119" d="M861.5 54C861.5 53.7239 861.276 53.5 861 53.5C860.724 53.5 860.5 53.7239 860.5 54L861 54L861.5 54ZM861 104L861.5 104L861.5 54L861 54L860.5 54L860.5 104L861 104Z" fill="url(#paint6_linear_21_381)"/>
<path id="Vector 17" d="M465 145C464.448 145 464 144.552 464 144C464 143.448 464.448 143 465 143V144V145ZM465 144V143H813V144V145H465V144ZM861 96H860V0H861H862V96H861ZM813 144V143C838.957 143 860 121.957 860 96H861H862C862 123.062 840.062 145 813 145V144Z" fill="url(#paint7_linear_21_381)"/>
</g>
<defs>
<linearGradient id="paint0_linear_21_381" x1="16" y1="44" x2="361.607" y2="123.808" gradientUnits="userSpaceOnUse">
<stop stop-color="#393939" stop-opacity="0.1"/>
<stop offset="0.495192" stop-color="#393939" stop-opacity="0.75"/>
<stop offset="1" stop-color="#393939" stop-opacity="0.1"/>
</linearGradient>
<linearGradient id="paint1_linear_21_381" x1="289" y1="143" x2="339" y2="143" gradientUnits="userSpaceOnUse">
<stop stop-color="white" stop-opacity="0"/>
<stop offset="0.5" stop-color="#B5FFFF"/>
<stop offset="1" stop-color="white" stop-opacity="0"/>
</linearGradient>
<linearGradient id="paint2_linear_21_381" x1="613" y1="143" x2="663" y2="143" gradientUnits="userSpaceOnUse">
<stop stop-color="white" stop-opacity="0"/>
<stop offset="0.5" stop-color="#B5FFFF"/>
<stop offset="1" stop-color="white" stop-opacity="0"/>
</linearGradient>
<linearGradient id="paint3_linear_21_381" x1="162" y1="143" x2="212" y2="143" gradientUnits="userSpaceOnUse">
<stop stop-color="white" stop-opacity="0"/>
<stop offset="0.5" stop-color="#B5FFFF"/>
<stop offset="1" stop-color="white" stop-opacity="0"/>
</linearGradient>
<linearGradient id="paint4_linear_21_381" x1="486" y1="143" x2="536" y2="143" gradientUnits="userSpaceOnUse">
<stop stop-color="white" stop-opacity="0"/>
<stop offset="0.5" stop-color="#B5FFFF"/>
<stop offset="1" stop-color="white" stop-opacity="0"/>
</linearGradient>
<linearGradient id="paint5_linear_21_381" x1="17" y1="54" x2="17" y2="104" gradientUnits="userSpaceOnUse">
<stop stop-color="white" stop-opacity="0"/>
<stop offset="0.5" stop-color="#B5FFFF"/>
<stop offset="1" stop-color="white" stop-opacity="0"/>
</linearGradient>
<linearGradient id="paint6_linear_21_381" x1="862" y1="54" x2="862" y2="104" gradientUnits="userSpaceOnUse">
<stop stop-color="white" stop-opacity="0"/>
<stop offset="0.5" stop-color="#B5FFFF"/>
<stop offset="1" stop-color="white" stop-opacity="0"/>
</linearGradient>
<linearGradient id="paint7_linear_21_381" x1="861" y1="44" x2="514.607" y2="124.192" gradientUnits="userSpaceOnUse">
<stop stop-color="#393939" stop-opacity="0.15"/>
<stop offset="0.495192" stop-color="#393939" stop-opacity="0.75"/>
<stop offset="1" stop-color="#393939" stop-opacity="0.15"/>
</linearGradient>
</defs>
</svg>
