<svg width="24" height="24" viewBox="0 0 24 24" fill="none" xmlns="http://www.w3.org/2000/svg">
  <!-- v1: head circle at (9,4) 7×7 -->
  <svg x="9" y="4" width="7" height="7" viewBox="0 0 7 7">
    <path d="M7 3.5C7 5.433 5.433 7 3.5 7C1.567 7 0 5.433 0 3.5C0 1.567 1.567 0 3.5 0C5.433 0 7 1.567 7 3.5Z" fill="white"/>
  </svg>
  <!-- v2: body ellipse at (6,13) 12×7 -->
  <svg x="6" y="13" width="12" height="7" viewBox="0 0 12 7">
    <path d="M12 3.5C12 5.433 9.31371 7 6 7C2.68629 7 0 5.433 0 3.5C0 1.567 2.68629 0 6 0C9.31371 0 12 1.567 12 3.5Z" fill="white"/>
  </svg>
  <!-- v3: left person at (2,5) 6×14 -->
  <svg x="2" y="5" width="6" height="14" viewBox="0 0 6 14">
    <path d="M5.44894 0C5.63772 0 5.82203 0.0174297 6 0.0506137C5.56643 0.775234 5.3191 1.61169 5.3191 2.50251C5.3191 3.37163 5.55453 4.18902 5.96866 4.90127C5.80042 4.93077 5.62667 4.94622 5.44894 4.94622C3.94425 4.94622 2.72447 3.83897 2.72447 2.47311C2.72447 1.10725 3.94425 0 5.44894 0Z" fill="white"/>
    <path d="M3.66734 14C3.06318 13.3204 2.65955 12.4865 2.65955 11.5115C2.65955 10.5664 3.03888 9.75377 3.6125 9.08584C1.58626 9.23372 0 10.2765 0 11.541C0 12.8173 1.61414 13.8677 3.66734 14Z" fill="white"/>
  </svg>
  <!-- v4: right person at (16,5) 6×14 -->
  <svg x="16" y="5" width="6" height="14" viewBox="0 0 6 14">
    <path d="M0.680901 2.50251C0.680901 3.37163 0.445468 4.18902 0.0313368 4.90128C0.199577 4.93077 0.373333 4.94622 0.551063 4.94622C2.05575 4.94622 3.27553 3.83897 3.27553 2.47311C3.27553 1.10725 2.05575 0 0.551063 0C0.362275 0 0.177971 0.0174297 0 0.0506137C0.43357 0.775234 0.680901 1.61169 0.680901 2.50251Z" fill="white"/>
    <path d="M2.33266 14C4.38586 13.8677 6 12.8173 6 11.541C6 10.2765 4.41374 9.23372 2.3875 9.08584C2.96112 9.75377 3.34045 10.5664 3.34045 11.5115C3.34045 12.4865 2.93682 13.3204 2.33266 14Z" fill="white"/>
  </svg>
</svg>
